<?xml version="1.0"?>
<svg xmlns="http://www.w3.org/2000/svg" id="Layer_1" enable-background="new 0 0 256 256" height="512px" viewBox="0 0 256 256" width="512px" class="hovered-paths"><g><g><g><g><g><g><path d="m130.881 130.548 8.787 18.08c.97 1.995 3.812 1.995 4.782 0l8.787-18.08c22.141-5.076 38.663-24.885 38.663-48.566 0-27.527-22.314-49.841-49.841-49.841s-49.841 22.314-49.841 49.841c0 23.681 16.521 43.49 38.663 48.566z" fill="#e0ebfc" data-original="#E0EBFC" class="" style="fill:#EBE7F2" data-old_color="#e0ebfc"/></g></g></g></g><g><g><g><g><path d="m168.462 71.549h-17.072v-17.072c0-1.043-.846-1.89-1.89-1.89h-14.633c-1.044 0-1.889.846-1.889 1.89v17.072h-17.072c-1.044 0-1.89.846-1.89 1.89v14.633c0 1.043.846 1.89 1.89 1.89h17.072v17.072c0 1.043.846 1.89 1.889 1.89h14.633c1.044 0 1.89-.846 1.89-1.89v-17.073h17.072c1.043 0 1.889-.846 1.889-1.89v-14.633c0-1.043-.846-1.889-1.889-1.889z" fill="#f9a7a7" data-original="#F9A7A7" class="" style="fill:#00BF91" data-old_color="#f9a7a7"/></g></g></g></g><g><g><g><g><g><path d="m169.498 171.808-88.046-7.002v-25.002c0-6.747 0-49.209 0-50.434 0-12.676-6.423-23.853-16.191-30.452-24.384-16.475-57.259 1.152-57.259 30.452v104.887 8.065c0 7.993 6.48 14.473 14.473 14.473h147.023z" fill="#f9cfcf" data-original="#F9CFCF" class="hovered-path active-path" data-old_color="#f9cfcf" style="fill:#FFFFFF"/></g></g></g></g><g><g><g><g><path d="m202.221 151.188c2.671 3.815 1.744 9.074-2.071 11.745l-7.437 5.208h2.447 40.305c3.75 0 6.977 2.882 7.153 6.628.188 4-2.999 7.301-6.957 7.301h5.372c3.846 0 6.965 3.118 6.965 6.965 0 3.846-3.118 6.965-6.965 6.965h-5.372c3.846 0 6.965 3.118 6.965 6.965 0 3.846-3.118 6.965-6.965 6.965h-11.305c3.958 0 7.145 3.302 6.957 7.301-.176 3.746-3.403 6.628-7.153 6.628h-29c-7.496-.442-14.976-1.107-22.431-1.986-11.922-1.055-21.064-11.042-21.064-23.011v-13.092c0-8.17 4.315-15.732 11.349-19.889l3.034-1.793 25.018-15.346-.003.007c3.752-2.196 8.62-1.184 11.158 2.439z" fill="#f9cfcf" data-original="#F9CFCF" class="hovered-path active-path" data-old_color="#f9cfcf" style="fill:#FFFFFF"/></g></g></g></g><g><g><g><g><path d="m224.159 225.859h-28.999c-.039 0-.078-.001-.118-.004-7.456-.439-15.043-1.111-22.548-1.996-4.682-.414-9.161-2.163-12.951-5.064h-137.068c-9.083 0-16.473-7.39-16.473-16.473v-112.952c0-14.554 7.703-27.335 20.604-34.188 12.863-6.833 27.73-6.057 39.773 2.079 10.689 7.222 17.071 19.226 17.071 32.109v73.588l72.868 5.795c1.663-1.806 3.569-3.348 5.677-4.593l3.034-1.793 24.989-15.33c.058-.035.115-.066.175-.096 4.628-2.613 10.604-1.271 13.665 3.1 1.599 2.283 2.212 5.052 1.728 7.797-.483 2.744-2.008 5.136-4.291 6.734l-2.241 1.569h36.409c4.906 0 8.927 3.748 9.152 8.533.095 2.036-.479 3.986-1.635 5.609 4.01.893 7.017 4.478 7.017 8.751 0 4.276-3.01 7.862-7.021 8.753 1.038 1.463 1.649 3.25 1.649 5.177 0 4.943-4.021 8.965-8.965 8.965h-3.837c1.057 1.58 1.578 3.448 1.486 5.396-.223 4.785-4.243 8.534-9.15 8.534zm-28.941-4h28.941c2.721 0 5.033-2.118 5.155-4.722.065-1.375-.42-2.679-1.366-3.67-.945-.992-2.222-1.538-3.592-1.538-1.104 0-2-.896-2-2s.896-2 2-2h11.305c2.737 0 4.965-2.228 4.965-4.965s-2.228-4.964-4.965-4.964c-1.104 0-2-.896-2-2s.896-2 2-2h5.372c2.737 0 4.965-2.228 4.965-4.965s-2.228-4.964-4.965-4.964h-5.372c-1.104 0-2-.896-2-2s.896-2 2-2c1.37 0 2.646-.546 3.592-1.538.946-.991 1.432-2.295 1.367-3.67-.123-2.604-2.436-4.722-5.156-4.722h-42.751c-.873 0-1.645-.566-1.907-1.398s.045-1.739.76-2.24l7.437-5.208c1.408-.985 2.348-2.46 2.646-4.152s-.08-3.399-1.066-4.807c-1.904-2.722-5.642-3.538-8.509-1.86-.027.016-.056.031-.085.047l-24.895 15.271-3.063 1.81c-2.021 1.193-3.82 2.713-5.351 4.517-.416.491-1.049.75-1.684.7l-75.703-6.021c-1.04-.083-1.842-.951-1.842-1.994v-75.436c0-11.554-5.724-22.317-15.311-28.795-10.794-7.292-24.123-7.986-35.657-1.861-11.572 6.147-18.481 17.607-18.481 30.656v112.952c0 6.878 5.596 12.473 12.473 12.473h137.762c.459 0 .903.158 1.26.447 3.285 2.664 7.23 4.269 11.409 4.639 7.464.879 14.952 1.543 22.312 1.978z" fill="#3762cc" data-original="#3762CC" class="" data-old_color="#3762cc" style="fill:#000000"/></g></g></g></g><g><g><g><g><path d="m163.392 218.939v-53.281l-.378.224c-2.25 1.33-4.217 3.01-5.858 4.945l-15.097-1.201v47.169h18.177c.986.799 2.045 1.511 3.156 2.144z" fill="#e0ebfc" data-original="#E0EBFC" class="" style="fill:#EBE7F2" data-old_color="#e0ebfc"/></g></g></g></g><g><g><g><g><path d="m163.392 220.939c-.342 0-.684-.088-.99-.263-1.016-.578-1.974-1.21-2.856-1.882h-17.486c-1.104 0-2-.896-2-2v-47.169c0-.558.233-1.091.643-1.469.41-.379.962-.563 1.516-.525l14.103 1.121c1.663-1.806 3.569-3.348 5.677-4.593l.377-.224c.616-.366 1.385-.371 2.009-.016s1.01 1.019 1.01 1.737v53.281c0 .713-.379 1.371-.995 1.729-.314.184-.662.273-1.008.273zm-19.333-6.144h16.178c.415 0 .818.129 1.155.367v-45.712c-.978.803-1.884 1.695-2.711 2.67-.416.491-1.049.75-1.684.7l-12.938-1.029z" fill="#3762cc" data-original="#3762CC" class="" data-old_color="#3762cc" style="fill:#000000"/></g></g></g></g><g><g><g><g><path d="m226.153 211.93h-23.796c-1.104 0-2-.896-2-2s.896-2 2-2h23.796c1.104 0 2 .896 2 2s-.895 2-2 2z" fill="#3762cc" data-original="#3762CC" class="" data-old_color="#3762cc" style="fill:#000000"/></g></g></g></g><g><g><g><g><path d="m235.661 198h-33.304c-1.104 0-2-.896-2-2s.896-2 2-2h33.304c1.104 0 2 .896 2 2s-.895 2-2 2z" fill="#3762cc" data-original="#3762CC" class="" data-old_color="#3762cc" style="fill:#000000"/></g></g></g></g><g><g><g><g><path d="m235.661 184.07h-33.304c-1.104 0-2-.896-2-2s.896-2 2-2h33.304c1.104 0 2 .896 2 2s-.895 2-2 2z" fill="#3762cc" data-original="#3762CC" class="" data-old_color="#3762cc" style="fill:#000000"/></g></g></g></g><g><g><g><g><path d="m154.102 170.583-21.625-1.719-12.843 47.931h22.086z" fill="#e0ebfc" data-original="#E0EBFC" class="" style="fill:#EBE7F2" data-old_color="#e0ebfc"/></g></g></g></g><g><g><g><g><path d="m111.665 167.208-21.334-1.696v51.283h21.333z" fill="#e0ebfc" data-original="#E0EBFC" class="" style="fill:#EBE7F2" data-old_color="#e0ebfc"/></g></g></g></g><g><g><g><g><path d="m195.16 168.141h-2.447l-7.548 8.817v46.172c3.328.284 6.66.532 9.995.729h11.338v-55.718z" fill="#e0ebfc" data-original="#E0EBFC" class="" style="fill:#EBE7F2" data-old_color="#e0ebfc"/></g></g></g></g><g><g><g><g><path d="m111.664 218.795h-21.333c-1.104 0-2-.896-2-2v-51.283c0-.558.233-1.091.643-1.469.41-.379.964-.57 1.516-.525l21.333 1.697c1.04.083 1.842.951 1.842 1.994v49.586c-.001 1.104-.896 2-2.001 2zm-19.333-4h17.333v-45.738l-17.333-1.38z" fill="#3762cc" data-original="#3762CC" class="" data-old_color="#3762cc" style="fill:#000000"/></g></g></g></g><g><g><g><g><path d="m89.624 216.795 13.469-50.268-21.625-1.72-13.93 51.988z" fill="#e0ebfc" data-original="#E0EBFC" class="" style="fill:#EBE7F2" data-old_color="#e0ebfc"/></g></g></g></g><g><g><g><g><path d="m89.624 218.795h-22.086c-.622 0-1.208-.289-1.587-.782-.378-.493-.506-1.135-.345-1.735l13.93-51.987c.249-.932 1.127-1.544 2.09-1.477l21.625 1.72c.593.048 1.133.355 1.476.841s.452 1.098.298 1.671l-13.469 50.268c-.235.873-1.027 1.481-1.932 1.481zm-19.479-4h17.945l12.449-46.464-17.57-1.397z" fill="#3762cc" data-original="#3762CC" class="" data-old_color="#3762cc" style="fill:#000000"/></g></g></g></g><g><g><g><g><path d="m141.72 218.795h-22.086c-.622 0-1.208-.289-1.587-.782-.378-.493-.506-1.135-.345-1.735l12.843-47.931c.249-.932 1.129-1.549 2.09-1.477l21.625 1.72c.593.048 1.133.355 1.476.841s.452 1.098.298 1.671l-12.382 46.211c-.235.874-1.027 1.482-1.932 1.482zm-19.48-4h17.945l11.362-42.407-17.57-1.397z" fill="#3762cc" data-original="#3762CC" class="" data-old_color="#3762cc" style="fill:#000000"/></g></g></g></g><g><g><g><g><path d="m132.998 168.905-21.333-1.697v49.587h21.333z" fill="#e0ebfc" data-original="#E0EBFC" class="" style="fill:#EBE7F2" data-old_color="#e0ebfc"/></g></g></g></g><g><g><g><g><path d="m132.998 218.795h-21.334c-1.104 0-2-.896-2-2v-49.586c0-.558.233-1.091.643-1.469.41-.379.964-.565 1.516-.525l21.334 1.696c1.04.083 1.842.951 1.842 1.994v47.89c-.001 1.104-.896 2-2.001 2zm-19.334-4h17.334v-44.042l-17.334-1.379z" fill="#3762cc" data-original="#3762CC" class="" data-old_color="#3762cc" style="fill:#000000"/></g></g></g></g><g><g><g><g><path d="m206.498 225.859h-11.338c-.039 0-.079-.001-.118-.004-3.197-.188-6.483-.429-10.048-.732-1.035-.089-1.83-.954-1.83-1.993v-46.172c0-.478.171-.938.48-1.301l7.549-8.816c.38-.443.936-.699 1.52-.699h13.785c1.104 0 2 .896 2 2v55.718c0 1.104-.895 1.999-2 1.999zm-11.279-4h9.279v-51.718h-10.864l-6.47 7.556v43.593c2.815.229 5.465.416 8.055.569z" fill="#3762cc" data-original="#3762CC" class="" data-old_color="#3762cc" style="fill:#000000"/></g></g></g></g><g><g><g><g><path d="m163.392 218.939c2.791 1.591 5.944 2.633 9.337 2.934 4.335.511 8.678.94 13.028 1.305l20.741-55.037h-11.338-2.447l-29.321 34.25z" fill="#e0ebfc" data-original="#E0EBFC" class="" style="fill:#EBE7F2" data-old_color="#e0ebfc"/></g></g></g></g><g><g><g><g><path d="m185.757 225.179c-.056 0-.112-.002-.168-.007-4.519-.38-8.924-.821-13.095-1.313-3.52-.311-6.935-1.383-10.093-3.183-.624-.355-1.01-1.019-1.01-1.737v-16.548c0-.477.171-.938.48-1.301l29.321-34.25c.38-.443.936-.699 1.52-.699h13.785c.656 0 1.271.322 1.645.862s.459 1.229.227 1.843l-20.742 55.037c-.295.785-1.044 1.296-1.87 1.296zm-20.365-7.437c2.367 1.188 4.889 1.906 7.513 2.139 3.714.437 7.567.83 11.514 1.176l19.189-50.915h-9.974l-28.242 32.989z" fill="#3762cc" data-original="#3762CC" class="" data-old_color="#3762cc" style="fill:#000000"/></g></g></g></g></g><g><g><g><g><path d="m142.059 152.125c-1.798 0-3.403-1.005-4.189-2.622l-8.373-17.229c-23.177-5.756-39.278-26.3-39.278-50.292 0-28.585 23.256-51.841 51.841-51.841s51.841 23.256 51.841 51.841c0 23.992-16.102 44.536-39.278 50.292l-8.373 17.229c-.788 1.617-2.394 2.622-4.191 2.622zm0-117.984c-26.38 0-47.841 21.461-47.841 47.841 0 22.438 15.26 41.607 37.11 46.617.59.135 1.087.53 1.352 1.075l8.787 18.081c.156.322.438.37.592.37s.436-.048.592-.37l8.787-18.081c.265-.545.762-.94 1.352-1.075 21.851-5.01 37.11-24.179 37.11-46.617-.001-26.38-21.462-47.841-47.841-47.841z" fill="#3762cc" data-original="#3762CC" class="" data-old_color="#3762cc" style="fill:#000000"/></g></g></g></g></g></g> </svg>
