<?xml version="1.0"?>
<svg xmlns="http://www.w3.org/2000/svg" id="Capa_1" enable-background="new 0 0 511.968 511.968" height="512px" viewBox="0 0 511.968 511.968" width="512px"><g><path d="m195.267 213.962v-75.448c-37.224 1.828-72.675 10.269-103.33 24.696-27.962 13.16-50.352 30.5-65.747 50.752z" data-original="#000000" class="active-path" data-old_color="#000000" fill="#959599"/><path d="m112.941 313.772c-16.464 0-29.858 13.394-29.858 29.857s13.394 29.856 29.858 29.856c16.463 0 29.857-13.394 29.857-29.856 0-16.463-13.393-29.857-29.857-29.857z" data-original="#000000" class="active-path" data-old_color="#000000" fill="#959599"/><path d="m225.267 213.962h169.91c-15.395-20.251-37.785-37.592-65.747-50.752-30.883-14.535-66.635-22.985-104.162-24.728v75.48z" data-original="#000000" class="active-path" data-old_color="#000000" fill="#959599"/><path d="m486.353 268.62c-13.408-13.408-30.403-21.925-48.82-24.657h-437.533v114.667h54.988c-1.242-4.795-1.904-9.822-1.904-15 0-33.005 26.852-59.857 59.858-59.857 33.005 0 59.857 26.852 59.857 59.857 0 5.178-.662 10.205-1.904 15h170.795c-1.242-4.795-1.904-9.822-1.904-15 0-33.005 26.852-59.857 59.857-59.857s59.857 26.852 59.857 59.857c0 5.178-.662 10.205-1.904 15h54.373v-28.17c-.001-23.36-9.098-45.322-25.616-61.84z" data-original="#000000" class="active-path" data-old_color="#000000" fill="#959599"/><path d="m399.643 313.772c-16.463 0-29.857 13.394-29.857 29.857s13.394 29.856 29.857 29.856 29.857-13.394 29.857-29.856c0-16.463-13.394-29.857-29.857-29.857z" data-original="#000000" class="active-path" data-old_color="#000000" fill="#959599"/></g> </svg>
