<?xml version="1.0"?>
<svg xmlns="http://www.w3.org/2000/svg" id="Layer_1" enable-background="new 0 0 256 256" height="512px" viewBox="0 0 256 256" width="512px" class=""><g><g><path d="m27.221 238.142c-1.381 0-2.5-1.119-2.5-2.5v-215.284c0-1.381 1.119-2.5 2.5-2.5s2.5 1.119 2.5 2.5v215.283c0 1.381-1.119 2.501-2.5 2.501z" fill="#ebe7f2" data-original="#EBE7F2" class=""/><path d="m228.779 238.142c-1.381 0-2.5-1.119-2.5-2.5v-215.284c0-1.381 1.119-2.5 2.5-2.5s2.5 1.119 2.5 2.5v215.283c0 1.381-1.119 2.501-2.5 2.501z" fill="#ebe7f2" data-original="#EBE7F2" class=""/><g fill="#65c1d6"><path d="m74.573 196.271c-.541 0-1.076-.176-1.52-.515-.69-.528-1.057-1.378-.967-2.242l3.209-31.032-34.237-6.909c-.899-.181-1.627-.84-1.896-1.717-.27-.877-.037-1.83.605-2.484l22.946-23.372-22.944-23.371c-.643-.654-.875-1.607-.605-2.484.269-.877.996-1.536 1.896-1.717l34.237-6.909-3.209-31.032c-.09-.864.276-1.714.967-2.242.692-.528 1.606-.661 2.418-.348l9.649 3.715c1.288.496 1.931 1.942 1.435 3.231-.495 1.287-1.938 1.933-3.231 1.435l-5.845-2.25 3.023 29.236c.133 1.28-.729 2.453-1.992 2.707l-31.944 6.446 21.435 21.832c.954.972.954 2.53 0 3.502l-21.435 21.832 31.944 6.446c1.263.254 2.125 1.427 1.992 2.707l-3.023 29.236 5.845-2.25c1.293-.496 2.736.146 3.231 1.435.496 1.289-.146 2.735-1.435 3.231l-9.649 3.715c-.292.113-.597.168-.9.168z" data-original="#65C1D6" class="active-path" style="fill:#00BF91" data-old_color="#65C1D6"/><path d="m185.394 196.271c-.283 0-.568-.048-.844-.146l-10.366-3.715c-1.3-.466-1.976-1.897-1.51-3.197.467-1.3 1.896-1.974 3.197-1.51l6.596 2.363-3.257-29.31c-.145-1.301.737-2.492 2.022-2.733l34.361-6.454-22.943-21.754c-.498-.473-.78-1.128-.78-1.814s.282-1.342.78-1.814l22.943-21.754-34.361-6.454c-1.285-.241-2.167-1.433-2.022-2.733l3.257-29.31-6.596 2.363c-1.301.463-2.73-.211-3.197-1.51-.466-1.3.21-2.731 1.51-3.197l10.366-3.715c.814-.291 1.717-.143 2.394.392s1.03 1.381.935 2.238l-3.442 30.985 36.892 6.93c.923.174 1.671.85 1.937 1.75.265.901.003 1.875-.679 2.521l-24.583 23.307 24.581 23.308c.682.646.943 1.62.679 2.521-.266.9-1.014 1.576-1.937 1.75l-36.892 6.93 3.442 30.985c.096.857-.258 1.703-.935 2.238-.447.354-.994.539-1.548.539z" data-original="#65C1D6" class="active-path" style="fill:#00BF91" data-old_color="#65C1D6"/><path d="m128 162.527c-.882 0-1.699-.465-2.149-1.223l-5.606-9.437-10.081 4.339c-.809.35-1.743.246-2.458-.273-.713-.519-1.101-1.374-1.02-2.253l1.011-10.929-10.706-2.416c-.86-.194-1.556-.827-1.828-1.666s-.083-1.759.499-2.422l7.242-8.248-7.242-8.248c-.582-.663-.771-1.583-.499-2.422s.968-1.472 1.828-1.666l10.706-2.416-1.011-10.929c-.081-.879.307-1.734 1.02-2.253.714-.52 1.648-.623 2.458-.273l10.081 4.339 5.606-9.437c.45-.758 1.268-1.223 2.149-1.223s1.699.465 2.149 1.223l5.606 9.437 10.081-4.339c.811-.349 1.743-.245 2.458.273.713.519 1.101 1.374 1.02 2.253l-1.011 10.929 10.706 2.416c.86.194 1.556.827 1.828 1.666s.083 1.759-.499 2.422l-7.241 8.249 7.242 8.248c.582.663.771 1.583.499 2.422s-.968 1.472-1.828 1.666l-10.706 2.416 1.011 10.929c.081.879-.307 1.734-1.02 2.253-.715.519-1.649.621-2.458.273l-10.081-4.339-5.606 9.437c-.451.758-1.268 1.222-2.15 1.222zm-6.729-16.323c.858 0 1.688.443 2.15 1.223l4.578 7.706 4.578-7.706c.641-1.08 1.985-1.518 3.138-1.019l8.232 3.543-.825-8.925c-.116-1.251.714-2.393 1.939-2.669l8.742-1.973-5.914-6.735c-.828-.943-.828-2.355 0-3.299l5.914-6.735-8.742-1.973c-1.226-.276-2.056-1.418-1.939-2.669l.825-8.925-8.232 3.543c-1.15.499-2.496.062-3.138-1.019l-4.577-7.705-4.578 7.706c-.642 1.079-1.988 1.516-3.138 1.019l-8.232-3.543.825 8.925c.116 1.251-.714 2.393-1.939 2.669l-8.742 1.973 5.914 6.735c.828.943.828 2.355 0 3.299l-5.914 6.735 8.742 1.973c1.226.276 2.056 1.418 1.939 2.669l-.825 8.925 8.232-3.543c.32-.139.656-.205.987-.205z" data-original="#65C1D6" class="active-path" style="fill:#00BF91" data-old_color="#65C1D6"/></g><g fill="#846f75"><path d="m156.642 146.006c-1.381 0-2.5 1.119-2.5 2.5v20.42h-52.283v-20.42c0-1.381-1.119-2.5-2.5-2.5s-2.5 1.119-2.5 2.5v87.136c0 1.381 1.119 2.5 2.5 2.5h57.283c1.381 0 2.5-1.119 2.5-2.5v-87.136c0-1.381-1.12-2.5-2.5-2.5zm-54.784 66.872h52.283v6.46h-52.283zm52.284-38.952v33.952h-52.283v-33.952zm-52.284 59.216v-8.804h52.283v8.804z" data-original="#846F75" class="" style="fill:#000000" data-old_color="#846F75"/><path d="m170.154 146.006h-3.313c-1.381 0-2.5 1.119-2.5 2.5s1.119 2.5 2.5 2.5h.813v17.92h-.813c-1.381 0-2.5 1.119-2.5 2.5s1.119 2.5 2.5 2.5h3.313c1.381 0 2.5-1.119 2.5-2.5v-22.92c0-1.381-1.119-2.5-2.5-2.5z" data-original="#846F75" class="" style="fill:#000000" data-old_color="#846F75"/><path d="m170.154 196.418h-3.313c-1.381 0-2.5 1.119-2.5 2.5s1.119 2.5 2.5 2.5h.813v17.92h-.813c-1.381 0-2.5 1.119-2.5 2.5s1.119 2.5 2.5 2.5h3.313c1.381 0 2.5-1.119 2.5-2.5v-22.92c0-1.381-1.119-2.5-2.5-2.5z" data-original="#846F75" class="" style="fill:#000000" data-old_color="#846F75"/><path d="m89.159 151.006c1.381 0 2.5-1.119 2.5-2.5s-1.119-2.5-2.5-2.5h-3.313c-1.381 0-2.5 1.119-2.5 2.5v22.92c0 1.381 1.119 2.5 2.5 2.5h3.313c1.381 0 2.5-1.119 2.5-2.5s-1.119-2.5-2.5-2.5h-.813v-17.92z" data-original="#846F75" class="" style="fill:#000000" data-old_color="#846F75"/><path d="m89.159 201.418c1.381 0 2.5-1.119 2.5-2.5s-1.119-2.5-2.5-2.5h-3.313c-1.381 0-2.5 1.119-2.5 2.5v22.92c0 1.381 1.119 2.5 2.5 2.5h3.313c1.381 0 2.5-1.119 2.5-2.5s-1.119-2.5-2.5-2.5h-.813v-17.92z" data-original="#846F75" class="" style="fill:#000000" data-old_color="#846F75"/><path d="m156.642 17.858h-57.284c-1.381 0-2.5 1.119-2.5 2.5v86.382c0 1.381 1.119 2.5 2.5 2.5s2.5-1.119 2.5-2.5v-16.537h52.283v16.537c0 1.381 1.119 2.5 2.5 2.5s2.5-1.119 2.5-2.5v-86.382c.001-1.38-1.119-2.5-2.499-2.5zm-54.784 22.173h52.283v13.797h-52.283zm45.499-17.173v2.446h-4.173c-1.36 0-2.471-1.093-2.499-2.446zm-32.043 0c-.028 1.354-1.139 2.446-2.499 2.446h-4.173v-2.446zm-11.671 0v4.946c0 1.381 1.119 2.5 2.5 2.5h6.673c4.118 0 7.468-3.335 7.497-7.446h15.375c.029 4.111 3.38 7.446 7.497 7.446h6.673c1.381 0 2.5-1.119 2.5-2.5v-4.946h1.784v12.173h-52.283v-12.173zm-1.785 62.345v-26.375h52.283v26.375z" data-original="#846F75" class="" style="fill:#000000" data-old_color="#846F75"/><path d="m169.654 56.328v-22.92c0-1.381-1.119-2.5-2.5-2.5h-3.313c-1.381 0-2.5 1.119-2.5 2.5s1.119 2.5 2.5 2.5h.813v17.92h-.813c-1.381 0-2.5 1.119-2.5 2.5s1.119 2.5 2.5 2.5h3.313c1.381 0 2.5-1.119 2.5-2.5z" data-original="#846F75" class="" style="fill:#000000" data-old_color="#846F75"/><path d="m170.154 81.32h-3.313c-1.381 0-2.5 1.119-2.5 2.5s1.119 2.5 2.5 2.5h.813v17.92h-.813c-1.381 0-2.5 1.119-2.5 2.5s1.119 2.5 2.5 2.5h3.313c1.381 0 2.5-1.119 2.5-2.5v-22.92c0-1.381-1.119-2.5-2.5-2.5z" data-original="#846F75" class="" style="fill:#000000" data-old_color="#846F75"/><path d="m92.159 35.908c1.381 0 2.5-1.119 2.5-2.5s-1.119-2.5-2.5-2.5h-3.313c-1.381 0-2.5 1.119-2.5 2.5v22.92c0 1.381 1.119 2.5 2.5 2.5h3.313c1.381 0 2.5-1.119 2.5-2.5s-1.119-2.5-2.5-2.5h-.813v-17.92z" data-original="#846F75" class="" style="fill:#000000" data-old_color="#846F75"/><path d="m89.159 86.32c1.381 0 2.5-1.119 2.5-2.5s-1.119-2.5-2.5-2.5h-3.313c-1.381 0-2.5 1.119-2.5 2.5v22.92c0 1.381 1.119 2.5 2.5 2.5h3.313c1.381 0 2.5-1.119 2.5-2.5s-1.119-2.5-2.5-2.5h-.813v-17.92z" data-original="#846F75" class="" style="fill:#000000" data-old_color="#846F75"/><path d="m17.541 17.858c-1.381 0-2.5 1.119-2.5 2.5v215.283c0 1.381 1.119 2.5 2.5 2.5s2.5-1.119 2.5-2.5v-215.283c0-1.38-1.119-2.5-2.5-2.5z" data-original="#846F75" class="" style="fill:#000000" data-old_color="#846F75"/><path d="m238.459 17.858c-1.381 0-2.5 1.119-2.5 2.5v215.283c0 1.381 1.119 2.5 2.5 2.5s2.5-1.119 2.5-2.5v-215.283c0-1.38-1.119-2.5-2.5-2.5z" data-original="#846F75" class="" style="fill:#000000" data-old_color="#846F75"/><path d="m128 133.318c1.381 0 2.5-1.119 2.5-2.5v-14.46c0-1.381-1.119-2.5-2.5-2.5s-2.5 1.119-2.5 2.5v14.46c0 1.381 1.119 2.5 2.5 2.5z" data-original="#846F75" class="" style="fill:#000000" data-old_color="#846F75"/><path d="m125.5 139.642c0 1.381 1.119 2.5 2.5 2.5s2.5-1.119 2.5-2.5v-1.13c0-1.381-1.119-2.5-2.5-2.5s-2.5 1.119-2.5 2.5z" data-original="#846F75" class="" style="fill:#000000" data-old_color="#846F75"/></g></g></g> </svg>
