<?xml version="1.0"?>
<svg xmlns="http://www.w3.org/2000/svg" id="Capa_1" enable-background="new 0 0 512 512" height="512px" viewBox="0 0 512 512" width="512px"><g><g><g><g><path d="m116 212.459c-12.787-25.573-38.491-41.459-67.082-41.459h-33.918c-8.284 0-15 6.716-15 15v90h147.771z" data-original="#000000" class="active-path" data-old_color="#000000" fill="#00BF91"/></g><g><path d="m186 306h-186v110c0 8.284 6.716 15 15 15h26.159c2.599-44.549 39.651-80 84.841-80s82.242 35.451 84.841 80h15.159c8.284 0 15-6.716 15-15v-55c0-30.376-24.624-55-55-55z" data-original="#000000" class="active-path" data-old_color="#000000" fill="#00BF91"/></g><path d="m126 491c-30.327 0-55-24.673-55-55s24.673-55 55-55 55 24.673 55 55-24.673 55-55 55z" data-original="#000000" class="active-path" data-old_color="#000000" fill="#00BF91"/></g><g><g><path d="m396 212.459c12.787-25.573 38.491-41.459 67.082-41.459h33.918c8.284 0 15 6.716 15 15v90h-147.771z" data-original="#000000" class="active-path" data-old_color="#000000" fill="#00BF91"/></g><g><path d="m326 306h186v110c0 8.284-6.716 15-15 15h-26.159c-2.599-44.549-39.651-80-84.841-80s-82.242 35.451-84.841 80h-15.159c-8.284 0-15-6.716-15-15v-55c0-30.376 24.624-55 55-55z" data-original="#000000" class="active-path" data-old_color="#000000" fill="#00BF91"/></g><path d="m331 436c0-30.327 24.673-55 55-55s55 24.673 55 55-24.673 55-55 55-55-24.673-55-55z" data-original="#000000" class="active-path" data-old_color="#000000" fill="#00BF91"/></g><path d="m213.573 248.99c-2.938 0-5.88-.861-8.429-2.593-5.3-3.601-7.728-10.172-6.042-16.354l18.464-67.703-40.995-29.282c-3.892-2.78-6.225-7.249-6.28-12.031-.056-4.783 2.173-9.305 5.999-12.175l113.136-84.852c5.127-3.845 12.128-4.009 17.43-.407 5.3 3.602 7.728 10.172 6.042 16.354l-18.464 67.703 40.995 29.281c3.892 2.78 6.225 7.249 6.281 12.031.056 4.783-2.173 9.305-5.999 12.175l-113.137 84.853c-2.662 1.996-5.829 3-9.001 3z" data-original="#000000" class="active-path" data-old_color="#000000" fill="#00BF91"/></g></g> </svg>
