<svg width="23" height="23" viewBox="0 0 23 23" fill="none" xmlns="http://www.w3.org/2000/svg">
<path d="M21.4927 16.4188C21.3806 16.3332 21.2648 16.2446 21.1564 16.1573C20.5811 15.6944 19.9691 15.2676 19.3772 14.855C19.2544 14.7694 19.1316 14.6837 19.0092 14.5979C18.251 14.0653 17.5694 13.8066 16.9254 13.8066C16.0581 13.8066 15.3019 14.2858 14.6777 15.2308C14.4012 15.6498 14.0657 15.8535 13.6523 15.8535C13.4078 15.8535 13.13 15.7837 12.8267 15.6461C10.3796 14.5363 8.6321 12.8349 7.63282 10.5889C7.14977 9.5034 7.30636 8.79384 8.1565 8.21634C8.63926 7.88869 9.53784 7.27871 9.47419 6.11061C9.40212 4.78412 6.47531 0.792892 5.24214 0.339575C4.72003 0.147575 4.17146 0.145787 3.60872 0.335103C2.19108 0.811675 1.17377 1.64862 0.666488 2.7553C0.176277 3.82464 0.198413 5.08025 0.730513 6.38638C2.26875 10.1627 4.43143 13.4552 7.15871 16.1722C9.82823 18.8319 13.1093 21.0105 16.9107 22.6474C17.2533 22.7948 17.6127 22.8752 17.8752 22.9339C17.9646 22.954 18.0418 22.9711 18.0981 22.9866C18.129 22.995 18.1609 22.9995 18.1929 22.9998L18.2229 23C18.223 23 18.2229 23 18.2231 23C20.011 23 22.1578 21.3662 22.8171 19.5036C23.3948 17.8726 22.3401 17.0665 21.4927 16.4188Z" fill="#00AD84"/>
</svg>
