<?xml version="1.0"?>
<svg xmlns="http://www.w3.org/2000/svg" id="Capa_1" enable-background="new 0 0 512 512" height="512px" viewBox="0 0 512 512" width="512px"><g><g><path d="m115 15c0-8.284-6.716-15-15-15h-30c-8.284 0-15 6.716-15 15v70.372l60-48z" data-original="#000000" class="active-path" data-old_color="#000000" fill="#959599"/><path d="m180.001 250h70v140h-70z" data-original="#000000" class="active-path" data-old_color="#000000" fill="#959599"/><g><g><circle cx="215.001" cy="125" r="15" data-original="#000000" class="active-path" data-old_color="#000000" fill="#959599"/><path d="m424.37 163.287-199.999-160c-5.479-4.383-13.263-4.383-18.741 0l-200 160c-6.469 5.175-7.518 14.614-2.342 21.083 5.176 6.468 14.614 7.519 21.083 2.342l25.629-20.502v193.79h-15c-8.284 0-15 6.716-15 15s6.716 15 15 15h115v-155c0-8.284 6.716-15 15-15h100c8.285 0 15 6.716 15 15v155h12.668c6.877-74.84 65.873-138.912 87.332-159.933v-63.858l25.63 20.504c2.766 2.213 6.074 3.288 9.36 3.288 4.4 0 8.761-1.927 11.723-5.63 5.175-6.47 4.127-15.909-2.343-21.084zm-209.369 6.713c-24.813 0-45-20.187-45-45s20.187-45 45-45 45 20.187 45 45-20.187 45-45 45z" data-original="#000000" class="active-path" data-old_color="#000000" fill="#959599"/></g><g><path d="m417 399.581c-11.236 14.172-25 36.271-25 56.419 0 17.495 8.178 26 25 26s25-8.505 25-26c0-20.149-13.764-42.248-25-56.419z" data-original="#000000" class="active-path" data-old_color="#000000" fill="#959599"/><path d="m460.26 322.882c-17.959-16.477-28.26-40.49-28.26-65.882 0-5.926-3.489-11.297-8.904-13.706-5.413-2.409-11.739-1.403-16.142 2.566-3.468 3.129-84.954 77.54-84.954 158.31 0 63.489 39.065 107.83 95 107.83-33.411 0-55-21.982-55-56 0-45.849 42.717-87.975 44.535-89.746 5.824-5.672 15.105-5.672 20.93 0 1.818 1.771 44.535 43.897 44.535 89.746 0 34.019-21.589 56-55 56 28.673 0 52.962-9.888 70.241-28.596 15.966-17.287 24.759-41.405 24.759-67.913 0-37.307-28.137-70.953-51.74-92.609z" data-original="#000000" class="active-path" data-old_color="#000000" fill="#959599"/></g></g></g></g> </svg>
