<?xml version="1.0"?>
<svg xmlns="http://www.w3.org/2000/svg" id="Capa_1" enable-background="new 0 0 512 512" height="512px" viewBox="0 0 512 512" width="512px"><g><g><path d="m323.909 235.536c-19.208 13.59-42.642 21.586-67.909 21.586-14.11 0-27.647-2.496-40.198-7.063l30.792 115.759h78.841c29.973 0 54.356 24.384 54.356 54.356s-24.384 54.357-54.356 54.357h-196.96v37.469h288.785v-170.032c0-27.173-10.174-53.099-28.647-73.001-17.143-18.469-39.951-30.213-64.704-33.431z" data-original="#000000" class="active-path" data-old_color="#000000" fill="#959599"/><path d="m256 227.122c48.439 0 87.849-39.409 87.849-87.849v-36.425h-175.698v36.425c0 48.44 39.41 87.849 87.849 87.849z" data-original="#000000" class="active-path" data-old_color="#000000" fill="#959599"/><path d="m171.685 63.171 122.349-54.503c-11.514-5.554-24.417-8.668-38.034-8.668-39.875 0-73.625 26.707-84.315 63.171z" data-original="#000000" class="active-path" data-old_color="#000000" fill="#959599"/><path d="m342.562 72.849c-2.86-16.553-10.367-31.533-21.126-43.545l-97.75 43.545z" data-original="#000000" class="active-path" data-old_color="#000000" fill="#959599"/><path d="m349.791 420.174c0-13.431-10.926-24.356-24.356-24.356h-70.861l12.958 48.714h57.903c13.43-.001 24.356-10.928 24.356-24.358z" data-original="#000000" class="active-path" data-old_color="#000000" fill="#959599"/><path d="m236.488 444.531-55.293-207.87c-22.077 4.35-42.269 15.565-57.808 32.305-18.474 19.901-28.647 45.828-28.647 73.002v102.563z" data-original="#000000" class="active-path" data-old_color="#000000" fill="#959599"/></g></g> </svg>
