<?xml version="1.0"?>
<svg xmlns="http://www.w3.org/2000/svg" id="Layer_1" enable-background="new 0 0 512 512" height="512px" viewBox="0 0 512 512" width="512px"><g><g><g><path d="m256 360c-66.964 0-130.157-15.789-177.938-44.457-50.339-30.203-78.062-71.237-78.062-115.543s27.723-85.34 78.063-115.543c47.78-28.668 110.973-44.457 177.937-44.457s130.157 15.789 177.938 44.457c50.339 30.203 78.062 71.237 78.062 115.543s-27.723 85.34-78.063 115.543c-47.78 28.668-110.973 44.457-177.937 44.457z" data-original="#000000" class="active-path" data-old_color="#000000" fill="#959599"/></g><path d="m80 353.876c0-.476-.269-.911-.693-1.127-6.081-3.089-11.996-6.339-17.708-9.767-24.219-14.531-44.123-31.426-59.348-50.352-.749-.93-2.251-.393-2.251.802v18.568c0 44.306 27.723 85.34 78.063 115.543.853.511 1.938-.103 1.938-1.097v-72.57z" data-original="#000000" class="active-path" data-old_color="#000000" fill="#959599"/><path d="m329.506 465.416c24.761-4.555 48.241-11.416 69.713-20.408.474-.199.781-.664.781-1.178v-74.919c0-.883-.875-1.492-1.704-1.186-21.708 8.021-44.971 14.151-69.24 18.241-.609.103-1.057.628-1.057 1.246v76.949c.001.795.726 1.399 1.507 1.255z" data-original="#000000" class="active-path" data-old_color="#000000" fill="#959599"/><path d="m112.781 445.008c21.472 8.991 44.951 15.852 69.713 20.408.782.144 1.506-.46 1.506-1.255v-76.949c0-.618-.447-1.143-1.057-1.246-24.268-4.09-47.532-10.22-69.24-18.241-.829-.306-1.704.303-1.704 1.186v74.919c.001.515.308.98.782 1.178z" data-original="#000000" class="active-path" data-old_color="#000000" fill="#959599"/><path d="m296 391.599c0-.743-.633-1.323-1.373-1.259-12.71 1.099-25.61 1.66-38.627 1.66s-25.917-.561-38.627-1.66c-.74-.064-1.373.516-1.373 1.259v77.322c0 .657.499 1.209 1.154 1.27 12.746 1.192 25.722 1.809 38.846 1.809s26.1-.617 38.846-1.809c.654-.061 1.154-.613 1.154-1.27z" data-original="#000000" class="active-path" data-old_color="#000000" fill="#959599"/><path d="m450.402 342.983c-5.712 3.427-11.627 6.678-17.708 9.767-.425.216-.693.65-.693 1.127v72.569c0 .994 1.085 1.609 1.938 1.097 50.338-30.203 78.061-71.237 78.061-115.543v-18.568c0-1.195-1.502-1.732-2.251-.801-15.225 18.926-35.129 35.821-59.347 50.352z" data-original="#000000" class="active-path" data-old_color="#000000" fill="#959599"/></g></g> </svg>
