<?xml version="1.0"?>
<svg xmlns="http://www.w3.org/2000/svg" id="Layer_1" enable-background="new 0 0 256 256" height="512px" viewBox="0 0 256 256" width="512px" class=""><g><g><path d="m231.632 196.723h-207.264c-1.381 0-2.5-1.119-2.5-2.5s1.119-2.5 2.5-2.5h207.264c1.381 0 2.5 1.119 2.5 2.5s-1.119 2.5-2.5 2.5z" fill="#ebe7f2" data-original="#EBE7F2"/><path d="m212.935 119.755c-1.381 0-2.5-1.119-2.5-2.5v-78.742h-164.87v38.46c0 1.381-1.119 2.5-2.5 2.5s-2.5-1.119-2.5-2.5v-40.96c0-1.381 1.119-2.5 2.5-2.5h169.869c1.381 0 2.5 1.119 2.5 2.5v81.242c.001 1.381-1.119 2.5-2.499 2.5z" fill="#f9b087" data-original="#F9B087" class="" style="fill:#00BF91" data-old_color="#f9b087"/><path d="m84.69 124.375c-1.381 0-2.5-1.119-2.5-2.5v-8.527c0-1.381 1.119-2.5 2.5-2.5s2.5 1.119 2.5 2.5v8.527c0 1.381-1.119 2.5-2.5 2.5z" fill="#ebe7f2" data-original="#EBE7F2"/><path d="m74.757 124.375c-1.381 0-2.5-1.119-2.5-2.5v-8.527c0-1.381 1.119-2.5 2.5-2.5s2.5 1.119 2.5 2.5v8.527c0 1.381-1.119 2.5-2.5 2.5z" fill="#ebe7f2" data-original="#EBE7F2"/><g fill="#846f75"><path d="m231.632 204.384h-207.264c-1.381 0-2.5 1.119-2.5 2.5s1.119 2.5 2.5 2.5h207.264c1.381 0 2.5-1.119 2.5-2.5s-1.119-2.5-2.5-2.5z" data-original="#846F75" class="active-path" style="fill:#000000" data-old_color="#846F75"/><path d="m240.692 139.062c-2.259-1.497-4.963-2.953-8.093-4.369-.029-.015-.06-.027-.089-.04-12.333-5.564-31.348-10.497-56.754-14.708-1.01-.167-1.975-.328-2.448-.415l-34.348-20.591c-1.687-1.011-3.618-1.545-5.584-1.545h-28.555c-13.795 0-27.344 2.44-40.27 7.252l-9.717 3.617v-8.749h5.472c1.639 0 3.116-.908 3.857-2.369.741-1.462.6-3.191-.369-4.513l-4.684-6.391c-.812-1.107-2.115-1.768-3.488-1.768h-39.134c-1.639 0-3.116.908-3.857 2.369-.741 1.462-.6 3.191.369 4.514 3.744 5.108 9.76 8.158 16.094 8.158h4.797v16.545l-5.462 2.033c-3.582.917-6.068 4.108-6.068 7.821v24.371c0 10.183 8.284 18.467 18.467 18.467h14.154c1.381 0 2.5-1.119 2.5-2.5s-1.119-2.5-2.5-2.5h-14.155c-7.426 0-13.467-6.041-13.467-13.467v-1.249h11.037c1.381 0 2.5-1.119 2.5-2.5v-16.203c0-1.381-1.119-2.5-2.5-2.5h-11.037v-1.919c0-1.436.977-2.666 2.374-2.993.103-.024.204-.055.303-.092l36.259-13.497c8.783-3.269 17.869-5.371 27.123-6.328v13.87c0 4.136 3.364 7.5 7.5 7.5h71.128c.499.104 1.331.243 2.892.501 12.658 2.098 23.666 4.361 32.988 6.776l-.715 7.796c-.105 1.143.582 2.21 1.665 2.589l15.377 5.37c.271.094.549.14.824.14.753 0 1.483-.341 1.967-.957l5.161-6.576c2.173 1.055 4.088 2.132 5.744 3.229.326.212.619 1.141.407 1.52l-9.894 17.652c-.358.64-.729 1.175-1.028 1.571h-13.089c-1.381 0-2.5 1.119-2.5 2.5s1.119 2.5 2.5 2.5h14.257c.677 0 1.325-.274 1.796-.761.131-.135 1.313-1.38 2.426-3.365l9.894-17.653c1.493-2.664.538-6.476-2.027-8.143zm-204.795-6.23v11.203h-8.537v-11.203zm-17.998-43.358h37.382l3.694 5.041h-29.881c-4.285-.001-8.376-1.863-11.195-5.041zm20.992 10.04h10.944v10.61l-10.944 4.074zm59.528 17.361v-14.274c2.128-.123 4.26-.207 6.402-.207h28.555c1.062 0 2.104.289 3.014.833l26.936 16.147h-62.407c-1.379.001-2.5-1.121-2.5-2.499zm125.796 25.222-11.846-4.136.456-4.978c5.589 1.586 10.481 3.233 14.665 4.941z" data-original="#846F75" class="active-path" style="fill:#000000" data-old_color="#846F75"/><path d="m167.418 168.182c1.381 0 2.5-1.119 2.5-2.5s-1.119-2.5-2.5-2.5h-65.627c-1.381 0-2.5 1.119-2.5 2.5s1.119 2.5 2.5 2.5z" data-original="#846F75" class="active-path" style="fill:#000000" data-old_color="#846F75"/></g><g fill="#f9b087"><path d="m191.571 191.526c-13.937 0-25.275-11.338-25.275-25.275s11.339-25.275 25.275-25.275 25.274 11.338 25.274 25.275c.001 13.937-11.337 25.275-25.274 25.275zm0-45.55c-11.18 0-20.275 9.095-20.275 20.275s9.096 20.275 20.275 20.275 20.274-9.096 20.274-20.275-9.094-20.275-20.274-20.275zm0 32.709c-6.856 0-12.435-5.578-12.435-12.434s5.578-12.434 12.435-12.434c6.855 0 12.434 5.578 12.434 12.434s-5.578 12.434-12.434 12.434zm0-19.868c-4.1 0-7.435 3.334-7.435 7.434s3.335 7.434 7.435 7.434c4.099 0 7.434-3.335 7.434-7.434s-3.335-7.434-7.434-7.434z" data-original="#F9B087" class="" style="fill:#00BF91" data-old_color="#F9B087"/><path d="m77.757 191.526c-13.937 0-25.275-11.338-25.275-25.275s11.339-25.275 25.275-25.275 25.274 11.338 25.274 25.275-11.338 25.275-25.274 25.275zm0-45.55c-11.18 0-20.275 9.095-20.275 20.275s9.096 20.275 20.275 20.275 20.274-9.096 20.274-20.275-9.094-20.275-20.274-20.275zm0 32.709c-6.856 0-12.435-5.578-12.435-12.434s5.578-12.434 12.435-12.434c6.855 0 12.434 5.578 12.434 12.434s-5.579 12.434-12.434 12.434zm0-19.868c-4.1 0-7.435 3.334-7.435 7.434s3.335 7.434 7.435 7.434c4.099 0 7.434-3.335 7.434-7.434s-3.336-7.434-7.434-7.434z" data-original="#F9B087" class="" style="fill:#00BF91" data-old_color="#F9B087"/></g></g></g> </svg>
