<?xml version="1.0"?>
<svg xmlns="http://www.w3.org/2000/svg" xmlns:xlink="http://www.w3.org/1999/xlink" version="1.1" id="Capa_1" x="0px" y="0px" viewBox="0 0 512 512" style="enable-background:new 0 0 512 512;" xml:space="preserve" width="512px" height="512px"><g><g>
	<g>
		<path d="M437.019,74.981C388.667,26.629,324.38,0,256,0C187.619,0,123.332,26.629,74.98,74.981C26.629,123.333,0,187.62,0,256    c0,68.381,26.629,132.668,74.98,181.021C123.332,485.372,187.619,512,256,512c68.38,0,132.667-26.628,181.019-74.979    C485.371,388.668,512,324.381,512,256C512,187.62,485.371,123.333,437.019,74.981z M387.106,188.71L231.311,344.504    c-2.929,2.929-6.768,4.394-10.606,4.394c-3.839,0-7.678-1.465-10.607-4.394l-85.205-85.203    c-5.858-5.857-5.858-15.356-0.001-21.213c5.858-5.858,15.355-5.858,21.214,0l74.599,74.597l145.188-145.188    c5.858-5.858,15.355-5.858,21.213,0C392.965,173.355,392.965,182.852,387.106,188.71z" data-original="#000000" class="active-path" data-old_color="#000000" fill="#B1B1B5"/>
	</g>
</g></g> </svg>
