<?xml version="1.0"?>
<svg xmlns="http://www.w3.org/2000/svg" id="Layer_1" enable-background="new 0 0 256 256" height="512px" viewBox="0 0 256 256" width="512px" class=""><g><path d="m241.744 181.728-167.125-167.126h-70.619l176.861 176.861h-176.861v49.935h213.028c14.188 0 26.863-8.469 32.294-21.577 5.429-13.108 2.455-28.061-7.578-38.093z" fill="#f4efed" data-original="#F4EFED" class="" style="fill:#FFFFFF" data-old_color="#f4efed"/><path d="m241.744 181.727-167.125-167.125h-10l167.125 167.125c10.033 10.033 13.007 24.985 7.578 38.093-5.43 13.108-18.105 21.577-32.294 21.577h10c14.188 0 26.863-8.469 32.294-21.577 5.429-13.107 2.455-28.06-7.578-38.093z" fill="#d6d1cf" data-original="#D6D1CF" class="" style="fill:#EBE7F2" data-old_color="#d6d1cf"/><path d="m4 191.463h10v49.935h-10z" fill="#fff" data-original="#FFF"/><path d="m212.901 186.754-5.411 7.175 5.949.04c-.643 9.055-7.311 17.793-15.863 20.853l-1.605-5.98-5.575 7.048-5.575 7.048 8.355 3.31 8.355 3.31-1.415-5.274c6.324-2.077 11.895-6.225 15.985-11.52 4.163-5.389 6.786-11.961 7.127-18.729l5.712.039-5.313-7.248-5.314-7.247z" fill="#fcc24c" data-original="#FCC24C" class="" style="fill:#00BF91" data-old_color="#fcc24c"/><path d="m181.166 147.672-37.124-37.124 6.843-6.842-12.173-1.598-12.174-1.598 1.598 12.173 1.598 12.173 6.843-6.842 37.123 37.123z" fill="#7bac51" data-original="#7BAC51" class="" style="fill:#00BF91" data-old_color="#7bac51"/><path d="m151.986 211.487h-52.501v-9.677l-9.738 7.478-9.737 7.478 9.737 7.478 9.738 7.477v-9.676h52.501z" fill="#ff4397" data-original="#FF4397" class="" style="fill:#00BF91" data-old_color="#ff4397"/><g fill="#690589"><path d="m217.028 243.397h-213.028c-1.104 0-2-.896-2-2v-49.935c0-1.104.896-2 2-2h172.032l-173.446-173.445c-.572-.572-.743-1.432-.434-2.18.31-.747 1.039-1.234 1.848-1.234h70.619c.53 0 1.039.211 1.414.586l167.125 167.125c10.606 10.607 13.751 26.415 8.012 40.272-5.741 13.857-19.143 22.811-34.142 22.811zm-211.028-4h211.028c13.376 0 25.326-7.985 30.446-20.343 5.118-12.357 2.313-26.454-7.145-35.913l-166.538-166.538h-64.963l173.446 173.446c.572.572.743 1.432.434 2.18-.31.747-1.039 1.234-1.848 1.234h-174.86z" data-original="#690589" class="active-path" style="fill:#000000" data-old_color="#690589"/><path d="m12 216.729c-1.104 0-2-.896-2-2v-12c0-1.104.896-2 2-2s2 .896 2 2v12c0 1.105-.896 2-2 2z" data-original="#690589" class="active-path" style="fill:#000000" data-old_color="#690589"/><path d="m99.485 233.722c-.433 0-.862-.141-1.218-.414l-19.476-14.956c-.493-.378-.782-.965-.782-1.586s.289-1.208.782-1.586l19.476-14.955c.603-.465 1.418-.544 2.103-.208.683.337 1.115 1.032 1.115 1.794v7.676h50.5c1.104 0 2 .896 2 2v10.559c0 1.104-.896 2-2 2h-50.5v7.677c0 .762-.433 1.457-1.115 1.794-.281.136-.583.205-.885.205zm-16.192-16.956 14.192 10.898v-5.619c0-1.104.896-2 2-2h50.5v-6.559h-50.5c-1.104 0-2-.896-2-2v-5.618z" data-original="#690589" class="active-path" style="fill:#000000" data-old_color="#690589"/><path d="m173.7 157.138c-.512 0-1.023-.195-1.414-.586l-35.71-35.71-5.428 5.428c-.539.539-1.338.723-2.058.479-.721-.245-1.24-.878-1.34-1.633l-3.196-24.346c-.08-.616.13-1.235.569-1.675.438-.439 1.057-.645 1.674-.569l24.348 3.196c.755.1 1.388.619 1.633 1.34.245.722.06 1.52-.479 2.058l-5.429 5.428 35.71 35.71c.781.781.781 2.047 0 2.828l-7.466 7.466c-.39.39-.902.586-1.414.586zm-37.124-41.124c.512 0 1.023.195 1.414.586l35.71 35.71 4.638-4.638-35.71-35.71c-.375-.375-.586-.884-.586-1.414s.211-1.039.586-1.414l3.974-3.973-17.741-2.329 2.329 17.74 3.973-3.973c.39-.39.901-.585 1.413-.585z" data-original="#690589" class="active-path" style="fill:#000000" data-old_color="#690589"/><path d="m201.53 231.558c-.248 0-.498-.046-.736-.141l-16.71-6.62c-.588-.233-1.031-.73-1.195-1.341s-.029-1.264.363-1.76l11.15-14.095c.469-.593 1.23-.868 1.973-.719.74.153 1.331.71 1.527 1.44l1.011 3.765c6.207-3.042 11.01-9.362 12.259-16.135l-3.695-.024c-.756-.005-1.444-.437-1.779-1.114s-.259-1.486.196-2.09l5.41-7.175 5.411-7.175c.381-.505 1.006-.771 1.61-.796.632.004 1.226.308 1.6.817l10.627 14.495c.446.61.512 1.42.168 2.093-.343.669-1.03 1.09-1.781 1.09-.005 0-.009 0-.014 0l-3.854-.026c-.701 6.326-3.287 12.631-7.388 17.938-4.019 5.203-9.348 9.253-15.16 11.553l.939 3.5c.196.73-.036 1.509-.601 2.012-.373.333-.848.508-1.331.508zm-13.472-9.489 10.51 4.163-.384-1.43c-.275-1.025.299-2.087 1.308-2.419 5.747-1.888 11.084-5.738 15.025-10.843 4.02-5.203 6.403-11.456 6.713-17.606.053-1.064.933-1.899 1.997-1.899h.014l1.732.012-6.684-9.116-6.806 9.024 1.969.014c.553.004 1.079.236 1.454.642.376.406.566.948.527 1.5-.694 9.778-7.921 19.28-17.184 22.594-.527.188-1.107.146-1.602-.111-.495-.259-.859-.713-1.004-1.253l-.573-2.137z" data-original="#690589" class="active-path" style="fill:#000000" data-old_color="#690589"/></g></g> </svg>
