<?xml version="1.0"?>
<svg xmlns="http://www.w3.org/2000/svg" xmlns:xlink="http://www.w3.org/1999/xlink" version="1.1" id="Capa_1" x="0px" y="0px" viewBox="0 0 496 496" style="enable-background:new 0 0 496 496;" xml:space="preserve" width="512px" height="512px"><g><path d="M88,368v-56h64v-16H72v72H0v128h160V368H88z M80,436.688L27.312,384h105.376L80,436.688z M59.824,439.136L16,472v-76.688  L59.824,439.136z M71.248,450.56L80,459.312l8.752-8.752L128,480H32L71.248,450.56z M100.176,439.136L144,395.312V472  L100.176,439.136z" data-original="#000000"/><path d="M351.568,96.992C348.08,69.064,324.192,48,296,48V32c36.248,0,66.96,27.088,71.44,63.008L351.568,96.992z" data-original="#000000"/><path d="M104,240c-26.472,0-48-21.528-48-48h16c0,17.648,14.352,32,32,32V240z" data-original="#000000"/><path d="M440,352v-56h-96v16h80v40h-56v144h128V352H440z M480,480h-96V368h96V480z" data-original="#000000"/><rect x="400" y="384" width="64" height="16" data-original="#000000"/><rect x="400" y="416" width="64" height="16" data-original="#000000"/><rect x="448" y="448" width="16" height="16" data-original="#000000"/><rect x="400" y="448" width="32" height="16" data-original="#000000"/><path d="M384.008,103.6l-0.032,8.048l7.208,0.712C428.136,116.024,456,146.824,456,184c0,39.696-32.304,72-72,72h-40v16h40  c48.52,0,88-39.48,88-88c0-43.056-30.576-79.112-72.208-86.584C396.384,43.128,351.136,0,296,0  c-35.248,0-67.936,17.88-87.064,47.144C198.6,42.456,187.344,40,176,40c-41.536,0-75.784,31.824-79.64,72.36  C55.824,116.216,24,150.464,24,192c0,44.112,35.888,80,80,80h48v-16h-48c-35.288,0-64-28.712-64-64s28.712-64,64-64h8v-8  c0-35.288,28.712-64,64-64c11.16,0,22.2,2.976,31.928,8.6l7.064,4.08l3.944-7.144C234.448,33.448,263.984,16,296,16  C344.52,16,384,55.48,384.008,103.6z" data-original="#000000"/><path style="fill:#00AD84" d="M356.328,203.672c-2.576-9.872-6.504-19.328-11.728-28.2l9.296-18.584l-30.784-30.784l-18.584,9.296  c-8.872-5.216-18.328-9.152-28.2-11.728L269.768,104H226.24l-6.56,19.672c-9.872,2.576-19.328,6.504-28.2,11.728l-18.584-9.296  l-30.784,30.784l9.296,18.584c-5.216,8.872-9.152,18.328-11.728,28.2l-19.68,6.56v43.528l19.672,6.56  c2.576,9.872,6.504,19.328,11.728,28.2l-9.296,18.584l30.784,30.784l18.584-9.296c8.872,5.216,18.328,9.152,28.2,11.728l6.56,19.68  h43.528l6.56-19.672c9.872-2.576,19.328-6.504,28.2-11.728l18.584,9.296l30.784-30.784l-9.296-18.584  c5.216-8.872,9.152-18.328,11.728-28.2l19.68-6.56V210.24L356.328,203.672z M248,288c-30.928,0-56-25.072-56-56s25.072-56,56-56  s56,25.072,56,56S278.928,288,248,288z" data-original="#F0BC5E" class="active-path" data-old_color="#F0BC5E"/><path d="M248,296c-35.288,0-64-28.712-64-64s28.712-64,64-64s64,28.712,64,64S283.288,296,248,296z M248,184  c-26.472,0-48,21.528-48,48s21.528,48,48,48s48-21.528,48-48S274.472,184,248,184z" data-original="#000000"/></g> </svg>
