<?xml version="1.0" encoding="utf-8"?>
<!-- Generator: Adobe Illustrator 23.0.3, SVG Export Plug-In . SVG Version: 6.00 Build 0)  -->
<svg version="1.1" id="_x33_0" xmlns="http://www.w3.org/2000/svg" xmlns:xlink="http://www.w3.org/1999/xlink" x="0px" y="0px"
	 viewBox="0 0 512 512" style="enable-background:new 0 0 512 512;" xml:space="preserve">
<style type="text/css">
	.st0{fill:#00bf91;}
</style>
<g>
	<g>
		<g>
			<path class="st0" d="M16,344v48c0,13.3,10.7,24,24,24h432c13.3,0,24-10.7,24-24v-48H16z"/>
		</g>
		<g>
			<g>
				<path class="st0" d="M136,296H72v-64h64V296z"/>
			</g>
		</g>
		<g>
			<g>
				<path class="st0" d="M216,272h-64v-40h64V272z"/>
			</g>
		</g>
		<g>
			<path class="st0" d="M368,176c-29.6,0-55.4-16.1-69.2-40H296v80h144v-80h-2.8C423.4,159.9,397.6,176,368,176z"/>
		</g>
		<g>
			<path class="st0" d="M144,176c-29.6,0-55.4-16.1-69.2-40H72v80h144v-80h-2.8C199.4,159.9,173.6,176,144,176z"/>
		</g>
		<g>
			<g>
				<path class="st0" d="M360,296h-64v-64h64V296z"/>
			</g>
		</g>
		<g>
			<g>
				<path class="st0" d="M440,272h-64v-40h64V272z"/>
			</g>
		</g>
		<g>
			<path d="M352,152h16c17.6,0,32-14.4,32-32c0-9.5-4.2-18.1-10.9-24c6.7-5.9,10.9-14.5,10.9-24c0-17.6-14.4-32-32-32h-16
				c-8.8,0-16,7.2-16,16v80C336,144.8,343.2,152,352,152z M352,56h16c8.8,0,16,7.2,16,16s-7.2,16-16,16h-16V56z M352,104h16
				c8.8,0,16,7.2,16,16s-7.2,16-16,16h-16V104z"/>
			<path d="M128,120h32v32h16V72c0-17.6-14.4-32-32-32s-32,14.4-32,32v80h16V120z M144,56c8.8,0,16,7.2,16,16v32h-32V72
				C128,63.2,135.2,56,144,56z"/>
			<path d="M152,232h16v16h-16V232z"/>
			<path d="M184,232h32v16h-32V232z"/>
			<path d="M152,264h64v16h-64V264z"/>
			<path d="M376,232h16v16h-16V232z"/>
			<path d="M408,232h32v16h-32V232z"/>
			<path d="M376,264h64v16h-64V264z"/>
			<path d="M440,376h16v16h-16V376z"/>
			<path d="M408,376h16v16h-16V376z"/>
			<path d="M376,376h16v16h-16V376z"/>
			<path d="M472,56h-25.7C431.7,27.6,402.1,8,368,8s-63.7,19.6-78.3,48h-67.4C207.7,27.6,178.1,8,144,8S80.3,27.6,65.7,56H40
				C22.4,56,8,70.4,8,88v304c0,17.6,14.4,32,32,32h126.5c-4.4,12.9-17.8,25.9-25.3,32H120c-8.8,0-16,7.2-16,16v16
				c0,8.8,7.2,16,16,16h272c8.8,0,16-7.2,16-16v-16c0-8.8-7.2-16-16-16h-21.2c-7.5-6.1-20.8-19.1-25.3-32H472c17.6,0,32-14.4,32-32
				V88C504,70.4,489.6,56,472,56z M456,104v208H280V104h0.4c4.1,44.8,41.8,80,87.6,80s83.5-35.2,87.6-80H456z M368,24
				c39.7,0,72,32.3,72,72s-32.3,72-72,72s-72-32.3-72-72S328.3,24,368,24z M232,104v208H56V104h0.4c4.1,44.8,41.8,80,87.6,80
				s83.5-35.2,87.6-80H232z M144,24c39.7,0,72,32.3,72,72s-32.3,72-72,72s-72-32.3-72-72S104.3,24,144,24z M392,488H120v-16h272
				L392,488z M347.4,456H164.6c7.7-8.4,15.8-19.7,18.5-32H329C331.6,436.3,339.7,447.6,347.4,456L347.4,456z M488,392
				c0,8.8-7.2,16-16,16H40c-8.8,0-16-7.2-16-16V88c0-8.8,7.2-16,16-16h19.4c-1.5,5.2-2.5,10.5-3,16H56c-8.8,0-16,7.2-16,16v208
				c0,8.8,7.2,16,16,16h176c8.8,0,16-7.2,16-16V104c0-8.8-7.2-16-16-16h-0.4c-0.5-5.5-1.5-10.8-3-16h54.8c-1.5,5.2-2.5,10.5-3,16
				H280c-8.8,0-16,7.2-16,16v208c0,8.8,7.2,16,16,16h176c8.8,0,16-7.2,16-16V104c0-8.8-7.2-16-16-16h-0.4c-0.5-5.5-1.5-10.8-3-16
				H472c8.8,0,16,7.2,16,16V392z"/>
		</g>
	</g>
</g>
</svg>
