<?xml version="1.0"?>
<svg xmlns="http://www.w3.org/2000/svg" id="Layer_5" enable-background="new 0 0 64 64" height="512px" viewBox="0 0 64 64" width="512px" class="hovered-paths"><g><g><g><path d="m40 34c-3.314 0-6-2.686-6-6v-10c0-3.314 2.686-6 6-6h10v-5h-36v21h10c3.314 0 6 2.686 6 6v10c0 3.314-2.686 6-6 6h-10v5h36v-21z" fill="#f0bc5e" data-original="#F0BC5E" class="hovered-path active-path" style="fill:#00AD84" data-old_color="#f0bc5e"/></g><g><path d="m56 11h-5v-5c0-2.757-2.243-5-5-5h-28c-2.757 0-5 2.243-5 5v21h-5c-3.859 0-7 3.14-7 7v10c0 3.86 3.141 7 7 7h5v7c0 2.757 2.243 5 5 5h28c2.757 0 5-2.243 5-5v-23h5c3.859 0 7-3.14 7-7v-10c0-3.86-3.141-7-7-7zm-53 33v-10c0-2.757 2.243-5 5-5h16c2.757 0 5 2.243 5 5v10c0 2.757-2.243 5-5 5h-16c-2.757 0-5-2.243-5-5zm46 14c0 1.654-1.346 3-3 3h-28c-1.654 0-3-1.346-3-3v-7h9c3.859 0 7-3.14 7-7v-10c0-3.86-3.141-7-7-7h-9v-21c0-1.654 1.346-3 3-3h28c1.654 0 3 1.346 3 3v5h-9c-3.859 0-7 3.14-7 7v10c0 3.86 3.141 7 7 7h9zm-5-37c0-2.206 1.794-4 4-4s4 1.794 4 4-1.794 4-4 4-4-1.794-4-4zm-2 12c0-3.309 2.691-6 6-6s6 2.691 6 6zm19-5c0 2.757-2.243 5-5 5 0-3.14-1.823-5.856-4.463-7.165 1.49-1.092 2.463-2.85 2.463-4.835 0-3.309-2.691-6-6-6s-6 2.691-6 6c0 1.985.973 3.743 2.463 4.835-2.64 1.309-4.463 4.025-4.463 7.165-2.757 0-5-2.243-5-5v-10c0-2.757 2.243-5 5-5h16c2.757 0 5 2.243 5 5z" data-original="#000000" class=""/><path d="m26 57h12v2h-12z" data-original="#000000" class=""/><path d="m27 38h-7.566l-2.301 3.835-4.08-9.177-2.671 5.342h-5.382v2h6.618l1.329-2.658 3.92 8.823 3.699-6.165h6.434z" data-original="#000000" class=""/><path d="m29 21h2v2h-2z" data-original="#000000" class=""/><path d="m25 21h2v2h-2z" data-original="#000000" class=""/><path d="m21 21h2v2h-2z" data-original="#000000" class=""/><path d="m41 40h2v2h-2z" data-original="#000000" class=""/><path d="m37 40h2v2h-2z" data-original="#000000" class=""/><path d="m33 40h2v2h-2z" data-original="#000000" class=""/></g></g></g> </svg>
