<?xml version="1.0" encoding="utf-8"?>
<!-- Generator: Adobe Illustrator 23.0.3, SVG Export Plug-In . SVG Version: 6.00 Build 0)  -->
<svg version="1.1" id="Layer_1" xmlns="http://www.w3.org/2000/svg" xmlns:xlink="http://www.w3.org/1999/xlink" x="0px" y="0px"
	 viewBox="0 0 512 512" style="enable-background:new 0 0 512 512;" xml:space="preserve">
<style type="text/css">
	.st0{fill:#00bf91;}
</style>
<g>
	<g>
		<path class="st0" d="M219.2,133.2l-6.1-6.1c-18.1-18.1-42.2-28.1-67.8-28.1c-52.8,0-95.8,43-95.8,95.8v52.8h8.3
			c0-18.2,14.8-33,33-33v24.8c0-18.2,14.8-33,33-33h66.1c9.1,0,16.5-7.4,16.5-16.5v24.8c18.2,0,33,14.8,33,33h8.3v-73
			C247.7,156.3,236.4,139.8,219.2,133.2z"/>
		<path class="st0" d="M165.2,41.3v33H256v99.1h123.9V41.3H165.2z"/>
		<path class="st0" d="M297.3,198.2h165.2v82.6H297.3V198.2z"/>
		<path class="st0" d="M421.2,429.4h-82.6v-82.6h82.6V429.4z"/>
	</g>
	<path d="M132.1,0v100.1c4.4-0.6,8.8-1,13.3-1c1.1,0,2.2,0.1,3.3,0.2V16.5h346.8v479H297.3V396c0-18.2-11.7-34.1-29.1-39.5
		l-78.2-24.1v-16.7c8.8-7.1,15.8-16.4,20-27.1c21.1-1.8,37.8-19.4,37.8-40.9c0-19.9-14.2-36.6-33-40.5v-17.4h-16.5
		c0,4.5-3.7,8.3-8.3,8.3h-66.1c-9.3,0-17.9,3.2-24.8,8.5v-16.7H82.6v17.4c-18.8,3.8-33,20.5-33,40.5c0,21.6,16.7,39.1,37.8,40.9
		c4.3,10.7,11.2,20,20,27.1v16.7l-78.2,24.1C11.7,361.9,0,377.8,0,396v116h512V0H132.1z M280.8,396v99.5H156.9V380.5l38.9,31.1
		l9.5-57.1l58,17.8C273.7,375.6,280.8,385.1,280.8,396z M183.3,347.7l6.1,1.9l-5.3,31.6l-22-17.6L183.3,347.7z M231.2,247.7
		c0,10.9-7.1,20-16.9,23.4c0.2-2.2,0.4-4.5,0.4-6.8v-39.8C224.3,227.9,231.2,237,231.2,247.7z M66.1,247.7
		c0-10.8,6.9-19.8,16.5-23.3v39.8c0,2.3,0.1,4.6,0.4,6.8C73.2,267.8,66.1,258.6,66.1,247.7z M99.1,264.3v-24.8
		c0-13.7,11.1-24.8,24.8-24.8h66.1c2.9,0,5.7-0.6,8.3-1.5v51.1c0,27.3-22.2,49.5-49.5,49.5S99.1,291.6,99.1,264.3z M148.6,330.3
		c8.8,0,17.1-1.8,24.8-4.9v9L148.6,353l-24.8-18.6v-9C131.5,328.6,139.9,330.3,148.6,330.3z M114,347.7l21.1,15.9l-22,17.6
		l-5.3-31.6L114,347.7z M16.5,396c0-10.9,7-20.5,17.5-23.7l58-17.8l9.5,57.1l38.9-31.1v114.9H16.5V396z"/>
	<path d="M173.4,429.4h16.5v16.5h-16.5V429.4z"/>
	<path d="M107.4,429.4h16.5v16.5h-16.5V429.4z"/>
	<path d="M173.4,462.5h16.5V479h-16.5V462.5z"/>
	<path d="M107.4,462.5h16.5V479h-16.5V462.5z"/>
	<path d="M396.4,123.9v8.3c0,18.2,14.8,33,33,33v16.5h16.5v-16.5c18.2,0,33-14.8,33-33s-14.8-33-33-33h-16.5
		c-9.1,0-16.5-7.4-16.5-16.5s7.4-16.5,16.5-16.5h16.5c9.1,0,16.5,7.4,16.5,16.5v8.3H479v-8.3c0-18.2-14.8-33-33-33V33h-16.5v16.5
		c-18.2,0-33,14.8-33,33s14.8,33,33,33h16.5c9.1,0,16.5,7.4,16.5,16.5s-7.4,16.5-16.5,16.5h-16.5c-9.1,0-16.5-7.4-16.5-16.5v-8.3
		H396.4z"/>
	<path d="M165.2,33h214.7v16.5H165.2V33z"/>
	<path d="M363.4,66.1h16.5v16.5h-16.5V66.1z"/>
	<path d="M165.2,66.1h181.7v16.5H165.2V66.1z"/>
	<path d="M445.9,198.2h16.5v16.5h-16.5V198.2z"/>
	<path d="M297.3,198.2h132.1v16.5H297.3V198.2z"/>
	<path d="M297.3,231.2h165.2v16.5H297.3V231.2z"/>
	<path d="M371.6,264.3h16.5v16.5h-16.5V264.3z"/>
	<path d="M404.6,264.3h16.5v16.5h-16.5V264.3z"/>
	<path d="M437.7,264.3h16.5v16.5h-16.5V264.3z"/>
	<path d="M305.5,264.3h16.5v16.5h-16.5V264.3z"/>
	<path d="M338.6,264.3h16.5v16.5h-16.5V264.3z"/>
	<path d="M256,99.1h16.5v16.5H256V99.1z"/>
	<path d="M289,99.1h90.8v16.5H289V99.1z"/>
	<path d="M256,132.1h123.9v16.5H256V132.1z"/>
	<path d="M256,165.2h123.9v16.5H256V165.2z"/>
	<path d="M440.1,324.5l-60.2,60.2L369.2,374l-11.7,11.7l22.4,22.4l71.9-71.9L440.1,324.5z"/>
	<path d="M338.6,465.9l16.5,16.5l16.5-16.5l13.1,13.1h61.2v-16.5h-54.4l-19.9-19.9L355.1,459l-16.5-16.5l-22.4,22.4l11.7,11.7
		L338.6,465.9z"/>
	<path d="M462.5,462.5H479V479h-16.5V462.5z"/>
</g>
</svg>
