<?xml version="1.0"?>
<svg xmlns="http://www.w3.org/2000/svg" height="512px" viewBox="-8 0 496 496.63537" width="512px"><g><path d="m229.488281 255.625 101.820313-101.824219 11.316406 11.316407-101.824219 101.820312zm0 0" data-original="#000000"/><path d="m212.515625 227.347656 90.507813-90.507812 11.3125 11.3125-90.507813 90.507812zm0 0" data-original="#000000"/><path d="m156.949219 316.003906 17.992187-17.992187c6-6 14.144532-9.375 22.625-9.375h48.382813c1.527343-5.074219 2.367187-10.441407 2.367187-16 0-30.875-25.125-56-56-56-30.871094 0-56 25.125-56 56 0 17.46875 8.058594 33.085937 20.632813 43.367187zm35.367187-59.367187c8.824219 0 16 7.175781 16 16s-7.175781 16-16 16c-8.824218 0-16-7.175781-16-16s7.175782-16 16-16zm0 0" fill="#f0bc5e" data-original="#F0BC5E" class="active-path" style="fill:#00AD84" data-old_color="#f0bc5e"/><path d="m192.316406 456.636719h144v16h-144zm0 0" data-original="#000000"/><path d="m88.316406 456.636719c-10.414062 0-19.214844-6.714844-22.527344-16h38.527344v-16h-40v-45.503907c0-3.34375 2.113282-6.363281 5.257813-7.503906l7.632812-2.792968-5.496093-15.03125-7.632813 2.789062c-9.425781 3.441406-15.761719 12.496094-15.761719 22.539062v53.503907c0 22.054687 17.945313 40 40 40h24v-16zm0 0" data-original="#000000"/><path d="m200.316406 424.636719h128v16h-128zm0 0" data-original="#000000"/><path d="m452.964844 361.753906-65.703125-21.894531c-4.128907-1.375-7.808594-3.847656-10.640625-7.152344l-32.65625-38.105469c-7.597656-8.871093-18.671875-13.964843-30.367188-13.964843h-98.753906c.898438-2.511719 1.472656-5.183594 1.472656-8 0-13.234375-10.765625-24-24-24-13.230468 0-24 10.765625-24 24 0 6 2.289063 11.421875 5.945313 15.628906-1.726563 1.25-3.433594 2.546875-4.96875 4.082031l-38.566407 38.558594-2.578124 2.519531 11.191406 11.441407 41.265625-41.207032c4.464843-4.464844 10.648437-7.023437 16.96875-7.023437h116.023437c7.015625 0 13.664063 3.054687 18.222656 8.375l32.65625 38.113281c4.722657 5.503906 10.847657 9.613281 17.722657 11.902344l65.710937 21.894531c9.816406 3.28125 16.40625 12.433594 16.40625 22.777344v24.9375h-40v16h38.527344c-3.308594 9.285156-12.109375 16-22.527344 16h-24v16h24c22.058594 0 40-17.945313 40-40v-32.9375c0-17.238281-10.992187-32.496094-27.351562-37.945313zm-260.648438-97.117187c4.410156 0 8 3.582031 8 8 0 4.414062-3.589844 8-8 8-4.40625 0-8-3.585938-8-8 0-4.417969 3.59375-8 8-8zm0 0" data-original="#000000"/><path d="m349.261719 376.636719h-193.886719l25.367188-50.738281c4.085937-8.175782 12.3125-13.261719 21.464843-13.261719h100.222657c9.152343 0 17.367187 5.085937 21.464843 13.261719zm-168-16h142.113281l-13.792969-27.578125c-1.359375-2.726563-4.105469-4.421875-7.152343-4.421875h-100.222657c-3.050781 0-5.792969 1.695312-7.152343 4.421875zm0 0" data-original="#000000"/><path d="m416.164062 35.011719-23.285156-23.289063c-12.191406-12.183594-30.738281-15.199218-46.167968-7.496094l-61.953126 30.976563c-3.886718 1.945313-8.25 2.769531-12.574218 2.464844l-50.027344-3.839844c-11.726562-.898437-23.085938 3.328125-31.351562 11.597656l-82.046876 82.042969c-7.550781 7.550781-11.710937 17.589844-11.710937 28.277344v66.28125c0 5.304687-1.800781 10.527344-5.058594 14.726562l-15.503906 19.945313c-1.144531 1.472656-2.175781 3-2.75 4.046875l-7.945313 11.570312 13.183594 9.0625 8.28125-12.105468c.542969-.933594 1.167969-1.855469 1.855469-2.742188l15.511719-19.953125c5.433594-6.992187 8.425781-15.710937 8.425781-24.550781v-66.28125c0-6.320313 2.558594-12.496094 7.023437-16.964844l82.046876-82.042969c4.960937-4.957031 11.847656-7.503906 18.808593-6.957031l50.023438 3.839844c7.234375.550781 14.480469-.859375 20.960937-4.105469l61.953125-30.976563c9.253907-4.640624 20.390625-2.824218 27.703125 4.496094l17.632813 17.632813-28.289063 28.289062 11.3125 11.308594 27.238282-27.246094c4.226562 8.910157 2.753906 19.878907-4.617188 27.246094l-16.972656 16.96875 11.3125 11.3125 16.972656-16.96875c15.601562-15.589844 15.601562-40.976563.007812-56.566406zm0 0" data-original="#000000"/><path d="m205.527344 75.949219-70.875 70.863281c-6.460938 6.480469-8.6875 15.878906-5.789063 24.558594l17.933594 53.816406 137.097656-137.113281-53.816406-17.933594c-8.679687-2.898437-18.097656-.664063-24.550781 5.808594zm-51.738282 119.613281-9.75-29.246094c-.96875-2.890625-.226562-6.03125 1.925782-8.183594l70.871094-70.867187c1.53125-1.527344 3.554687-2.351563 5.632812-2.351563.847656 0 1.714844.144532 2.546875.417969l29.253906 9.757813zm0 0" data-original="#000000"/><path d="m.316406 320.636719 27.730469-16.671875-10.359375-30.320313 32.125 4.78125 11.847656-29.789062 21.488282 24 28.527343-15.3125.792969 31.984375 31.847656 6.320312-20.269531 25.007813 20.269531 25.007812-31.847656 6.320313-.792969 31.984375-28.527343-15.3125-21.488282 24-11.847656-29.792969-32.125 4.785156 10.359375-30.320312zm0 0" fill="#f0bc5e" data-original="#F0BC5E" class="active-path" style="fill:#00AD84" data-old_color="#f0bc5e"/><path d="m376.316406 496.636719c-30.871094 0-56-25.128907-56-56 0-30.875 25.128906-56 56-56 30.875 0 56 25.125 56 56 0 30.871093-25.125 56-56 56zm0-72c-8.824218 0-16 7.175781-16 16s7.175782 16 16 16c8.824219 0 16-7.175781 16-16s-7.175781-16-16-16zm0 0" fill="#f0bc5e" data-original="#F0BC5E" class="active-path" style="fill:#00AD84" data-old_color="#f0bc5e"/><path d="m376.316406 464.636719c-13.230468 0-24-10.769531-24-24 0-13.234375 10.769532-24 24-24 13.234375 0 24 10.765625 24 24 0 13.230469-10.765625 24-24 24zm0-32c-4.40625 0-8 3.582031-8 8 0 4.414062 3.59375 8 8 8 4.410156 0 8-3.585938 8-8 0-4.417969-3.589844-8-8-8zm0 0" data-original="#000000"/><path d="m152.316406 496.636719c-30.871094 0-56-25.128907-56-56 0-30.875 25.128906-56 56-56 30.875 0 56 25.125 56 56 0 30.871093-25.125 56-56 56zm0-72c-8.824218 0-16 7.175781-16 16s7.175782 16 16 16c8.824219 0 16-7.175781 16-16s-7.175781-16-16-16zm0 0" fill="#f0bc5e" data-original="#F0BC5E" class="active-path" style="fill:#00AD84" data-old_color="#f0bc5e"/><path d="m152.316406 464.636719c-13.230468 0-24-10.769531-24-24 0-13.234375 10.769532-24 24-24 13.234375 0 24 10.765625 24 24 0 13.230469-10.765625 24-24 24zm0-32c-4.40625 0-8 3.582031-8 8 0 4.414062 3.59375 8 8 8 4.410156 0 8-3.585938 8-8 0-4.417969-3.589844-8-8-8zm0 0" data-original="#000000"/><path d="m348.285156 170.179688c-14.34375 0-28.679687-5.464844-39.597656-16.375-21.832031-21.832032-21.832031-57.359376 0-79.191407s57.375-21.824219 79.191406 0c21.832032 21.832031 21.832032 57.359375 0 79.191407-10.914062 10.917968-25.257812 16.375-39.59375 16.375zm0-73.542969c-4.503906 0-9.007812 1.710937-12.429687 5.144531-6.859375 6.855469-6.859375 18.015625 0 24.863281 6.855469 6.855469 18.015625 6.855469 24.863281 0 6.855469-6.855469 6.855469-18.015625 0-24.863281-3.433594-3.433594-7.929688-5.144531-12.433594-5.144531zm0 0" fill="#f0bc5e" data-original="#F0BC5E" class="active-path" style="fill:#00AD84" data-old_color="#f0bc5e"/><path d="m348.285156 138.195312c-6.144531 0-12.289062-2.335937-16.96875-7.015624-9.359375-9.359376-9.359375-24.585938 0-33.945313 9.066406-9.0625 24.875-9.0625 33.9375 0 9.351563 9.359375 9.351563 24.585937 0 33.945313-4.679687 4.679687-10.824218 7.015624-16.96875 7.015624zm0-31.992187c-2.136718 0-4.144531.832031-5.65625 2.34375-3.128906 3.128906-3.128906 8.191406 0 11.320313 3.121094 3.113281 8.191406 3.113281 11.3125 0 3.121094-3.128907 3.121094-8.191407 0-11.320313-1.511718-1.511719-3.519531-2.34375-5.65625-2.34375zm0 0" data-original="#000000"/></g> </svg>
