<?xml version="1.0"?>
<svg xmlns="http://www.w3.org/2000/svg" id="Layer_5" enable-background="new 0 0 64 64" height="512px" viewBox="0 0 64 64" width="512px"><g><path d="m27 19h2v2h-2z" data-original="#000000"/><path d="m31 19h6v2h-6z" data-original="#000000"/><path d="m29 57h6v2h-6z" data-original="#000000"/><path d="m34 50c-2.209 0-4-1.791-4-4v-14c0-2.209 1.791-4 4-4h9v-3c0-1.103-.897-2-2-2h-18c-1.103 0-2 .897-2 2v28c0 1.103.897 2 2 2h18c1.103 0 2-.897 2-2v-3z" fill="#f0bc5e" data-original="#F0BC5E" class="active-path" style="fill:#00AD84" data-old_color="#f0bc5e"/><path d="m55 47c-.98 0-1.928-.368-2.669-1.035l1.338-1.486c.374.335.846.521 1.331.521 1.103 0 2-.897 2-2s-.897-2-2-2c-.485 0-.957.186-1.331.521l-1.338-1.486c.741-.667 1.689-1.035 2.669-1.035 2.206 0 4 1.794 4 4s-1.794 4-4 4z" data-original="#000000"/><path d="m51 47c-2.206 0-4-1.794-4-4s1.794-4 4-4 4 1.794 4 4-1.794 4-4 4z" fill="#f0bc5e" data-original="#F0BC5E" class="active-path" style="fill:#00AD84" data-old_color="#f0bc5e"/><path d="m41 47h-6c-1.103 0-2-.897-2-2v-4c0-1.103.897-2 2-2h6c1.103 0 2 .897 2 2v4c0 1.103-.897 2-2 2zm-6-6v4h6.002l-.002-4z" data-original="#000000"/><path d="m27 51h-2v-2h2zm0-4h-2v-2h2zm0-4h-2v-2h2z" data-original="#000000"/><path d="m58 27h-11v-5.213c1.542.795 3.241 1.213 5 1.213 6.065 0 11-4.935 11-11s-4.935-11-11-11-11 4.935-11 11c0 1.022.156 2.024.435 3h-6.718c-1.433-8.038-8.458-14-16.717-14-9.374 0-17 7.626-17 17 0 9.036 7.092 16.427 16 16.949v23.051c0 2.757 2.243 5 5 5h20c2.757 0 5-2.243 5-5v-7h11c2.757 0 5-2.243 5-5v-14c0-2.757-2.243-5-5-5zm-27 6h30v2h-30zm29.816-2h-29.632c.414-1.161 1.514-2 2.816-2h24c1.302 0 2.402.839 2.816 2zm-8.816-28c4.963 0 9 4.037 9 9s-4.037 9-9 9c-1.818 0-3.556-.548-5.058-1.577-.224-1.92-1.526-3.5-3.295-4.123-.422-1.059-.647-2.166-.647-3.3 0-4.963 4.037-9 9-9zm-33.974 14h-7.001c.07-2.142.354-4.179.816-6h12.321c.316 1.242.548 2.587.688 4h-2.85c-1.627 0-3.061.793-3.974 2zm-1.026 8h-5.159c-.462-1.821-.746-3.858-.816-6h6.077c-.067.323-.102.658-.102 1zm-4.546 2h4.546v5.821c-1.829-.591-3.451-2.758-4.546-5.821zm-9.403-8h5.975c.063 2.139.322 4.16.752 6h-5.035c-.96-1.812-1.549-3.845-1.692-6zm0-2c.143-2.155.732-4.188 1.693-6h5.034c-.43 1.84-.689 3.861-.752 6zm14.949-14c2.205 0 4.246 2.37 5.549 6h-11.095c1.292-3.613 3.314-6 5.546-6zm8.855 12c-.129-1.409-.341-2.748-.632-4h5.043c.654 1.237 1.136 2.581 1.424 4zm3.13-6h-4.314c-.661-2.044-1.543-3.774-2.585-5.1 2.759.998 5.153 2.782 6.899 5.1zm-17.083-5.089c-1.038 1.327-1.908 3.066-2.566 5.089h-4.308c1.737-2.304 4.115-4.087 6.874-5.089zm-6.874 23.089h4.308c.658 2.023 1.528 3.762 2.566 5.089-2.759-1.002-5.137-2.785-6.874-5.089zm38.972 31c0 1.654-1.346 3-3 3h-20c-1.654 0-3-1.346-3-3v-38c0-1.654 1.346-3 3-3h20c1.654 0 3 1.346 3 3v7h-11c-2.757 0-5 2.243-5 5v14c0 2.757 2.243 5 5 5h11zm13-9h-24c-1.654 0-3-1.346-3-3v-9h30v9c0 1.654-1.346 3-3 3z" data-original="#000000"/><path d="m51 15c-.552 0-1-.448-1-1h-2c0 1.654 1.346 3 3 3v2h2v-2h3v-3c0-1.654-1.346-3-3-3h-2c-.552 0-1-.448-1-1v-1h3c.552 0 1 .448 1 1h2c0-1.654-1.346-3-3-3v-2h-2v2h-3v3c0 1.654 1.346 3 3 3h2c.552 0 1 .448 1 1v1z" data-original="#000000"/><path d="m17 13h2v2h-2z" data-original="#000000"/><path d="m13 13h2v2h-2z" data-original="#000000"/></g> </svg>
