<?xml version="1.0"?>
<svg xmlns="http://www.w3.org/2000/svg" id="Layer_5" enable-background="new 0 0 64 64" height="512px" viewBox="0 0 64 64" width="512px" class="hovered-paths"><g><g><g><circle cx="17" cy="48" fill="#f0bc5e" r="9" data-original="#F0BC5E" class="hovered-path active-path" style="fill:#00AD84" data-old_color="#f0bc5e"/></g><g><g><path d="m37 17c-4.411 0-8-3.589-8-8s3.589-8 8-8 8 3.589 8 8-3.589 8-8 8zm0-11c-1.654 0-3 1.346-3 3s1.346 3 3 3 3-1.346 3-3-1.346-3-3-3z" fill="#f0bc5e" data-original="#F0BC5E" class="hovered-path active-path" style="fill:#00AD84" data-old_color="#f0bc5e"/></g></g><g><g><path d="m55 17c-4.411 0-8-3.589-8-8s3.589-8 8-8 8 3.589 8 8-3.589 8-8 8zm0-11c-1.654 0-3 1.346-3 3s1.346 3 3 3 3-1.346 3-3-1.346-3-3-3z" fill="#f0bc5e" data-original="#F0BC5E" class="hovered-path active-path" style="fill:#00AD84" data-old_color="#f0bc5e"/></g></g><g><path d="m21 44.905c0-1.84-1.284-3.378-3-3.789v-2.116h-2v2.117c-1.716.411-3 1.948-3 3.789 0 1.684 1.073 3.173 2.67 3.705l2.026.676c.78.26 1.303.987 1.303 1.809.001 1.05-.854 1.904-1.905 1.904h-.188c-1.051 0-1.906-.854-1.906-1.905v-1.095h-2v1.095c0 1.84 1.284 3.378 3 3.789v2.116h2v-2.117c1.716-.411 3-1.948 3-3.789 0-1.684-1.073-3.173-2.67-3.705l-2.026-.676c-.781-.259-1.304-.986-1.304-1.808 0-1.051.855-1.905 1.906-1.905h.188c1.051 0 1.906.854 1.906 1.905v.095z" data-original="#000000" class="" style="fill:#000000"/><path d="m15 17.172 1.172-1.172h1.656l1.172 1.172v1.828h4v-2h-3.586l2.536-2.536-1.414-1.414-2.536 2.536v-3.586h-2v3.586l-2.536-2.536-1.414 1.414 2.536 2.536h-3.586v2h4z" data-original="#000000" class="" style="fill:#000000"/><path d="m60 35h-3.543l-6.281-11.73 3.528-6.385c-.687-.113-1.345-.309-1.961-.586l-2.691 4.87-1.964-3.667 1.839-3.31c-.493-.576-.905-1.223-1.22-1.923l-1.742 3.136-1.675-3.127c-.318.705-.734 1.355-1.233 1.933l13.871 25.904-1.222 4.274-15.45-28.089c-.616.276-1.274.473-1.96.585l3.406 6.193-6.623 11.922h-7.517c-.783-.691-1.64-1.309-2.562-1.843v-3.157c0-1.654-1.346-3-3-3h-4v-9h-2v9h-4c-1.654 0-3 1.346-3 3v3.157c-4.935 2.858-8 8.157-8 13.843 0 8.822 7.178 16 16 16 2.802 0 5.436-.729 7.729-2h35.271c1.654 0 3-1.346 3-3v-20c0-1.654-1.346-3-3-3zm0 2c.551 0 1 .448 1 1v1h-2.401l-1.071-2zm-1.246 4h2.246v4h-3.389zm-5.754 12c0 1.103-.897 2-2 2s-2-.897-2-2 .897-2 2-2 2 .897 2 2zm1.485-1.924c.157-.044.325-.076.515-.076 1.103 0 2 .897 2 2s-.897 2-2 2c-.19 0-.358-.032-.515-.076.318-.573.515-1.223.515-1.924s-.197-1.351-.515-1.924zm-22.668-10.076h19.741l2.2 4h-20.888c-.177-1.383-.534-2.726-1.053-4zm17.542-4 1.1 2h-19.618c-.406-.701-.871-1.367-1.379-2zm-1.1-2h-4.518l2.259-4.107zm-5.419-9.853 2.019 3.671-3.4 6.182h-4.093zm-30.84 3.853h10c.551 0 1 .449 1 1v3h-12v-3c0-.551.449-1 1-1zm-9 18c0-4.899 2.603-9.474 6.81-12h14.38c4.207 2.526 6.81 7.101 6.81 12 0 7.72-6.28 14-14 14s-14-6.28-14-14zm57 12h-32.453c3.335-2.934 5.453-7.22 5.453-12h21.859l1.186 2.156c-.336-.091-.681-.156-1.045-.156-.707 0-1.394.197-2.003.555-.59-.344-1.266-.555-1.997-.555-2.206 0-4 1.794-4 4s1.794 4 4 4c.731 0 1.407-.211 1.997-.555.609.358 1.296.555 2.003.555 2.206 0 4-1.794 4-4 0-1.714-1.089-3.167-2.607-3.736l.647-2.264h3.96v11c0 .552-.449 1-1 1z" data-original="#000000" class="" style="fill:#000000"/><path d="m37 13c2.206 0 4-1.794 4-4s-1.794-4-4-4-4 1.794-4 4 1.794 4 4 4zm0-6c1.103 0 2 .897 2 2s-.897 2-2 2-2-.897-2-2 .897-2 2-2z" data-original="#000000" class="" style="fill:#000000"/><path d="m55 13c2.206 0 4-1.794 4-4s-1.794-4-4-4-4 1.794-4 4 1.794 4 4 4zm0-6c1.103 0 2 .897 2 2s-.897 2-2 2-2-.897-2-2 .897-2 2-2z" data-original="#000000" class="" style="fill:#000000"/><path d="m34 55h8v2h-8z" data-original="#000000" class="" style="fill:#000000"/><path d="m34 51h8v2h-8z" data-original="#000000" class="" style="fill:#000000"/><path d="m5 47c0 .734.067 1.469.198 2.182l1.967-.363c-.109-.594-.165-1.206-.165-1.819 0-2.78 1.114-5.363 3.137-7.272l-1.373-1.455c-2.428 2.291-3.764 5.391-3.764 8.727z" data-original="#000000" class="" style="fill:#000000"/><path d="m5.818 51.364c.298.763.676 1.497 1.123 2.182l1.675-1.092c-.372-.571-.687-1.183-.935-1.818z" data-original="#000000" class="" style="fill:#000000"/></g></g></g> </svg>
