<?xml version="1.0"?>
<svg xmlns="http://www.w3.org/2000/svg" height="512px" viewBox="0 0 496 496" width="512px" class="hovered-paths"><g><path d="m324.769531 41.457031-10.945312-10.945312c-19.671875-19.679688-45.832031-30.511719-73.65625-30.511719-57.441407 0-104.167969 46.726562-104.167969 104.167969v63.832031h8c0-17.671875 14.328125-32 32-32v-8h51.152344c18.808594 0 37.191406-5.566406 52.847656-16 10.246094 10.246094 24.136719 16 38.625 16h1.375v8c17.671875 0 32 14.328125 32 32h8v-68.222656c0-24.671875-13.464844-46.898438-35.230469-58.320313zm0 0" fill="#f0bc5e" data-original="#F0BC5E" class="hovered-path active-path" style="fill:#00AD84" data-old_color="#f0bc5e"/><path d="m32.742188 252.054688 235.945312 235.945312h51.3125c-13.257812 0-24-10.742188-24-24 0-9.527344 5.59375-17.679688 13.640625-21.558594l-.054687-.175781-269.953126-269.945313c.136719 1.222657.367188 2.414063.367188 3.679688v56c0 7.640625-2.785156 14.558594-7.257812 20.054688zm0 0" fill="#f0bc5e" data-original="#F0BC5E" class="hovered-path active-path" style="fill:#00AD84" data-old_color="#f0bc5e"/><path d="m296 160c0 4.417969-3.582031 8-8 8s-8-3.582031-8-8 3.582031-8 8-8 8 3.582031 8 8zm0 0" data-original="#000000" class=""/><path d="m216 160c0 4.417969-3.582031 8-8 8s-8-3.582031-8-8 3.582031-8 8-8 8 3.582031 8 8zm0 0" data-original="#000000" class=""/><path d="m248 232c17.648438 0 32-14.351562 32-32h-16c0 8.824219-7.175781 16-16 16s-16-7.175781-16-16h-16c0 17.648438 14.351562 32 32 32zm0 0" data-original="#000000" class=""/><path d="m416 400h16v-64.167969c0-26.9375-19.207031-50.078125-45.679688-55.039062l-82.320312-15.433594v-16.328125c11.3125-11.101562 19.335938-25.527344 22.488281-41.6875 18.960938-3.128906 33.511719-19.511719 33.511719-39.34375 0-19.3125-13.769531-35.472656-32-39.191406v-16.808594h-16v7.480469c-9.9375-1.410157-19.121094-5.921875-26.34375-13.136719l-4.632812-4.640625-5.464844 3.640625c-14.382813 9.59375-31.109375 14.65625-48.398438 14.65625h-43.160156v-8h-16v16.808594c-18.230469 3.71875-32 19.871094-32 39.191406 0 19.832031 14.550781 36.214844 33.511719 39.34375 3.152343 16.160156 11.175781 30.585938 22.488281 41.6875v16.328125l-49.480469 9.28125c-.175781.03125-.3125.054687-.488281.085937l13.710938 13.714844 41-7.6875c6.800781 7.757813 23.777343 23.246094 51.257812 23.246094s44.457031-15.488281 51.246094-23.246094l84.121094 15.773438c18.90625 3.535156 32.632812 20.074218 32.632812 39.304687v48.167969h-48v-56h-16v52.390625c-20.726562-36.023437-59.535156-60.390625-104-60.390625s-83.273438 24.367188-104 60.390625v-17.070313l-16-16v36.679688h-48v-48.167969c0-9.878906 3.640625-19.199219 10.0625-26.457031l-11.320312-11.320312c-9.40625 10.265624-14.742188 23.617187-14.742188 37.777343v64.167969h16v80h-48v16h432v-16h-48zm-72-232c0 10.414062-6.710938 19.214844-16 22.527344v-45.046875c9.289062 3.304687 16 12.105469 16 22.519531zm-192 0c0-10.414062 6.710938-19.214844 16-22.527344v45.046875c-9.289062-3.304687-16-12.105469-16-22.519531zm32 24v-56h43.160156c18.359375 0 36.191406-4.832031 51.960938-14.023438 9.421875 7.695313 20.78125 12.375 32.878906 13.640626v56.382812c0 35.289062-28.710938 64-64 64s-64-28.710938-64-64zm64 96c-22.671875 0-35.929688-13.710938-40-18.6875v-8.136719c11.785156 6.839844 25.425781 10.824219 40 10.824219s28.214844-3.984375 40-10.824219v8.136719c-4.046875 4.917969-17.375 18.6875-40 18.6875zm0 48c54.640625 0 99.480469 42.390625 103.59375 96h-16c-4.058594-44.785156-41.769531-80-87.59375-80s-83.535156 35.214844-87.59375 80h-16c4.113281-53.609375 48.953125-96 103.59375-96zm44.449219 144h-88.898438c2.753907-4.726562 4.449219-10.144531 4.449219-16 0-17.488281-14.105469-31.695312-31.535156-31.953125 3.976562-35.96875 34.519531-64.046875 71.535156-64.046875s67.558594 28.078125 71.535156 64.046875c-17.429687.257813-31.535156 14.464844-31.535156 31.953125 0 5.855469 1.695312 11.273438 4.449219 16zm-196.449219 0v-80h32v32h-16v16h64c8.824219 0 16 7.175781 16 16s-7.175781 16-16 16zm208-16c0-8.824219 7.175781-16 16-16h64v-16h-16v-32h32v80h-80c-8.824219 0-16-7.175781-16-16zm0 0" data-original="#000000" class=""/><path d="m48 232v-56c0-19.3125-13.769531-35.472656-32-39.191406v-48.808594h-16v240h16v-56.808594c18.230469-3.71875 32-19.878906 32-39.191406zm-16-56v56c0 10.414062-6.710938 19.214844-16 22.527344v-101.054688c9.289062 3.3125 16 12.113282 16 22.527344zm0 0" data-original="#000000" class=""/><path d="m480 480h16v16h-16zm0 0" data-original="#000000" class=""/><path d="m0 480h16v16h-16zm0 0" data-original="#000000" class=""/></g> </svg>
