<?xml version="1.0" encoding="utf-8"?>
<!-- Generator: Adobe Illustrator 23.0.3, SVG Export Plug-In . SVG Version: 6.00 Build 0)  -->
<svg version="1.1" id="Layer_1" xmlns="http://www.w3.org/2000/svg" xmlns:xlink="http://www.w3.org/1999/xlink" x="0px" y="0px"
	 viewBox="0 0 512 512" style="enable-background:new 0 0 512 512;" xml:space="preserve">
<style type="text/css">
	.st0{fill:#00BF91;}
</style>
<g>
	<g id="outline">
		<path class="st0" d="M242.3,108.1c3.1,3.1,8.2,3.1,11.3,0c0,0,0,0,0,0l42-42c11.1-11.1,11.1-29,0-40.1s-29-11.1-40.1,0l-7.6,7.6
			l-7.6-7.6c-11.1-11-29.1-10.9-40.1,0.2c-10.9,11.1-10.9,28.8,0,39.9L242.3,108.1z M220.4,33.6c3.3,0,6.4,1.3,8.7,3.6l13.2,13.2
			c3.1,3.1,8.2,3.1,11.3,0c0,0,0,0,0,0l13.2-13.2c4.8-4.8,12.7-4.8,17.5,0c4.8,4.8,4.8,12.7,0,17.5L248,91.1l-36.4-36.4
			c-4.8-4.8-4.8-12.7,0-17.5C213.9,34.9,217.1,33.6,220.4,33.6z"/>
		<path class="st0" d="M160.2,318.2c0.4,8.8,4.2,17.1,10.8,23l55.8,50.4c6.8,6.2,14.8,10.9,23.6,13.9l44.4,15.2l81.9,74
			c1.5,1.3,3.4,2.1,5.4,2.1c0.1,0,0.3,0,0.4,0c2.1-0.1,4.1-1.1,5.5-2.6l101.9-112.8c3-3.3,2.7-8.3-0.6-11.3c0,0,0,0,0,0l-82.2-74.2
			l-19.5-34.4c-3.6-6.4-8.2-12.1-13.6-17l-66.3-59.9l1.4-9.3c1.3-9,4.2-17.8,8.5-25.8c8-15,2.3-33.7-12.7-41.6s-33.7-2.3-41.6,12.7
			c-0.2,0.3-0.3,0.6-0.4,0.9l-7.7,15.6l-16.3-14.7c-13-11.6-32.8-10.8-44.8,1.8c-5.8,6.2-8.9,14.5-8.5,23c0.4,8.8,4.2,17.1,10.8,23
			l32.5,29.4c-13.6,4.3-22.7,17.3-22,31.5c0.1,2.8,0.6,5.5,1.4,8.2c-7.3,0.9-14.1,4.4-19.2,9.8c-5.8,6.2-8.9,14.5-8.5,23
			c0.2,5,1.5,9.8,3.9,14.2C169.6,289.6,159.5,303.1,160.2,318.2L160.2,318.2z M277.1,128.3c3.6-7.3,12.5-10.3,19.8-6.7
			c7.3,3.6,10.3,12.5,6.7,19.8c-0.1,0.1-0.1,0.3-0.2,0.4c-5,9.3-8.3,19.4-10,29.8l-17.7-16l-8.3-7.5L277.1,128.3z M180.3,306.1
			c6-6.3,15.9-6.7,22.4-0.9l29.7,26.8c3.2,3,8.3,2.8,11.3-0.5c3-3.2,2.8-8.3-0.5-11.3c0,0-0.1-0.1-0.1-0.1l-29.7-26.8l0,0L202,283
			c-3.3-3-5.3-7.3-5.5-11.8c-0.2-4.2,1.3-8.3,4.2-11.4c6-6.3,15.9-6.7,22.4-0.9l0,0l23.8,21.5c3.3,3,8.3,2.7,11.3-0.6
			s2.7-8.3-0.6-11.3L233.8,247l0,0l-5.5-5c-3.3-3-5.3-7.3-5.5-11.8c-0.2-4.2,1.3-8.3,4.2-11.4c6-6.3,15.9-6.7,22.4-0.9l0,0
			l17.8,16.1c3.3,3,8.3,2.7,11.3-0.6c3-3.3,2.7-8.3-0.6-11.3L260,206l-11.9-10.7L207,158.1c-3.3-3-5.3-7.3-5.5-11.8
			c-0.2-4.2,1.3-8.3,4.2-11.4c6-6.3,15.9-6.7,22.4-0.9l135.3,122.2c4.1,3.7,7.7,8.1,10.4,13l20.1,35.6c0.4,0.7,1,1.4,1.6,2
			l77.2,69.7l-91.2,100.9l-77.2-69.7c-0.8-0.7-1.7-1.3-2.8-1.6l-46-15.7c-6.7-2.3-12.8-5.9-18-10.6l-55.8-50.4
			c-3.3-3-5.3-7.3-5.5-11.8C176,313.3,177.5,309.2,180.3,306.1L180.3,306.1z"/>
	</g>
</g>
</svg>
