<svg width="128" height="128" viewBox="0 0 128 128" fill="none" xmlns="http://www.w3.org/2000/svg">
<circle cx="64" cy="64" r="64" fill="#55BB94"/>
<path d="M94.0248 68.5781C95.0289 67.4573 95.6406 65.978 95.6406 64.3594C95.6406 60.8705 92.8014 58.0312 89.3125 58.0312H77.0303C78.2467 54.3398 78.7656 49.4419 78.7656 47.3423V45.2344C78.7656 40.5825 74.98 36.7969 70.3281 36.7969H68.2188C67.2513 36.7969 66.4075 37.455 66.1727 38.3944L65.0238 42.9914C63.4136 49.4292 58.3019 56.5322 53.0116 57.8231C52.0848 55.4775 49.7969 53.8125 47.125 53.8125H34.4688C33.3044 53.8125 32.3594 54.7575 32.3594 55.9219V93.8906C32.3594 95.055 33.3044 96 34.4688 96H47.125C49.6408 96 51.8177 94.5248 52.8372 92.393L60.085 94.8089C62.4545 95.5992 64.9239 96 67.4228 96H85.0938C88.5827 96 91.4219 93.1608 91.4219 89.6719C91.4219 88.8492 91.2644 88.0617 90.9775 87.3403C93.6606 86.6077 95.6406 84.1481 95.6406 81.2344C95.6406 79.6158 95.0289 78.1364 94.0248 77.0156C95.0289 75.8948 95.6406 74.4155 95.6406 72.7969C95.6406 71.1783 95.0289 69.6989 94.0248 68.5781ZM49.2344 89.6719C49.2344 90.8348 48.288 91.7812 47.125 91.7812H36.5781V58.0312H47.125C48.288 58.0312 49.2344 58.9777 49.2344 60.1406V89.6719ZM85.0938 70.6875H89.3125C90.4755 70.6875 91.4219 71.6339 91.4219 72.7969C91.4219 73.9598 90.4755 74.9062 89.3125 74.9062H85.0938C83.9294 74.9062 82.9844 75.8512 82.9844 77.0156C82.9844 78.18 83.9294 79.125 85.0938 79.125H89.3125C90.4755 79.125 91.4219 80.0714 91.4219 81.2344C91.4219 82.3973 90.4755 83.3438 89.3125 83.3438H85.0938C83.9294 83.3438 82.9844 84.2887 82.9844 85.4531C82.9844 86.6175 83.9294 87.5625 85.0938 87.5625C86.2567 87.5625 87.2031 88.5089 87.2031 89.6719C87.2031 90.8348 86.2567 91.7812 85.0938 91.7812H67.4228C65.3781 91.7812 63.3573 91.4536 61.4181 90.8067L53.4531 88.1517V62.0503C56.762 61.4217 60.0006 59.3264 62.9242 55.8966C65.7789 52.5469 68.0936 48.1059 69.1159 44.0152L69.8655 41.0156H70.3281C72.6541 41.0156 74.5469 42.9084 74.5469 45.2344V47.3423C74.5469 50.1745 73.6609 55.6069 72.5275 58.0312H68.2188C67.0544 58.0312 66.1094 58.9762 66.1094 60.1406C66.1094 61.305 67.0544 62.25 68.2188 62.25H89.3125C90.4755 62.25 91.4219 63.1964 91.4219 64.3594C91.4219 65.5223 90.4755 66.4688 89.3125 66.4688H85.0938C83.9294 66.4688 82.9844 67.4137 82.9844 68.5781C82.9844 69.7425 83.9294 70.6875 85.0938 70.6875Z" fill="white"/>
<path d="M42.9062 87.5625C44.0712 87.5625 45.0156 86.6181 45.0156 85.4531C45.0156 84.2881 44.0712 83.3438 42.9062 83.3438C41.7413 83.3438 40.7969 84.2881 40.7969 85.4531C40.7969 86.6181 41.7413 87.5625 42.9062 87.5625Z" fill="white"/>
<path d="M72.4375 24C71.2726 24 70.3281 24.9444 70.3281 26.1094V30.4688C70.3281 31.6337 71.2726 32.5781 72.4375 32.5781C73.6024 32.5781 74.5469 31.6337 74.5469 30.4688V26.1094C74.5469 24.9444 73.6024 24 72.4375 24Z" fill="white"/>
<path d="M63.4882 33.3021L60.5051 30.319C59.6815 29.4952 58.3458 29.4952 57.522 30.319C56.6982 31.1428 56.6982 32.4783 57.522 33.3021L60.5051 36.2852C61.3287 37.1088 62.6645 37.1089 63.4882 36.2852C64.312 35.4614 64.312 34.1259 63.4882 33.3021Z" fill="white"/>
<path d="M87.353 30.319C86.5294 29.4952 85.1937 29.4952 84.37 30.319L81.3869 33.3019C80.5631 34.1257 80.5631 35.4612 81.3869 36.285C82.2105 37.1088 83.5462 37.1089 84.37 36.2852L87.353 33.3021C88.1768 32.4783 88.1768 31.1428 87.353 30.319Z" fill="white"/>
</svg>
