<?xml version="1.0" encoding="utf-8"?>
<!-- Generator: Adobe Illustrator 23.0.3, SVG Export Plug-In . SVG Version: 6.00 Build 0)  -->
<svg version="1.1" id="OBJECTS" xmlns="http://www.w3.org/2000/svg" xmlns:xlink="http://www.w3.org/1999/xlink" x="0px" y="0px"
	 viewBox="0 0 500 500" style="enable-background:new 0 0 500 500;" xml:space="preserve">
<style type="text/css">
	.st0{fill:#6F8F94;}
	.st1{fill:#EB4706;}
	.st2{fill:#000080;}
	.st3{fill:#A7A7AB;}
	.st4{fill:none;}
	.st5{fill:#FFA77E;}
	.st6{fill:#696B70;}
	.st7{fill:#FFEFC7;}
	.st8{fill:#7CD3D2;}
	.st9{fill:#F98F29;}
</style>
<path class="st0" d="M395.7,374.7C395.7,374.6,395.7,374.6,395.7,374.7C395.7,374.6,395.7,374.6,395.7,374.7
	C395.7,374.6,395.7,374.6,395.7,374.7z"/>
<path class="st1" d="M396.5,374.9L396.5,374.9c0,0.2,0,0.3-0.1,0.5c0.1-0.1,0.3-0.1,0.4-0.2l0,0C396.7,375.1,396.6,375,396.5,374.9z
	"/>
<g>
	<g>
		<path class="st2" d="M149.7,437.7c-2.6-0.6-4.1-2.4-5.6-4.2c-1.8-2.2-3.3-4.7-5-7c-2.7-3.9-2.6-3.8-6.7-1.3
			c-0.8,0.5-1.6,1.6-2.8,0.5c-1.3-1.2-3.1-2.1-3.7-3.5c-0.9-2.2-2.2-1.8-3.8-1.4c-1.2,0.2-2,0.1-1.9-1.5c0.1-5.7,0-11.4,0.3-17
			c0.5-9.5,0.1-18.9-0.7-28.3c-0.1-1.6-3.3-4.5-4.5-4c-2,0.9-3.6,0.1-5.3-0.7c-2.4-1-4.6-2.5-7.5-2.2c-1,0.1-2-0.6-2.5-1.3
			c-1.6-2-4.1-2.3-6.1-3.5c-0.4-0.2-1-0.6-1.3,0c-0.8,1.5-1.8,0.6-2.8,0.4c-2.1-0.4-8.5,1.7-9.4,3.6c-1.4,3-3.3,3.9-6.2,2.7
			c-1.4-0.6-1.6,0.7-2.3,1.3c-0.8,0.7-0.1,1.2,0.3,1.6c1.3,1.4,1.6,3.2,2,4.9c0.2,0.8,0.3,1.8,1.1,2.1c2.9,0.7,2.2,2.7,1.7,4.6
			c-0.2,0.8,0.1,2.6-1.8,1.7c-1.1-0.5-3.7,0.4-2.6-2.5c0.5-1.2,0.1-1.8-1.3-1.5c-1.9,0.4-3.9,0.6-5.8,0.9c-0.5,0.1-1.1,0.4-1.6,0.6
			l1.3,6.6c1.7,1.8,4,2.6,6.2,3.3c1.4,0.5,2.5-0.9,3.8-1.3c0.3-0.1,0.6-0.4,0.9,0c0.2,1.5-0.4,2.9-0.3,4.4c0.1,1.9-0.5,2.6-2.4,1.9
			c-0.9-0.4-1.5,0.1-2.1,0.8c-1.1,1.7-2.4,1.7-3.8,0.3c-0.6-0.6-1.4-1.5-2.1-0.1c-1,1.9-2.7,2.9-4.4,3.7c-1.9,0.9-2,2-1,3.6
			c0.6,1,1.4,2.1-0.1,3.2c-0.6,0.4-0.1,0.9,0.1,1.3c0.9,2.1,2,3.8,4.7,4c2,0.2,3,2.4,2,4.1c-0.5,1-0.4,1.9-0.2,2.7
			c1.5,0.7,3-1.8,4.4,0.6c1.8,3.1,1.9,3.1,5.4,1.9c0.4-0.1,0.8-0.2,1.2-0.3c0.2,0,0.4-0.1,0.5-0.1c-0.1,0.1-0.2,0.3-0.2,0.4
			c-1.2,1.8-2.7,3.5-2.9,5.8c-0.1,0.9-0.8,1.2-1.4,1.5c-3.2,1.5-6.5,2.7-9.1,5.3c-0.5,0.6-1.1,0.6-1.7,0.2c-1.1-0.7-2.1-0.3-3.2,0.3
			c-1.9,1.2-4,1.9-6.3,1.6c-1-0.1-2.1,0-2.4,1.3c1.4,0.3,2.7-0.2,4-0.3c11.9-0.9,22.4-5.4,31.5-13c1.6-1.3,0.9-1.7-1-2.1
			c4.4-3.2,7.8-7.2,12.8-10c-0.8,2.3-0.8,2.3-1.7,2.8c-0.2,0.1-0.5,0.1-0.7,0.3c-1.6,0.9-2.1,2.6-1.5,4.5c0.3,0.9-1.5,0.9-1,2.2
			c2.6-0.7,5-1.9,7.7-2.3c0.8-0.1,1.1-0.9,1.1-1.5c-0.1-4.1,2.5-2.8,4.7-2.6c1.7,0.2,2.7,1.5,3.8,2.5c1.7,1.5,3.4,2.5,5.7,1.6
			c0.7-0.2,1.4-0.2,2.2,0.1c4.2,1.8,8.3,3.8,12,6.7c1.6,1.3,2.8,2.7,3.7,4.5c2.5,4.8,6.2,8.7,9.9,12.6c2.5,2.6,5.1,1,7.8,0.7
			c0.5-0.1,0.6-0.5,0.8-0.9C154,442.6,152.5,438.4,149.7,437.7z"/>
	</g>
	<g>
		<path class="st3" d="M244.8,438c-0.7-0.7-2.1-0.9-2.1-2.2c0-1.2-0.8-1.7-1.7-2.2c-2-1-4.1-2-6.2-3c-0.4-0.2-0.7-0.5-1.1-0.2
			c-0.4,0.3-0.1,0.7,0,1.1c0.1,0.9,1.1,1.9-0.1,2.6c-2.1,1.3-1.7,3.1-0.7,4.8c0.8,1.6,1.1,3.2,0.9,5c-0.1,1.1,0.7,1.3,1.5,1.6
			c0.9,0.3,1.4,0.1,1.7-0.7c0.5-1.3,1.6-1.8,2.8-2.3c1.5-0.6,3.1-1.1,4.6-1.6c0.9-0.3,1.4-0.7,1.6-1.7
			C246,438.6,245.3,438.5,244.8,438z"/>
		<path class="st3" d="M225.6,421.1c-0.4-0.3-1-1.2-1.5-0.1c-0.3,0.8-0.1,1.6,0.8,1.7c1.2,0,1.7,0.6,2,1.7c0.5,1.3,1.5,1,2.4,0.6
			c0.9-0.4,1.9-0.4,2.4-1.6c-0.4-0.3-0.8-0.5-1.1-0.8C229.4,420.9,227.1,422.3,225.6,421.1z"/>
		<path class="st3" d="M208.4,412.4c-0.9,0.4-2.6,1-2.5,1.4c0.2,2.7,2.4,2.7,4.5,2.8c0.4,0.1,0.9,0.4,1.1-0.3
			C211.6,416,208.7,412.3,208.4,412.4z"/>
		<path class="st3" d="M190.6,405.7c-1.2,0.3-2.9,0.3-3.1,1.9c-0.1,1.2,1.3,1.7,2.3,1.8c1.3,0,2.3-0.7,2.4-2.8
			C192.2,406,191.5,405.5,190.6,405.7z"/>
		<path class="st3" d="M223,420.5c0.2-1-0.7-0.9-1.2-1.1c-0.8-0.2-1.6-0.3-2.4-0.5c-1.7-0.6-2.2,0.1-2.1,2.1
			c1.5-0.7,2.6-0.3,3.8,0.3C221.8,421.6,222.7,421.6,223,420.5z"/>
		<path class="st3" d="M219.6,422c0.4,0.9,0.9,1.6,1.1,2.5c0.1,0.6,0.4,1.2,1.1,0.7c0.5-0.4,1.7-0.5,1.3-1.4
			C222.5,422.5,221.4,421.6,219.6,422z"/>
	</g>
</g>
<g>
	<path class="st3" d="M254.9,222c0-0.3-0.1-0.6-0.1-0.9c0,0,0,0,0,0c0,0,0,0,0,0c-0.1-0.3-0.2-0.5-0.3-0.8c0,0-0.1,0-0.1,0
		c-1-1.7-3.1-2.8-2.9-5.2c0-0.1,0-0.1,0-0.2c0,0,0-0.1,0.1-0.1l0,0c0.1-0.6,0-1.1-0.4-1.6c-0.5-1-1.6-1.6-2.6-2.3
		c-0.2-0.1-0.4-0.1-0.5,0c0,0,0-0.1,0-0.1c-0.4,0.3-1,0.3-1.8,0.3c-16.7-0.5-33.3-1.1-50-1.6c-0.6,0-1-0.1-1.2-0.3c0,0-0.1,0-0.1,0
		c-0.4,0.2-0.7,0.4-0.9,0.8c-0.5,7.5-0.9,14.9-1.3,22.4c0,0.3-0.2,0.7-0.1,1.1c0,0.6,0,1.3-0.1,1.9c-0.1,0.7-0.2,1.4-0.1,2.2
		c-0.1,1.1-0.2,2.2-0.2,3.3c0,0.5-0.1,0.9-0.3,1.1c0.1,0.2,0.1,0.3,0.3,0.5c0,0,0.1,0.1,0.1,0.1c3.2,0.1,6.3,0.2,9.5,0.3
		c0.5,0.1,0.9,0.2,1.4,0.2c0.4,0,0.7,0,1,0l1.5,0c0.7,0,1.5-0.1,2.2-0.1c15.2,0.3,30.4,0.6,45.6,0.8c0.4,0,0.7,0.1,0.9,0.2
		c0-0.2,0-0.5,0-0.7c0.3-0.2,0.5-0.5,0.5-1.2C254.9,235.4,254.9,228.7,254.9,222z"/>
	<path class="st3" d="M313.7,220.6c-0.2-0.5-0.4-1.1-0.7-1.6c-0.2-2.9,0-5.7-0.3-8.6c-0.7-6-0.9-12-1.4-18c0-0.5-0.1-1,0.1-1.3
		c-0.1-0.3-0.2-0.6-0.3-0.9c-0.4-1.2-0.8-2.3-1.2-3.4c-0.6-1.5-1.2-3-1.5-4.5c-0.1-0.4-0.3-0.6-0.5-0.8c-0.1,0.1-0.1,0.2-0.2,0.3
		c-0.1,0.1-0.3,0.2-0.4,0.3c-0.2,0-0.5,0-0.7,0c-6.3,0.4-12.7,0.8-19,1.1c-0.4,0-0.7,0.1-0.8,0.3c-0.1,0.1-0.2,0.3-0.2,0.6
		c0.4-0.1,0.7,0.1,0.8,0.4c0.6,0.3,0.5,0.8,0.4,1.2c0.6,0,1.1,0.1,1.2,0.9c1.4,0.8,1.5,1.5,0.4,2.9c0.1,0.4,0,0.7-0.4,0.9
		c0,0.3-0.2,0.4-0.4,0.5c-0.1,0.6-0.2,1.1-0.3,1.7c0,0,0,0,0,0c-0.5,0.5-0.8,1.4-1.8,1.2c0.1,0.4-0.2,0.4-0.5,0.4c0,0,0,0,0,0
		c-0.9,0.7-1.8,0.8-2.9,0.8c0.1,0.3-0.1,0.5-0.4,0.4c0,0.7,0,1.4,0,2.1c1.6,0.9,1.5,2,0.4,3.3c0.1,0.6-0.1,1.1-0.8,1.3
		c0.3,0.5-0.1,0.7-0.4,1c-0.2,0.1-0.4,0.3-0.6,0.4l0,0.1l0-0.1c-0.1,0-0.1,0.1-0.2,0.1c-0.3,0.2-0.5,0.6-0.6,1l0,0
		c0.4,0.4,0.7,0.8,0.5,1.5c0,0.1-0.1,0.2-0.1,0.3c-0.2,0.3-0.6,0.4-0.9,0.4c0,0,0,0,0,0c0.1,0.3,0.1,0.6,0.1,0.9c0,0,0,0.1,0,0.1
		c0,0,0,0,0,0c-0.1,0.2-0.2,0.5-0.1,0.7c0,0.2,0,0.3,0,0.5c0,0.3,0,0.7,0.1,1c0.1,1,0.3,1.9,0.8,2.8c0,0,0,0,0,0.1
		c0.3,0.5,0.6,1,1,1.5c1.9,2,3.4,4.3,5.1,6.4c0.1,0.3,0.2,0.6,0.3,0.8c0,0,0,0,0,0.1c0.2,0.1,0.4,0.2,0.7,0.2
		c1.1,0.7,2.3-0.4,3.1,0.3c0.2,0.2,0.4,0.5,0.5,0.7c0.2,0.5,0.4,1.4,0.5,2.6c0,0.1,0,0.2,0,0.3c0,0.1,0,0.2,0,0.3
		c0,1.3-0.3,2.6,0,3.9c-0.3,1.1,0.9,2,1.8,2.5c0.9,0.5,2,0.7,2.9,1.2c0.1,0,0.1,0.1,0.2,0.1c0.1,0.1,0.1,0.1,0.2,0.1
		c0.2,0.2,0.4,0.4,0.5,0.6c0.1,0.6,0.3,1.2,0.6,1.8c0.1,1.1,0.2,2.3,0.4,3.2c0,0.1-0.1,0.2,0,0.3c0.3,0.6,0.4,1.2,1,1.7
		c0.1,0.1,0.4,0.2,0.6,0.1c0.1,0,0.2,0.1,0.3,0.1c0,0,0.1,0,0.1,0c0.1,0,0.2,0,0.3,0c-0.1-0.3-0.1-0.6-0.1-0.9
		c0.2-0.2,0.4-0.5,0.5-0.8c0.2-0.5,0.4-0.8,0.6-1c1.6-0.7,2.6,1.4,4.2,1.3h0.2c0,0,0,0,0,0c0.2-0.1,0.3-0.2,0.3-0.4
		c0.3-0.4,0.4-0.8,0.2-1.3c-0.8-1.8-0.1-2.6,1.7-2.8c0.7-0.1,1.1-0.5,1-1.2c-0.1,0-0.1-0.1-0.1-0.1c0.5-1,0.9-2.1,1-3.2c0,0,0,0,0,0
		c0,0,0,0,0,0c0-0.1,0-0.2,0-0.3c0.1-1.1,0.1-2.1,0.1-3.1c0.5-0.7,1.2-1.1,1.6-1.9c0.8-1.4,1.4-2.8,1.6-4.4
		C314,221.1,313.9,220.8,313.7,220.6z"/>
	<g>
		<path class="st3" d="M342,157.9c0,0-1,2.1-1,3.1c0-7.2,1-13.4-5.4-18.5c-0.1-0.1-0.2-0.1-0.3-0.2c0.4,0,0.8-0.1,1.1-0.5
			c0.3-0.3,0.4-0.7,0.3-1.2c-0.1-0.7-0.6-1.2-1.4-1.2c-0.2,0-0.5,0.1-0.7,0.1c-0.3,0.1-0.6,0.2-0.9,0.2c-0.8,0-1.4-0.5-2.2-1.5
			c-0.8-1.1-1.8-1.7-3.2-1.7c-0.4,0-0.8,0-1.3,0.1c-0.7,0.1-1.3,0.2-1.6,0.2c-0.3,0-0.4,0-0.8-1.8c-0.1-0.4-0.3-1.4-1.3-1.4
			c-0.2,0-0.5,0.1-0.8,0.2c-1.3,0.7-2.7,1-4.2,1.3c-1.1,0.2-2.2,0.5-3.2,0.9c-1.3,0.5-2.4,1.3-3.1,2.4c-0.9-0.5-1.8-0.7-2.6-0.7
			c-0.5,0-1,0.1-1.4,0.2c-0.2,0.1-0.4,0.1-0.5,0.1c-0.2,0-0.5,0-0.8-0.6c-0.9-1.4-2.2-2-3.4-2.6c-0.1-0.1-0.3-0.1-0.4-0.2
			c-0.5-0.2-0.9-0.3-1.4-0.3c-0.8,0-1.5,0.4-2.2,0.9c0.4-1.4,1.4-2.4,2.5-3.4c0.7-0.7,1.4-1.4,1.9-2.2c0.2-0.2,0.2-0.6,0.1-0.8
			c-0.1-0.3-0.4-0.4-0.7-0.5c-0.2,0-0.4,0-0.5,0c-2.2,0-3.5,1.2-4.8,2.3c-0.3,0.3-0.6,0.5-0.9,0.8c-3.5,2.8-7.5,5-12,7.3
			c-0.1,0.1-0.2,0.1-0.3,0.2c-0.1,0.1-0.1,0.2-0.1,0.3c-0.1,0.2,0,0.4,0.1,0.6c0,0,0,0,0,0c0.6,0.3,1.2,0.4,1.8,0.3
			c-0.1,0.4-0.1,0.7,0.4,0.8c-0.1,1,0.6,1.2,1.3,1.3c1.1,0.2,2.3,0.4,3.4,0.6c1.3,0.2,2.6,0.4,3.9,0.6c0.1,0.2,0.2,0.5,0.5,0.4
			c-0.1,0.4,0.1,0.7,0.5,0.8l0,0l0,0c0,0,0,0,0,0c2.1,0.9,4.8-0.3,6.6,2.3c0.6,0.9,1.4,1.3,1.1,2.5c-0.1,0.5-0.4,1.5-0.1,1.5
			c0.4,0,0.6,0.1,0.8,0.2c-4.5,3.9-7.2,10.8-6.7,16.8c0,0.1,0,0.2,0,0.4c6,2.8,10.2,6.8,10.2,13.8c0,2.2,2.7,8,2.7,8
			c3.3,0,6.5,1,9.2,2.7c9.5-1.3,21.1-0.6,24.7-9.6c0.5-1.1,0.8-2.4,1-3.9c0.9-0.8,1.6-1.7,2.1-2.5c0.5-0.9,0.9-1.8,1.1-2.7
			C349.2,168.2,349.2,158.9,342,157.9z"/>
		<path class="st4" d="M408.5,226.8C408.5,226.8,408.6,226.8,408.5,226.8c0.1-0.1,0.2-0.1,0.3-0.2
			C408.7,226.6,408.5,226.7,408.5,226.8C408.5,226.8,408.5,226.8,408.5,226.8z"/>
		<path class="st4" d="M301.7,313.9c-0.3,0-0.5-0.1-0.8-0.1c0,0,0,0.1,0,0.1c0,0.3,0.1,0.6,0.4,0.8c0.1,0,0.1,0.1,0.2,0.1
			c0,0,0,0,0,0c0.4,0.4,0.5,1,0.4,2c0,0,0.1,0,0.1-0.1c0.8-0.7,1.5-1.3,2.3-1.8c-0.3,0.1-0.5,0.2-0.8,0.2c-0.4,0-0.8-0.1-1.1-0.3
			c0.2-0.1,0.5-0.3,0.6-0.6c-0.2-0.1-0.5-0.3-0.7-0.5l0,0l0,0C302,313.8,301.8,313.8,301.7,313.9z"/>
		<path class="st4" d="M418,185.3c-0.1,0.1-0.1,0.4,0,0.5c0,0,0,0,0.1,0c0.1,0,0.3-0.1,0.5-0.2c0.3-0.2,0.6-0.3,0.8-0.4
			c-0.4-0.1-0.7-0.2-0.9-0.4C418.4,185.1,418.2,185.2,418,185.3z"/>
		<path class="st4" d="M296.8,315.7c0,0,0.1,0,0.2,0c0.4-0.1,0.9-0.3,1.3-0.4c0.2-0.1,0.3-0.1,0.5-0.2c0.2-0.1,0.3-0.1,0.5-0.2
			c0.3-0.1,0.5-0.3,0.8-0.3c-0.7-0.2-1.4-0.4-2.1-0.7c-0.2-0.1-0.4-0.1-0.6-0.1c-0.3,0-0.7,0.1-1.3,1.2c-0.1,0.1-0.1,0.3,0,0.5
			C296.3,315.5,296.5,315.7,296.8,315.7z"/>
		<path class="st3" d="M182.7,155.6c0,0.2,0,0.5-0.1,0.7c-0.5,6.1-0.9,12.1-1.5,18.2c-0.1,0.8,0,1.2,0.3,1.5
			c0.2,0.2,0.6,0.3,1.2,0.3c3.1,0,6.2,0.3,9.3,0.4c0.3,0,0.5,0,0.9,0.1c1.4,0.1,2.8,0.2,4.3,0.3l0,0c2.9,0.2,5.9,0.3,8.8,0.5
			c0,0,0.1,0,0.1,0c2.3,0,4.6,0.3,6.9,0.3c1.2,0,2.4,0,3.7,0l3.2,0.2c1.1,0.1,2.2,0.4,3.3,0.5c0.5,0,1.1,0.1,1.5,0.5
			c0.2,0.3,0.3,0.6,0.4,0.9c0.1,0.4,0.4,0.5,0.6,0.5c0.4-0.1,0.9-0.3,1.3-0.3c0.5-0.1,0.9-0.1,1.3,0.2c0.4,0.2,0.5,0.7,0.7,1.1
			c0.2,0.2,0.4,0.4,0.7,0.6c0.1,0,0.2,0,0.2,0c0.6,0,1.1-0.2,1.6-0.4c0.1,0,0.1-0.1,0.2-0.1c0.2-0.1,0.3-0.1,0.5-0.1
			c0,0,0.1,0,0.1,0c0.5-0.4,1-0.4,1.6,0c0.8,0.1,1.5,0.5,2.1,0.9c0.9,0.1,1.7,0.1,2.6,0.1c0.1,0,0.2,0,0.3,0c0-0.1,0-0.2,0-0.3
			c0-0.1,0-0.2,0-0.3c2-1.2,0.9-1.2,0.4-2.8c0-0.1,0.1-0.2,0.2-0.2c0,0,0.1-0.1,0.2-0.1c0.1-0.1,0.1-0.3,0.1-0.4c0-0.1,0-0.2,0-0.2
			c0-0.2,0.1-0.7,0-1.2c0-0.1,0-0.1,0-0.2c0.1-1.2,0.1-2.3,0.1-3.1c0-0.1-0.1-0.2-0.1-0.3c0-0.1,0-0.2-0.1-0.3
			c0.3-1.6,0.5-3.1,0.4-4.7c-0.2-3.9-0.1-7.8-0.1-11.8c0-0.8,0.1-1.5-0.4-2.2c-0.6-0.6-1.1-1.2-1.5-1.8c-0.5-1-0.5-2.1,0.7-3.4l0,0
			c0.1-0.5,0-0.8-0.2-0.9c0,0,0-0.1,0-0.1c0,0-0.1,0.1-0.1,0.1c-0.3-0.1-0.6,0-0.9-0.1c-11.3-0.6-22.5-1.1-33.8-1.7
			c-5.4-0.3-10.8-0.6-16.1-0.9c-0.2,0-0.5-0.2-0.7-0.3c-0.5,0-0.9-0.1-1.4-0.1c0,0,0,0,0,0c-0.8-0.1-1.2,0-1.4,0.3
			c-0.2-0.2-0.4-0.4-0.6-0.6c-0.1,0.1-0.1,0.1-0.2,0.2c0,0.2,0,0.4,0,0.6c-0.1,0.8-0.3,1.7-0.4,2.6c0,0,0,0,0,0c0,0.4,0,0.7-0.1,1.1
			c0,0.7-0.1,1.3-0.2,2c-0.2,0.8-0.3,1.6-0.3,2.3c0,0.6-0.2,0.9-0.4,1.1c0,0,0,0.1,0,0.1C182.3,155,182.5,155.2,182.7,155.6z"/>
		<path class="st3" d="M304.2,314.9c-0.7,0.6-1.5,1.2-2.3,1.8c0,0-0.1,0.1-0.1,0.1c0.1-1,0-1.6-0.4-2c0,0,0,0,0,0
			c-0.1,0-0.1-0.1-0.2-0.1c-0.3-0.2-0.4-0.5-0.4-0.8c0,0,0-0.1,0-0.1c0.3,0.1,0.5,0.1,0.8,0.1c0.2-0.1,0.4-0.2,0.6-0.3l0,0
			c0-0.2,0-0.4-0.1-0.6c0-0.4-0.1-0.7-0.2-0.7c-1.3-0.3-1.6-1.1-1.6-1.9c0-0.1,0-0.1,0-0.2c0-0.2,0-0.3,0-0.5c0-0.2,0-0.5,0-0.7
			c0-0.1,0-0.1,0-0.2c0-0.4,0-0.9-0.3-1.2c0-0.1-0.1-0.1-0.1-0.2c0-0.4,0.7-0.7,0.8-1.1c-0.2,0-0.4,0.1-0.4-0.2
			c-1.8,0.1-3.6,0.2-5.4,0.3c-0.7,0-1.5,0.5-2-0.3l-3.3,0c-1.7,1.1-3.7,0.6-5.6,0.8c-0.3-0.2-0.5-0.5-0.6-0.8c0,0,0-0.1,0-0.1
			c0.1-2.6,0.7-5.1,2-7.4c0,0,0,0,0,0l0,0l0,0l0,0l0,0c0.1-0.9,0.3-1.7,1.3-2.1c0.2-1.1-0.2-2.4,1.3-2.9c0.8-0.5,0.3-1.3,0.4-2
			c-0.5-0.1-0.5-0.5-0.4-0.8c-0.1-0.1-0.3-0.2-0.4-0.3c-0.4-1.5-0.4-3.4-1.5-4.3c0-0.1,0-0.2-0.1-0.3c-0.1,0-0.1,0.1-0.2,0.1
			c-1.1-0.7-3-0.2-4.6-0.1c-2,0-4,0.1-6,0.2c-0.5,0.1-0.9,0.1-1.4,0.2c-0.1,0-0.3,0-0.4,0c-0.8,0-1.6-0.1-2.5-0.1
			c-0.9,0-1.7,0-2.5,0.1c-0.4,0-0.9,0-1.3,0c-1.6,0-3.3,0.1-4.9,0c-0.4,0-0.6,0-0.8,0.1c0,0-0.1,0-0.1,0c0,0,0,0,0,0c0,0,0,0,0,0
			l-0.9-0.1c0.1,2,0.6,5.2,0.7,7.2c0.1,0.8,0.2,1.6,0.4,2.4c0.3,1.4,1,2.6,1.4,4c0.2,0.7,0.5,1.4,0.8,2.1c0,0,0,0,0.1,0.1
			c0,0,0,0,0,0c0,0,0,0,0,0c0,0,0,0,0,0c0.4,0.1,0.5,0.4,0.4,0.8c0,0,0,0-0.1,0c0,0.1,0.1,0.2,0.1,0.3c0-0.1,0-0.1,0-0.2
			c0.5,0.2,0.5,0.6,0.4,1c0.1,0.2,0.1,0.3,0.2,0.5c0,0.1,0.1,0.2,0.1,0.3c0.1,0.1,0.1,0.2,0.1,0.4c0.1,0.2,0.1,0.5,0.2,0.7
			c0.7,1.3,0.8,2.6,0.3,4c-0.3,1.1-0.9,2.2-0.9,3.3c-0.1,1.6,0.1,3.4-0.4,4.9c-0.3,1.1-1.4,3-1.4,3s-0.4,0.9-0.3,0.9
			c-0.1,0.2,0.2-0.1,0.1-0.1c0,0,0.1,0,0.1,0c0.1,0,0.1,0,0.2,0c0.7-0.1,1.4-0.3,2.1-0.4c1.1-0.2,2.2-0.4,3.2-0.6
			c0.3-0.1,0.6-0.1,0.9-0.1c0.4,0,0.8,0.1,1.2,0.3c2.5,1.1,5.2,1.7,8.3,1.7c0.3,0,0.6,0,0.9,0c0.3,0,0.6-0.2,0.7-0.5
			c0.3-0.6,0-1.1-0.3-1.4c0.1-0.1,0.3-0.2,0.4-0.3c0.2-0.2,0.5-0.4,0.6-0.6c0.5,0.4,1.1,0.5,1.6,0.6c1,0.2,1.2,0.3,1.3,1
			c0.1,0.7,0.9,1.4,1.6,1.4c0,0,0,0,0.1,0c0.1,0,0.1,0,0.2,0c1,0,1.5,0.6,2.2,1.6c0.2,0.3,0.4,0.6,0.7,0.9c0.8,0.9,1.8,1.3,2.9,1.3
			c1,0,2-0.4,2.8-1.1c0.4-0.3,0.8-0.5,1.2-0.5c0.3,0,0.5,0.1,0.7,0.4c0.3,0.5,0.9,1.1,1.6,1.1c0.9,0,1.3-1,1.6-1.6
			c0.2-0.5,0.2-1,0.1-1.4c0-0.2,0-0.4,0-0.5c0-0.2,0.1-0.3,0.2-0.3c0.7,1,1.8,1.5,2.7,1.8c1.2,0.5,1.9,0.8,2.2,1.7
			c0.2,0.6,0.7,0.9,1.2,0.9c0.4,0,0.8-0.2,1-0.3c0.5-0.3,1-0.5,1.5-0.8l0.8-0.4c0.3-0.1,0.5-0.4,0.4-0.7c0-0.3-0.2-0.6-0.5-0.7
			c-0.6-0.3-1.3-0.6-1.9-0.8c-1.4-0.6-2.6-1.1-3.6-2c-0.5-0.5-0.5-0.7-0.5-0.7c0,0,0.1-0.2,0.4-0.3c0.7-0.4,1.1-0.9,1.5-1.4
			c0.4-0.5,0.8-0.9,1.3-1.2c1-0.4,1.2-1.3,0.7-2.5c0-0.1-0.1-0.2-0.1-0.3c-0.1-0.7-0.6-1.1-1.3-1.1c-0.2,0-0.4,0-0.5,0.1
			c-0.1,0.1-0.2,0.1-0.3,0.2C304.8,314.6,304.5,314.8,304.2,314.9z M296.1,314.8c0.6-1.1,1-1.2,1.3-1.2c0.2,0,0.4,0,0.6,0.1
			c0.7,0.3,1.4,0.5,2.1,0.7c-0.3,0.1-0.6,0.2-0.8,0.3c-0.2,0.1-0.3,0.2-0.5,0.2c-0.2,0.1-0.3,0.1-0.5,0.2c-0.5,0.2-0.9,0.4-1.3,0.4
			c-0.1,0-0.1,0-0.2,0c-0.3,0-0.6-0.1-0.7-0.4C296,315.1,296,315,296.1,314.8z"/>
		<path class="st3" d="M265.5,305.9c-0.1-0.2-0.1-0.5-0.2-0.7c0-0.1,0-0.3-0.1-0.4c0-0.1-0.1-0.2-0.1-0.3c-0.1-0.2-0.1-0.3-0.2-0.5
			c0.1-0.4,0.1-0.8-0.4-1c0,0.1,0,0.1,0,0.2c0-0.1-0.1-0.2-0.1-0.3c0,0,0,0,0.1,0c0.1-0.4,0-0.7-0.4-0.8c0,0,0,0,0,0c0,0,0,0,0,0
			c0,0,0,0,0,0c0,0,0,0-0.1-0.1c-0.3-0.7-0.6-1.4-0.8-2.1c-0.4-1.4-1.1-2.6-1.4-4c-0.2-0.8-0.3-1.6-0.4-2.4c-0.1-2-0.6-5.2-0.7-7.2
			c0-0.7,0.5,0.3,0.9,0.1c0,0,0,0,0,0c0,0,0,0,0,0c-0.4-0.2-0.6-0.4-0.8-0.8c0-0.7,0-1.3,0-2c0-0.6-0.1-1.3,0-1.9
			c0.1-0.3,0-0.6-0.1-0.9c-1.1-1-2.7-1.2-4.1-1.3c-0.1,0.1-0.1,0.1-0.3,0.1c-0.1,0-0.1,0-0.2,0c-0.3,0-0.5-0.2-0.6-0.4
			c-0.4-0.2-0.8-0.4-1.2-0.7c0,0,0,0,0,0c-0.5-0.2-1-0.4-1.5-0.7c-0.4-0.2-0.9-0.3-1.3-0.4c-0.1,0-0.1-0.1-0.2-0.2
			c-0.7-0.2-1.5-0.2-2.3,0.3c-0.1,0.1-0.3,0.1-0.6,0.1c-1,0.1-2,0.1-3.1,0.2c-0.1,0-0.2,0-0.3,0c-0.3,0.1-0.6,0.1-0.8,0.1
			c-0.8,0.1-1.6,0.3-2.3,0.5c-0.3,0.2-0.6,0.4-1.1,0.3c0,0,0,0,0,0c-0.4,0.1-0.8,0-1.2-0.1c-0.4-0.1-0.8-0.3-1.2-0.5
			c-0.5-0.1-0.9-0.1-1.5-0.1c-0.1,0-0.1,0-0.2,0c-0.2,0.1-0.4,0-0.6-0.1c-0.1,0-0.2-0.1-0.2-0.1c-0.4-0.2-1-0.4-1.4-0.3
			c-0.1,0.2-0.2,0.3-0.4,0.4c0-0.1,0-0.1,0-0.2c0,0.1-0.1,0.1-0.1,0.2c0,0,0,0,0,0.1c0,0,0.1,0,0.1,0c0,0.3,0,0.6-0.2,0.8
			c-0.1,0-0.1,0.1-0.2,0.1c-0.1,0-0.2,0.1-0.3,0.1s-0.2,0-0.3-0.1c-0.1,0-0.1-0.1-0.2-0.1c0-0.1,0-0.3,0-0.5c-0.3-0.5-0.6-0.9-1.3-1
			c-0.4,0-0.7-0.1-1-0.3c-0.8-0.4-1.4-0.6-2,0.2c-0.2,0.2-0.4,0.3-0.6,0.5c-0.2,0.1-0.4,0.2-0.7,0.2c-0.8-0.1-1-0.6-1.2-1.1
			c-0.2-0.3-0.5-0.6-0.8-0.8c-0.1,0-0.1-0.1-0.2-0.2c-0.2-0.1-0.4-0.3-0.6-0.4c-2.4-1.2-5.3-1.6-7.9-2.3c-2.2-0.6-4.8-1.1-6.7-2.4
			c-0.7-0.5-1.1-1-1.4-1.6c-0.3-0.3-0.3-0.6-0.3-0.9c-0.1-0.8-0.1-1.6,0.1-2.5c0,0,0,0,0,0c0.1-3.9,0.2-7.9,0.4-11.8
			c0-0.4,0-0.7,0-1.1c0.6-3.7,0.6-3.7-3-4c-6.2-0.5-12.5-0.9-19-1.3c-0.8,0-1.6-0.1-2.4-0.1c-0.1,0.1-0.2,0.1-0.3,0.2c0,0,0,0-0.1,0
			c0,0,0,0.1,0,0.1c-0.7,0.9-0.1,2.3-0.6,3.2c-0.1,1-0.1,1.9-0.2,2.9c-0.1,1.2-0.2,2.3-0.2,3.5v0c-0.6,2.6-0.1,5.2-0.8,7.8
			c0,0.7-0.1,1.3-0.1,2c-0.4,5.7-0.7,11.4-1.5,17.1c0,0.7,0,1.5,0,2.2c-0.2,2.5-0.6,5-0.6,7.4c0,0.3,0,0.5-0.1,0.7
			c-0.3,0.4-0.7,0.7-1.3,0.9c-0.2,0-0.4,0-0.6,0c-8.3-0.8-16.6-1.6-25-2.4c-1.4-0.1-2.8-0.1-4.3-0.1c-0.2,0-0.3,0-0.5,0
			c-0.2,0-0.3,0-0.4,0.2c-0.1,0.1-0.2,0.2-0.3,0.3c-0.1,0.2,0,0.4,0.2,0.6c-0.1,0.3-0.2,0.5-0.5,0.7c0.1,0.1,0.2,0.2,0.4,0.2
			c0.7,0.2,1,0.8,1.5,1.7c0.3,0.5,0.6,1,1,1.5c1,1,1.9,2.2,2.8,3.2c2.1,2.5,4.3,5.1,7.1,7c1,0.7,1.3,1.8,1.7,3
			c0.3,0.9,0.5,1.8,1,2.6c0,0.1,0,0.1-0.1,0.2l0,0.1c-0.7,2.1,0,4.2,2,5.9c3.6,3,6.7,5.2,9.8,6.9c0.6,0.3,1.2,0.5,1.7,0.5
			c0.8,0,1.6-0.4,2.4-1.1c1.1-1,1.5-2.2,2-3.4c0.2-0.5,0.4-0.9,0.6-1.4c0.1-0.2,0.2-0.4,0.3-0.7c0.1-0.4,0.2-0.6,0.3-0.7
			c0.3-0.1,0.6-0.2,0.9-0.2c0.3,0,0.6-0.1,0.8-0.1c6.7-0.7,12.5,5.8,15.8,11.2c0.8,1.3,1.6,2.4,2.6,3.4c1.4,2.5,3,4.9,4.7,7.2
			l0.5,0.6c0.2,0.3,0.4,0.6,0.7,0.8c0.2,0.6,0.4,1.1,0.6,1.7c0.4,0.9,0.9,1.7,1.4,2.5c0.8,3.3,2.2,6.1,3.4,8.2l0.1,0.1
			c0.2,0.4,0.5,0.9,1.2,1.2c1.3,0.5,2.5,1.1,3.8,1.7c2,1,4,2.1,6.4,2.5c1.7,0.2,3,0.5,4.1,1.5c0.4,0.4,0.8,0.5,1.2,0.5
			c0.8,0,1.2-0.6,1.4-1c0.1-0.1,0.1-0.2,0.2-0.3c0.7-0.2,1-0.6,1-0.9c0.2-0.7-0.4-1.2-0.7-1.5c-0.8-1.2-1.1-2.5-1.4-4
			c-0.2-0.8-0.3-1.7-0.6-2.5c0.2-0.5,0.3-1,0.3-1.5c0.3-3.4,2.5-7.4,3.8-10.5c1.6-3.8,5.8-4.3,8.4-6.9c0.1,0,0.1-0.1,0.2-0.1
			c2.7-0.9,5.4-1.8,7.4-3.9c0.3-0.3,0.8-0.7,1.2-1c1.6-1.3,3.7-3,2.5-6.2c0-0.1,0-0.1,0-0.2c0.1-0.1,0.5-0.3,0.7-0.3
			c0.1,0,0.2-0.1,0.2-0.1c0.2,1.8,1.5,1.9,1.9,1.9c0.7,0,1.5-0.4,1.9-0.6c1.2-0.6,2.5-1.1,4.3-1.4c0.1,0,0.2-0.1,0.3-0.1
			c0.1-0.1,0.1-0.8,0.1-0.8c0.5-1,1.1-2,1.4-3c0.5-1.5,0.3-3.3,0.4-4.9c0-1.2,0.7-2.2,0.9-3.3C266.3,308.5,266.2,307.1,265.5,305.9z
			"/>
		<path class="st5" d="M240.5,279.2C240.6,279.2,240.6,279.2,240.5,279.2c0.3,0,0.3-0.2,0.2-0.4c-0.1,0-0.3,0-0.4,0
			C240.3,279,240.4,279.2,240.5,279.2z"/>
		<path class="st3" d="M255.8,279c0-0.1,0-0.1,0-0.2c0,0,0.1,0,0.1,0c0.2-0.1,0.3-0.3,0.3-0.7c0-1.4,0-2.9,0-4.3c0-0.3,0-0.5,0-0.8
			c0-0.1,0-0.2,0-0.3c0-0.3,0-0.5,0-0.8c0.4-4.4,0.4-8.8,0.2-13.2l0,0c-0.2-1.3-0.6-2.5-0.8-3.8c-0.2-1.1-0.2-2.3-0.4-3.5
			c0-0.2-0.1-0.5-0.1-0.7c0,0,0,0,0-0.1c0,0,0,0,0,0c-0.1-0.7-0.2-1.4-0.2-2.1c-0.1-1.1-0.1-2.2,0-3.3c0-0.7-0.1-1-0.5-1.2
			c-0.2-0.1-0.5-0.2-0.9-0.2c-15.2-0.2-30.4-0.5-45.6-0.8c-0.7,0-1.5,0.1-2.2,0.1l-1.5,0c-0.3,0-0.7,0-1,0c-0.5,0-0.9-0.1-1.4-0.2
			c-3.2-0.1-6.3-0.2-9.5-0.3c-1.5,0-2.9-0.1-4.4-0.1c-0.3,0-0.7,0.1-1,0c-1.2-0.5-1.9-0.4-2.4,0.1c-0.1,0-0.1,0-0.2,0
			c0,0.1,0,0.2,0,0.2c-0.3,0.5-0.4,1.2-0.5,1.9c-0.1,0.7-0.2,1.5,0.3,2c0,0.1,0,0.1,0,0.2c0,0.2-0.1,0.5-0.1,0.7c0,0,0,0,0.1,0
			c0.1-0.1,0.2-0.2,0.3-0.2c0.8,0,1.6,0.1,2.4,0.1c6.6,0.5,12.8,0.9,19,1.3c3.7,0.3,3.7,0.3,3,4c0,0.4,0,0.7,0,1.1
			c-0.1,3.9-0.3,7.9-0.4,11.8c0,0,0,0,0,0c-0.2,0.9-0.3,1.7-0.1,2.5c0,0.3,0,0.7,0.3,0.9c0.3,0.6,0.7,1.1,1.4,1.6
			c1.9,1.4,4.4,1.8,6.7,2.4c2.6,0.7,5.5,1.1,7.9,2.3c0.2,0.1,0.5,0.3,0.6,0.4c0.1,0.1,0.1,0.1,0.2,0.2c0.3,0.2,0.5,0.5,0.8,0.8
			c0.2,0.6,0.4,1.1,1.2,1.1c0.3,0,0.5-0.1,0.7-0.2c0.2-0.1,0.4-0.2,0.6-0.5c0.6-0.8,1.2-0.6,2-0.2c0.3,0.1,0.6,0.3,1,0.3
			c0.7,0.1,1,0.5,1.3,1c0,0.2,0,0.3,0,0.5c0.1,0,0.1,0.1,0.2,0.1c0.1,0,0.2,0.1,0.3,0.1s0.2,0,0.3-0.1c0.1,0,0.1-0.1,0.2-0.1
			c0.1-0.2,0.2-0.4,0.2-0.8c0,0-0.1,0-0.1,0c0,0,0,0,0-0.1c0-0.1,0-0.1,0.1-0.2c0,0.1,0,0.1,0,0.2c0.1-0.1,0.2-0.3,0.4-0.4
			c0.4-0.1,1.1,0.2,1.4,0.3c0.1,0,0.2,0.1,0.2,0.1c0.2,0.1,0.4,0.2,0.6,0.1c0.1,0,0.1,0,0.2,0c0.5,0,1,0,1.5,0.1
			c0.4,0.2,0.8,0.4,1.2,0.5c0.4,0.1,0.8,0.2,1.2,0.1c0,0,0,0,0,0c0.4,0.1,0.8-0.1,1.1-0.3c0.7-0.2,1.5-0.4,2.3-0.5
			c0.3,0,0.6,0,0.8-0.1c0.1,0,0.2,0,0.3,0c1-0.1,2-0.1,3.1-0.2c0.2,0,0.4,0,0.6-0.1c0.9-0.5,1.6-0.5,2.3-0.3c0,0.1,0.1,0.2,0.2,0.2
			c0.4,0.1,0.9,0.3,1.3,0.4c0.5,0.2,1,0.5,1.5,0.7c0,0,0,0,0,0c0.4,0.2,0.7,0.5,1.2,0.7c0.1,0.2,0.3,0.4,0.6,0.4
			C255.9,279.4,255.8,279.3,255.8,279L255.8,279z"/>
		<path class="st3" d="M147.7,293.9c-0.2-0.1-0.2-0.4-0.2-0.6c0.1-0.2,0.2-0.3,0.3-0.3c0.1-0.2,0.2-0.2,0.4-0.2c0.1,0,0.3,0,0.5,0
			c1.4,0,2.9-0.1,4.3,0.1c8.3,0.8,16.7,1.5,25,2.4c0.2,0,0.4,0,0.6,0c0.6-0.2,1-0.5,1.3-0.9c0-0.2,0.1-0.4,0.1-0.7
			c0.1-2.5,0.4-5,0.6-7.4c0-0.7,0-1.5,0-2.2c0.9-5.7,1.1-11.4,1.5-17.1c0-0.7,0.1-1.3,0.1-2c0.7-2.5,0.2-5.2,0.8-7.8v0
			c0.1-1.2,0.2-2.3,0.2-3.5c0.1-1,0.1-1.9,0.2-2.9c0.5-0.9-0.1-2.4,0.6-3.2c0,0,0-0.1,0-0.1c0-0.2,0.1-0.5,0.1-0.7
			c0-0.1,0-0.1,0-0.2c-0.5-0.4-0.4-1.3-0.3-2c0.1-0.7,0.2-1.4,0.5-1.9c0-0.1,0-0.2,0-0.2c-0.3,0-0.6,0-0.9,0
			c-0.2-0.4-0.6-0.6-1.5-0.5c-0.4,0-0.8-0.1-0.9-0.7c-0.5,0.1-1.1,0.2-1.6,0.2c-5.3-0.6-10.5-1.1-15.8-1.7c-4.6-0.5-9.2-1-13.8-1.6
			c-0.7-0.1-0.8-1.3-1.3-2.1c-0.4,0.1-1.6,1.6-2,1.6c-4-0.4-7.9-0.8-11.9-1.3c-0.5-0.1-1.3,0-1.5-0.1c0,0,0,0-0.1,0
			c0,0.1-0.1,1-0.2,1.4c-0.1,0.7-0.1,1.4-0.3,2.1c0,1.7-0.6,3.4-0.7,5.1c-0.1,1.8-0.5,3.6-0.8,5.3c0,0,0,0.1,0,0.1
			c-0.2,1.8-0.5,3.6-0.7,5.4c0,0,0,0-0.1,0c0,0.1,0,0.3-0.1,0.4c-0.3,1.4-0.3,2.9-0.5,4.3c0,0.1,0,0.2,0,0.3
			c-1.6,11.2-3.1,22.4-4.7,33.7c-0.1,0.5-0.1,0.9,0.1,1.1c-0.1,0.3-0.3,0.5-0.5,0.7c0.4,0.5,1,0.6,1.5,0.6c1.6,0.1,3.1,0.3,4.6,0.6
			c0.3,0,0.5,0.1,0.7,0.1c0.5,0,1-0.2,1.3-0.5c0.5-0.5,0.5-1.2,0.5-1.6c0-0.2,0-0.5,0.1-0.7c0.1-0.3,0.2-0.7,0.1-1.2
			c0-0.3,0-0.4,0-0.5c0,0,0.1,0,0.2,0c0.1,0,0.3,0,0.5,0c2.9,0.4,5.9,0.7,8.9,1l2.5,0.3c0.1,0,0.1,0,0.2,0c0.2,0,0.4,0.1,0.6,0.1
			c0.3,0,0.5-0.1,0.7-0.2C147.4,294.5,147.6,294.2,147.7,293.9z"/>
		<path class="st2" d="M84.2,256.9c-0.1-0.1-0.2-0.2-0.3-0.3c-0.3-0.1-0.4-0.3-0.4-0.7c-0.3-1.1-1-1.7-1.1-2.9c0-0.2,0-0.4,0-0.5
			c-0.2-1.1-0.2-2.1-0.4-3.2c-0.1-0.3-0.1-0.5-0.2-0.8c-0.4,0.1-0.4-0.2-0.4-0.5c-0.1-0.3-0.2-0.6-0.4-0.9c-0.2-0.5-0.6-0.9-1-1.3
			c0,0,0,0,0,0c-0.3-0.1-0.7-0.2-0.7-0.7c-0.5-0.3-0.7-0.7-0.8-1.2c-0.5-0.3-0.7-0.7-0.8-1.2c-0.5-0.3-0.7-0.7-0.8-1.2
			c-0.5-0.3-0.7-0.7-0.8-1.2c-0.4-0.2-0.5-0.4-0.4-0.8c-0.6-0.2-0.9-0.6-0.8-1.2c-0.7-0.2-0.9-0.6-0.8-1.2c-0.7-0.1-0.9-0.6-0.8-1.2
			c-0.4,0.1-0.4-0.2-0.4-0.5c-0.1-0.4-0.3-0.8-0.5-1.2c-0.2-0.4-0.5-0.7-0.8-1h0c-0.3-0.1-0.7-0.2-0.7-0.7c-0.5-0.3-0.7-0.7-0.8-1.2
			c-0.5-0.3-0.7-0.7-0.8-1.2c-0.5-0.3-0.7-0.7-0.8-1.2c-0.5-0.3-0.7-0.7-0.8-1.2c-0.4-0.2-0.5-0.4-0.4-0.8c-0.6-0.2-0.9-0.6-0.8-1.2
			c-0.7-0.2-0.9-0.6-0.8-1.2c-0.7-0.1-0.9-0.6-0.8-1.2c-0.4,0.1-0.4-0.2-0.4-0.5c-0.2-0.3-0.4-0.6-0.5-0.9h0
			c-0.3-0.1-0.7-0.2-0.7-0.6c-0.5-0.3-0.7-0.7-0.8-1.2c-0.5-0.3-0.7-0.7-0.8-1.2c-0.5-0.3-0.7-0.7-0.8-1.2c-0.5-0.3-0.7-0.7-0.8-1.2
			c-0.5-0.3-0.8-0.7-0.8-1.2c-0.4-0.2-0.5-0.4-0.4-0.8c-0.6-0.2-0.9-0.6-0.8-1.2c-0.7-0.2-0.9-0.6-0.8-1.2c-0.7-0.1-0.9-0.6-0.8-1.2
			c-0.4,0.1-0.4-0.2-0.4-0.5c-0.1-0.2-0.1-0.4-0.2-0.6c-0.3-0.6-0.6-1.1-1.1-1.5l0,0c-0.3-0.1-0.7-0.2-0.7-0.7
			c-0.5-0.3-0.7-0.7-0.8-1.2c-0.5-0.3-0.7-0.7-0.8-1.2c-0.5-0.3-0.7-0.7-0.8-1.2c-0.5-0.3-0.8-0.7-0.8-1.2c-0.4-0.2-0.5-0.4-0.4-0.8
			c-0.6-0.2-0.9-0.6-0.8-1.2c-1.3-0.6-1.3-1.6-1-2.9c2.4-9.3,4.6-18.7,7-28c0.2-0.7,0.2-1.1,0.1-1.5c0.1-0.3,0.3-0.5,0.6-0.7
			c-0.1-0.2-0.3-0.3-0.5-0.5c-8.4-2.2-16.8-4.5-25.2-6.9c-1.2-0.3-2.4-0.8-3.6-1c-0.9-0.2-1.6-0.4-2.1-0.7c-0.4,0-0.7,0.1-0.9,0.4
			c0,0-0.1,0.1-0.1,0.1c-0.6,0.6-0.6,1.6-0.5,3.6l0,0.2c0.1,3-1.2,5.6-4,8.4c-1.7,1.7-2.2,3.7-1.6,6.3c0.2,0.8,0.5,1.4,0.9,2
			c0,0.1,0.1,0.2,0.1,0.2c0.1,1.7,0.4,3.3,0.8,5c-0.4,1.1-0.6,2.3-0.7,3.4c-0.1,0.6-0.1,1.1-0.3,1.7c-0.6,3,0.6,5.1,2,6.6
			c0.3,0.4,0.6,0.7,0.8,1.1c0.2,1,0.3,1.9,0.5,2.9c0,0.1-0.1,0.3-0.1,0.4c-0.5,1.5,0,2.5,0.7,3.2c0,0.2,0.1,0.4,0.1,0.6
			c0.2,1.7,0.6,3.3,0.9,5c-0.3,1.5,0.1,3.1,0.9,4.4c0.1,0.9,0.3,1.7,0.3,2.6c0.1,1.4,0.3,2.9,0.6,4.3c-0.4,1.1-0.1,2.3,0.7,3.5
			c0.5,2.1,1.2,4.2,1.9,6.3c1.4,3.7,2.1,7.3,3.6,10.5c-0.1,0.3-0.2,0.5-0.3,0.8c-0.4,1.1-0.4,1.9,0.7,2.7c0.9,0.7,1.9,1.1,2.8,1.5
			c0.7,0.7,1.4,1.4,2.3,2.1c1.7,1.2,3.5,2.1,5.3,3c0.8,1.1,1.9,1.7,3.4,2c0.2,0.2,0.5,0.3,0.7,0.5c0.4,0.3,0.7,0.6,1.1,0.9
			c0.3,1.4,1.3,2.1,2.2,2.7c0.3,0.2,0.6,0.4,0.8,0.7c3.9,3.4,5.6,7.5,5,12.2c-0.1,0.6-0.1,1.3,0.3,1.8c0.4,0.5,1.1,0.7,1.8,0.7
			c2.2,0.2,4.3,0.4,6.5,0.7c4.1,0.4,8.2,0.9,12.4,1.2c0.1-0.3,0.3-0.6,0.5-0.7c0,0,0.1,0,0.1-0.1c0.5,0,1,0.1,1.5,0.1
			c0.5-0.2,0.9-0.7,0.9-1.4c0.1-0.8,0.1-1.6,0-2.4c-0.1-0.6-0.2-1.2-0.1-1.8c0.1-0.7,0.3-1.3,0.7-1.8l0,0c0,0,0,0,0,0
			c0.3-0.4,0.5-0.8,0.8-1.3c0.5-1.1,0.6-2.4,1.3-3.5c0.2-0.3,0.5-0.6,0.8-0.9c0,0,0-0.1,0.1-0.1c0.2-0.2,0.4-0.3,0.6-0.4
			c0-0.1,0.2-0.2,0.3-0.2c0,0,0,0,0,0c0.3-0.7,1.2-0.9,1.6-1.5C84.6,257.5,84.5,257.2,84.2,256.9z"/>
		<path class="st3" d="M125.2,295.9c-0.1-0.2-0.1-0.6-0.1-1.1c1.6-11.2,3.2-22.4,4.7-33.7c0-0.1,0-0.2,0-0.3
			c0.2-1.4,0.3-2.9,0.5-4.3c0-0.1,0-0.3,0.1-0.4c0,0,0,0,0.1,0c0.2-1.8,0.5-3.6,0.7-5.4c0,0,0-0.1,0-0.1c0.3-1.8,0.7-3.5,0.8-5.3
			c0.1-1.7,0.7-3.4,0.7-5.1c0.2-0.7,0.1-1.4,0.3-2.1c0.1-0.4,0.3-1.3,0.2-1.4c-0.1,0.1-1.9-0.5-3.1-0.7c-11.8-1.8-23.6-3.7-35.4-5.5
			c-1.4-0.2-2.2-0.4-2.7-0.2c-0.1-0.1-0.3-0.2-0.4-0.3c-0.1,0.3-0.2,0.5-0.2,0.8c-0.2,0.4-0.4,1-0.7,1.9c0,0.1,0,0.2-0.1,0.3
			c-0.6,0.7-0.8,1.5-1,2.3c0,0.2-0.1,0.4-0.1,0.6c-0.1,0.4-0.2,0.8-0.3,1.2c-0.1,0.5-0.3,0.9-0.5,1.4c-0.4,0.8-0.6,1.1-1,0.5
			c-0.2-0.4-0.4-0.6-0.7-0.8c-0.2-0.1-0.3-0.2-0.5-0.3c-0.3-0.1-0.5-0.1-0.8-0.1c-0.8,0-1.5,0.2-2.3,0.2c0.8,1.9,0,3.8,0.2,5.6
			c0,0.3,0.1,0.6,0.1,0.9c-0.1,0.3-0.1,0.5,0,0.7c-0.1,1.3-0.4,2.6-0.7,3.9c-0.2,0.1-0.4,0.2-0.7,0.2c0,0,0,0,0,0
			c-0.1,0-0.1,0-0.2,0.1c0.2,1,0.2,2.1,0.4,3.2c0,0.2,0,0.4,0,0.5c0.1,1.2,0.8,1.8,1.1,2.9c0,0.4,0.1,0.6,0.4,0.7
			c0.1,0.1,0.2,0.2,0.3,0.3c0.3,0.3,0.4,0.6,0.3,0.8c-0.4,0.6-1.3,0.8-1.6,1.5c0,0,0,0,0,0c-0.1,0-0.3,0.1-0.3,0.2
			c-0.2,0.1-0.4,0.3-0.6,0.4c-0.1,0-0.1,0.1-0.1,0.1c-0.3,0.2-0.5,0.5-0.8,0.9c-0.7,1-0.7,2.4-1.3,3.5c-0.3,0.5-0.5,0.9-0.8,1.3
			c0,0,0,0,0,0l0,0c-0.3,0.5-0.6,1.1-0.7,1.8c-0.1,0.6,0.1,1.2,0.1,1.8c0.1,0.8,0.1,1.6,0,2.4c-0.1,0.8-0.4,1.2-0.9,1.4
			c-0.5,0-1-0.1-1.5-0.1c0,0-0.1,0-0.1,0.1c-0.3,0.2-0.4,0.4-0.5,0.7c-0.1,0.2-0.1,0.4-0.1,0.7c-0.1,1.8,1.3,2.3,2,2.6
			c0.2,0.1,0.4,0.2,0.6,0.3c5.4,3.2,10.8,6.4,16.1,9.5c3.6,2.1,7.2,4.2,10.8,6.4c1.2,0.7,2.4,1.2,3.8,1.4c1.5,0.2,3,0.5,4.6,0.7
			c3.2,0.5,6.5,1,9.7,1.6c0.3,0.1,0.6,0.1,0.8,0.1c0.4,0,0.7-0.1,1-0.3C124.9,296.4,125.1,296.2,125.2,295.9z"/>
		<path class="st3" d="M186.9,242.5c0.3,0.1,0.7,0,1,0c1.5,0,2.9,0.1,4.4,0.1c0,0-0.1-0.1-0.1-0.1c-0.1-0.1-0.2-0.3-0.3-0.5
			c0.3-0.2,0.3-0.6,0.3-1.1c0-1.1,0.1-2.2,0.2-3.3c-0.1-0.7,0.1-1.4,0.1-2.2c0.1-0.6,0.1-1.3,0.1-1.9c-0.1-0.3,0.1-0.7,0.1-1.1
			c0.4-7.5,0.9-14.9,1.3-22.4c0.2-0.4,0.5-0.7,0.9-0.8c0-0.1,0-0.1,0-0.2c-0.2-0.3-0.3-0.7-0.2-1.4c0.2-2.3,0.2-4.6,0.4-6.8
			c0.1-1.2-0.1-1.8-1.6-1.9c-4.3-0.2-8.5-0.7-12.8-1c-0.6,0-1-0.2-1.2-0.5c-0.1,0-0.2,0-0.3,0c-0.4,0-0.7-0.1-1.1-0.1
			c-0.1,0-0.2,0.1-0.3,0.1c-1.6-0.1-3.2-0.3-4.8-0.4c-2.4-0.3-4.8-0.5-7.3-0.7c0,0,0,0.1,0.1,0.1c-0.8-0.1-1.5-0.2-2.3-0.3
			c0,0,0,0,0,0c-0.3,0-0.6,0-0.9-0.1c-2.2-0.2-4.4-0.5-6.6-0.9l-0.5-0.1c-4-0.5-7.9-0.9-11.9-1.4c-0.7-0.1-1.5-0.2-2.2-0.2
			c-0.8-0.1-1.5-0.2-2.3-0.3c0,0,0,0,0,0c-0.1,0.1-0.2,0.2-0.3,0.2c0,0,0,0,0,0c0.2,0.2,0.3,0.5,0.4,0.8c-0.2,0.3-0.4,0.8-0.4,1.4
			c-1.7,13-3.4,26-5.2,39c-0.1,0.6,0,1.7-0.2,1.9c0,0,0,0,0,0c0.1,0.1,1,0,1.5,0.1c3.9,0.5,7.9,0.9,11.9,1.3
			c0.4-0.1,2.5,0.4,3.3,0.5c4.6,0.5,9.2,1.1,13.8,1.6c5.3,0.6,10.5,1.1,15.8,1.7c0.5-0.1,2.1,0.5,2.5,0.4c0.9-0.1,1.3,0.1,1.5,0.5
			c0.3,0,0.6,0,0.9,0c0.1,0,0.1,0,0.2,0C185,242.1,185.7,242,186.9,242.5z"/>
		<path class="st2" d="M335.7,187.5c-1.2,0.1-1.9,0.2-2.3,0.4c-0.4,0-0.7-0.1-1.1-0.1c-0.1,0.1-0.1,0.2-0.1,0.3c0,1,0,2,0.4,3
			c0,0,0.1-0.1,0.1-0.1c0.2,1.2,0.4,2.4,0.5,3.6c0.1,0.9,0.1,1.8,0.2,2.6c-0.1,0-0.2,0-0.3,0c0.3,3,0.7,6.1,1,9.1h0
			c0,0.8,0,1.6,0,2.5c0,2.1,0.3,3.9,0.9,5.8c0,0.3,0.1,0.5,0.1,0.8c0.1,0.1,0.1,0.5,0.1,0.5c0.2-0.2,0.6-0.7,0.8-0.8
			c0.4,0.3,0.9,0.4,1.5,0.3c0.2,0,0.3-0.1,0.5-0.1c0-0.1,0.1-0.3,0.1-0.3c0.2-0.1,0.3,0.1,0.3,0.3c0.3,0,0.4,0.1,0.4,0.4
			c0.3,0,0.5,0,0.4,0.4c0.4-0.2,0.7,0.1,0.8,0.5l0,0c0.7,1.7,2.6,1.4,3.8,2.2c2.1,1.4,4.2,0.5,6-0.4c1.2-0.6,1.7-0.7,2.6,0.3
			c0.1,0.2,0.3,0.3,0.5,0.5c0.5,0.4,1.1,0.8,1.6,1.2l0,0c0.2,0,0.3-0.1,0.5-0.1c0.4-0.2,0.8-0.5,1.3-0.3c-0.1-0.7,0.2-1.1,0.8-1.2
			c0.4-1.4-0.3-2.9,0.4-4.3c0.4-0.8,0.7-1.6,1.7-0.6l0,0c0.7,0.3,1.2,0.4,1-0.6c-0.2-0.9,0-1.7,0.7-2.3c0-0.7,0.3-1.2,0.9-1.4
			l0.1-0.1l0,0v0c0.2-0.1,0.4-0.3,0.6-0.4c2-0.4,4.3-2.8,4.6-4.9c0-0.3,0.1-0.5,0.1-0.8c0.1-0.8,0.3-1.6,0.4-2.4
			c-0.7-0.9,0.2-2.3-0.8-3.1c0-0.6,0-1.1,0-1.6c0.1-0.1,0.2-0.3,0.2-0.4c0.1-0.5,0.2-1,0.3-1.5c0,0,0,0,0,0c0,0,0.8-0.2,0.8-0.2
			c0.1-1.8-1.1-3.4-1.3-5.2c-0.2-1-0.3-2-0.4-3c-0.1-0.5-0.1-0.9-0.2-1.4c-0.1-0.3-0.1-0.6-0.1-0.8c-0.1-0.5-0.2-1-0.2-1.5
			c-0.1-0.4-0.2-0.8-0.5-0.9c0-0.3,0-0.6,0.1-0.8c-0.1,0-0.1,0-0.2,0c-0.3,0-0.5,0.1-0.8,0.2c-0.6,0.3-1.2,0.6-1.8,0.9
			c-1.8,0.8-3.6,1.6-4.8,3.5c-0.7,1.1-1.9,1.3-3.3,1.5c-1.2,0.2-2.6,0.4-3.7,1.4c-0.5-0.2-1.1-0.4-1.6-0.5c-0.6-0.1-1.2-0.3-1.8-0.6
			c-0.8-0.5-1.8-1.1-3.1-1.1c-0.1,0-0.2,0-0.4,0C343.7,185.9,337.9,187.3,335.7,187.5z"/>
		<path class="st3" d="M420.9,180c-0.1,0-0.2,0-0.3,0c0.1-0.2,0.2-0.5,0.3-0.8c-0.1-0.1-0.3-0.3-0.2-0.3c0.5-0.5,0.7-1,0.8-1.5
			c0-0.2,0-0.4,0-0.6c0,0,0,0,0,0c0-0.9-0.4-1.8-0.6-2.7c-0.2-1.2-0.5-3-0.8-4.4c0-0.4,0.1-0.8,0.2-1.1c0,0,0,0,0,0c0,0,0,0,0,0
			c-0.1,0-0.2,0-0.3,0c-0.2-1.8-0.4-3.7-0.3-5.5c0-0.7,0.1-1.4-0.1-2.1c0,0,0,0,0-0.1c0,0,0,0-0.1,0c-0.1-0.4-0.2-0.8-0.3-1.2
			c-0.5-0.3-0.5-0.8-0.4-1.3c-1.4-1.6-0.7-3.6-1.2-5.4c-0.4-0.1-0.4-0.5-0.4-0.8c-1.6,0-1.2-1.2-1.2-2.1c-1.1-1.4-1.6-3-1.1-4.7
			c0.4-1.4-0.6-2.6-0.6-4c-0.7-0.5-1-1.4-1-2.1c0-0.8,0.1-1.3,0.4-1.8c0,0,0,0,0,0c-0.2-0.2-0.5-0.4-1-0.4c-0.3,0-0.6,0.1-0.9,0.2
			c-0.1,0-0.2,0-0.2,0.1c-0.7,0.2-1.4,0.4-2,0.6c-1.5,0.4-2.9,0.9-4.2,0.9c-3.6,0.1-5.3,2.3-7.1,4.5l-0.1,0.2
			c-0.8,1-1.3,2.2-1.8,3.4c-0.7,1.7-1.4,3.3-3,4.2c-0.5,0.3-0.7,0.8-0.7,1.4c0.1,0.5,0.4,0.9,0.8,1c0.6,0.2,0.6,0.4,0.6,1.3
			c0,0.5,0,1,0.3,1.5c0.1,0.2,0.2,0.6,0.1,0.8c-0.1,0.3-0.4,0.4-0.7,0.6c-0.7,0.3-1.3,0.8-1.8,1.5c-0.8,1.3-2.1,1.6-3.5,1.9
			c-1,0.2-2,0.5-2.9,1c-1.1-0.5-2.2-0.8-3.4-0.8c-2.4,0-4.6,1.1-6.4,2c-0.9,0.4-1.5,1.2-1.6,2.1c-0.1,0.9,0.2,1.7,0.9,2.3
			c1.1,1,1.1,1.9,0.1,3.2c-1.1,1.4-2.2,2.6-3.5,3.6c-0.4,0.3-0.8,0.7-1,1.2c0.1,0,0.1,0,0.2,0c0.2,0.1,0.4,0.2,0.5,0.4
			c-0.2,0.5-0.2,1,0,1.6c0.5,1.3,1.6,0.7,2.3,0.5c4.3-0.9,8.6-1.8,12.9-2.7c0.5-0.1,1.1-0.5,1.7-0.3c0.7-0.1,1.3-0.2,1.9-0.3
			c0,0,0-0.1,0-0.1l14.4-2.9c0,0,0,0,0.1,0c0.1,0,0.2,0,0.3-0.1c0,0.2,0,0.3,0.1,0.5c0.9,1.4,2.4,2.4,3.8,3.3c1,0.6,2.2,1.5,3.3,1.9
			c0,0,0,0,0.1,0c0.2,0.1,0.4,0.1,0.7,0.2c0.2,0,0.3,0.1,0.5,0.1c0.1,0,0.1,0.1,0.2,0.1c1.9,0.6,3.8,1.2,5.5,2.1
			c0.3,0.2,0.6,0.3,0.8,0.3c0.2,0.2,0.4,0.5,0.6,0.8c0,0,0,0,0,0c0.7-0.1,1-0.7,1.1-1.2C421.4,180,421.2,180,420.9,180
			C420.9,180,420.9,180,420.9,180z"/>
		<path class="st3" d="M409.1,194.9c0.2,0,0.3,0,0.5,0c0.1-0.1,0.3-0.2,0.4-0.3c0,0,0,0,0,0c0.2-0.1,0.3-0.2,0.5-0.3
			c0.5-0.3,1-0.7,1.3-1.1c0.1-0.5,0.2-0.8,0.6-1.1c0.4-1,0.3-2.2-0.4-3.2c-1-1.4-2.5-2.8-2.7-4.7c-0.1-0.7-0.1-1.4,0.2-2
			c0,0,0,0,0,0c0,0-0.1,0-0.1-0.1c-0.1-0.3,0.1-0.5,0.3-0.5c0,0.1,0,0.1,0,0.2c0-0.1,0.1-0.2,0.2-0.2c0,0-0.1,0-0.1,0
			c0.1-0.2,0.2-0.4,0.4-0.4c0.1-0.2,0.3-0.3,0.4-0.5c0-0.8,0.4-1.6,0.7-2.3c0-0.1,0.1-0.2,0.1-0.2c0.2-0.3,0.5-0.5,0.8-0.6
			c0,0,0,0-0.1,0c-1.2-0.5-2.3-1.3-3.3-1.9c-1.4-0.9-2.9-1.9-3.8-3.3c0-0.1-0.1-0.3-0.1-0.5c-0.1,0-0.2,0-0.3,0.1c0,0,0,0-0.1,0
			l-14.4,2.9c0,0,0,0.1,0,0.1c-0.6,0.1-1.3,0.2-1.9,0.3c-0.6-0.2-1.2,0.2-1.7,0.3c-4.3,0.8-8.6,1.8-12.9,2.7
			c-0.8,0.2-1.8,0.7-2.3-0.5c-0.3-0.6-0.3-1.1,0-1.6c-0.1-0.2-0.3-0.4-0.5-0.4c-0.1,0-0.1,0-0.2,0c0,0,0,0,0,0
			c-0.3,0-0.6,0.1-0.7,0.4c-0.4,0.7-1,1-1.7,1.3c-0.5,0.2-1,0.4-1.4,0.8c-0.1,0.1-0.2,0.2-0.3,0.3c-0.5,0.4-1.1,1-1.3,1.9
			c-0.1,0.3-0.1,0.5-0.1,0.8c0.3,0.1,0.4,0.5,0.5,0.9c0.1,0.5,0.2,1,0.2,1.5c0,0.3,0.1,0.6,0.1,0.8c0.1,0.5,0.2,0.9,0.2,1.4
			c0.1,1,0.2,2,0.4,3c0.2,1.8,0.9,5.1,1.1,5.1c0.1,0,0.1,0,0.2,0c0.4,2.7,0.9,5.3,1.3,8c0.2,1.1,0.6,1.6,1.9,1.4
			c2-0.4,4.1-0.7,6.2-1c0.1,0,0.1,0,0.2,0.1c0.1,0.1,0.2,0.1,0.3,0.2c0-0.1,0.1-0.2,0.2-0.3c0.4-0.1,0.8-0.1,1.2-0.2
			c3.1-0.3,6.1-0.9,9.1-1.6c0.6-0.1,1.2-0.3,1.8-0.4c1.2-0.3,2.4-0.5,3.6-0.8c1.7-0.3,3.3-0.7,5-1c2.4-0.9,4.9-0.7,7.4-1.2
			c0.3-0.1,0.7,0,1-0.2c0.2,0.1,0.5,0.3,0.7,0.5c0.2-0.2,0.4-0.5,0.4-0.9c0.1-0.5,0.2-0.7,0.9-0.7c0-0.1,0-0.2,0-0.3
			C408.9,195.3,409,195.1,409.1,194.9z"/>
		<path class="st3" d="M420,180c-0.6-0.5-0.6-0.5-1.5-0.2c-0.2-0.1-0.4-0.2-0.5-0.2c-1.4-0.6-2.9-1.2-4.5-1.6c0-0.1-0.1-0.1-0.2-0.1
			c-0.2,0-0.3-0.1-0.5-0.1c-0.2-0.1-0.4-0.1-0.7-0.2c-0.3,0.1-0.6,0.3-0.8,0.6c0,0.1-0.1,0.1-0.1,0.2c-0.3,0.7-0.7,1.5-0.7,2.3
			c-0.1,0.2-0.2,0.3-0.4,0.5c-0.2,0-0.3,0.2-0.4,0.4c0,0,0.1,0,0.1,0c-0.1,0.1-0.1,0.1-0.2,0.2c0-0.1,0-0.1,0-0.2
			c-0.3,0.1-0.4,0.2-0.3,0.5c0,0,0,0,0.1,0.1c0,0,0,0,0,0c-0.3,0.6-0.3,1.3-0.2,2c0.3,1.8,1.7,3.2,2.7,4.7c0.7,1.1,0.8,2.2,0.4,3.2
			c-0.4,0.2-0.6,0.6-0.6,1.1c-0.4,0.4-0.8,0.8-1.3,1.1c-0.2,0.1-0.4,0.2-0.5,0.3c0,0,0,0,0,0c-0.1,0.1-0.3,0.2-0.4,0.3
			c-0.2,0-0.3,0-0.5,0c-0.1,0.2-0.2,0.3-0.2,0.5c0,0.1,0,0.2,0,0.3c0.3,2.8,1.9,4.6,4.8,5.4c0.1,0,0.3,0.1,0.4,0.1
			c1.1,0.3,1.6,0.4,1.7,1.4c0,0.4,0.4,0.7,0.8,0.7c0,0,0,0,0,0c0.4,0,0.7-0.3,0.8-0.7c0.3-1.7,1.2-3,2.2-4.3c0.3-0.5,0.7-1,1-1.5
			c0.6-0.9,0.9-1.9,1.1-2.9c0-0.2,0-0.3,0-0.5c0.7-2.5,1.8-4.5,2.8-6.5c0.1-0.2,0.2-0.4,0.4-0.6c1-1.4,2.1-2.9,3.1-4.4
			c0.1-0.1,0.3-0.3,0.4-0.4c1-1,2-2,2.9-3c0.2-0.1,0.3-0.2,0.5-0.3c2-0.6,4-2.7,4-5.8c-2.1,0-4.1,2.1-6.7,2.5
			c-0.2,0.1-0.4,0.2-0.5,0.3c-0.9,0.5-1.8,1-2.8,1.4c-0.1,0.1-0.3,0.2-0.4,0.3c-1,0.8-1.9,1.7-3.2,2.4c-0.1,0.1-0.3,0.1-0.4,0.2
			c-0.2,0.1-0.4,0.2-0.6,0.3c-0.4,0.2-0.7,0.4-1,0.5C420.3,180.1,420.2,180.1,420,180z"/>
		<path class="st3" d="M238.8,143.7c0-0.1,0-0.2-0.1-0.3c-0.3-0.9-0.8-1.7-0.9-2.7c-0.3-0.7-0.5-1.5-0.7-2.3
			c-0.4-2.7-0.2-5.5-0.6-8.3c0-0.3-0.1-0.5-0.2-0.8c0,0,0-0.1,0-0.1l-0.1-0.3c-0.1-0.4-0.2-0.5-0.2-0.5c0,0-0.1,0-0.1,0
			c-0.2-0.4-0.3-0.7-0.5-1.1c-0.2-0.3-0.3-0.6-0.3-1c-0.3-1.2-0.7-2.3-0.7-3.5c-0.1-2.6,0.7-5,1-7.6c-0.1,0-0.3,0-0.4,0
			c0,0,0-0.1,0-0.1c0-0.3,0.3-0.6,0.6-0.7c-0.1,0-0.1,0-0.2,0h0c-0.4,0-0.8,0-1.2,0c-0.4,0-0.9,0-1.3,0c-3.5-0.1-7.1-0.2-10.5-0.2
			c-6.3-0.1-12.7-0.2-19.2-0.5c-5.8,0.5-11.8,0.1-17.7-0.2c0.1,0.2,0.2,0.6,0.1,1.1c-0.4,3.9-0.7,7.8-1,11.8c0,0.4-0.3,1,0.3,1.3
			c0,0.7,0,1.4,0,2.2c-1.2,2.8-1.1,5.7-0.8,8.6c0.1,0.4,0.1,0.8,0,1.2c0,0,0,0,0,0.1c0,0.2-0.1,0.4-0.1,0.6c0,0.2-0.1,0.4-0.1,0.5
			c-0.1,0.5-0.2,1-0.2,1.5c-0.1,0.8-0.2,1.5-0.4,2.4c0,0,0,0-0.1,0c0,0,0,0.1,0.1,0.1c0.1,0.2,0.3,0.4,0.6,0.6
			c0.2-0.3,0.7-0.5,1.4-0.3c0,0,0,0,0,0c0.5,0,0.9,0.1,1.4,0.1c0.2,0.1,0.5,0.3,0.7,0.3c5.4,0.3,10.8,0.6,16.2,0.9
			c11.3,0.6,22.5,1.1,33.8,1.7c0.3,0,0.6,0,0.9,0.1c0,0,0.1-0.1,0.1-0.1c0-0.1-0.1-0.2-0.1-0.3c0-0.1-0.1-0.3-0.1-0.4
			c0-0.1,0-0.1,0-0.2c0,0,0,0,0,0c0.1-0.1,0.3-0.2,0.4-0.4C238.6,145.8,238.9,144.8,238.8,143.7z"/>
		<path class="st2" d="M235.2,115.1c0,0,0,0.1,0,0.1c0.1,0,0.3,0,0.4,0c-0.3,2.5-1.1,5-1,7.6c0,1.2,0.4,2.4,0.7,3.5
			c0.1,0.4,0.2,0.7,0.3,1c0.2,0.4,0.3,0.7,0.5,1.1c0,0,0.1,0,0.1,0c0,0,0.1,0.1,0.2,0.5l0.1,0.3c0,0,0,0.1,0,0.1
			c0.1,0.3,0.2,0.5,0.2,0.8c0.5,2.7,0.2,5.5,0.6,8.3c0.1,0.8,0.4,1.6,0.7,2.3c0.1,0.9,0.6,1.8,0.9,2.7c0,0.1,0,0.2,0.1,0.3
			c0,1-0.2,2-0.2,3c-0.1,0.1-0.2,0.3-0.4,0.4c0,0,0,0,0,0c0,0.1,0,0.1,0,0.2c0,0.1,0.1,0.3,0.1,0.4c0,0.1,0.1,0.2,0.1,0.3
			c0,0.1,0,0.1,0,0.1c0.2,0.1,0.4,0.4,0.2,0.9h0c-1.2,1.3-1.3,2.4-0.7,3.4c0.3,0.6,0.9,1.2,1.5,1.8c0.5,0.7,0.4,1.4,0.4,2.2
			c0,3.9-0.2,7.8,0.1,11.8c0.1,1.6-0.1,3.2-0.4,4.7c0,0.2,0.1,0.5,0.2,0.7c0.2-0.1,0.5-0.2,0.8-0.3c0.3,0.5,0.9,0.4,2.4,0.3
			c0.2-0.1,0.5-0.2,0.7-0.2c0.4,0,0.8,0,1.3,0c0.5,0,1,0,1.4-0.1c0.2,0,0.4,0,0.7,0c10.6-0.3,21.2-0.6,31.8-0.8c0.5,0,0.8-0.1,1-0.3
			c0.2-0.2,0.2-0.5,0.1-1.1c-0.1-0.7-0.1-1.4-0.1-2c-0.3-0.2-0.7-0.3-0.4-0.8c-0.7,0.1-1-0.2-1.2-0.8c-0.7,0.1-1.2-0.4-1.6-0.8
			c-0.4-0.2-1.1-0.4-1.2-0.7c-0.5-2.1-2.3-2.6-3.8-3.5c-0.5-1.1-1.9-0.7-2.5-1.6c-0.5,0.2-0.7-0.1-0.9-0.5l0,0
			c-0.9-2.2-0.4-4.4-0.3-6.6c0-0.9-0.1-1.7-0.1-2.5c-0.7,0.1-1.3-0.4-1.1-1c0.4-0.9-0.1-2.1,0.7-2.8l0,0c0.1-0.4,0.5-0.4,0.8-0.4
			c0.1-0.4,0.5-0.4,0.8-0.4c0.2-0.4,0.5-0.4,0.8-0.4c0.3-0.3,0.5-0.5,0.8-0.8c0-1.7,0-3.4,0-5.2c0-0.9,0.2-1.6,0.9-2.2
			c0.1-0.1,0.1-0.1,0.2-0.2c0.2-0.1,0.4-0.1,0.6-0.1c0.2,0,0.4,0,0.6,0.1c1.1-1,2.2-2.1,3.2-3.1c3.6-3.5,7-6.8,11.6-8.5
			c0.6-0.2,1.2-0.6,1.7-1c0.2-0.2,0.4-0.3,0.7-0.5c0.2-0.2,0.4-0.4,0.4-0.7c0-0.3-0.1-0.5-0.4-0.7c-0.3-0.2-0.7-0.3-1.1-0.3
			c-0.6,0-1,0.3-1.4,0.5c-0.1,0-0.1,0.1-0.2,0.1c-1.1-1-2.3-1.1-3.4-1.1c-0.2,0-0.5,0-0.7,0c-0.2,0-0.4,0-0.6,0c-0.2,0-0.4,0-0.6,0
			c-0.1,0-0.1,0-0.2,0c-0.2,0-0.4,0-0.5,0c-0.1,0-0.2,0-0.3,0c-0.4-0.7-0.9-1-1.5-1c-0.5,0-0.9,0.3-1.3,0.5c-0.1,0-0.2,0.1-0.2,0.1
			l0,0c-1.3,0.8-2.2,1.2-2.7,1.2c-0.6,0-1.4-0.6-3-1.8l-0.4-0.3c-0.1-0.1-0.1-0.1-0.2-0.2c-0.3-0.2-0.6-0.6-1.1-0.6
			c-0.4,0-0.8,0.2-1.1,0.6c-0.1,0.2-0.2,0.2-0.3,0.3c-0.1-0.1-0.2-0.3-0.4-0.6c-1.1-1.9-3.1-3.1-5.3-3.1c-1,0-2,0.2-2.8,0.7
			c-0.4,0.2-0.7,0.3-1,0.3c-0.1,0-0.2,0-0.2,0c-1.7-0.8-3.4-1.1-5.1-1.4c-0.3,0-0.6-0.1-0.9-0.1c-0.3-0.1-0.7-0.3-0.8-0.4
			c0,0,0-0.1,0-0.1c0.4-1.1,0.1-2-0.1-2.8c-0.1-0.4-0.2-0.8-0.2-1.1c-0.1-1.4-0.9-2.3-2.2-2.3c-0.1,0-0.2,0-0.3,0
			c-0.6,0.1-1,0.3-1.3,0.7c-0.4,0.6-0.3,1.3-0.2,1.8c0,0.1,0,0.2,0.1,0.3c0.1,0.7,0,0.9-0.1,0.9c0,0-0.2,0.2-0.8,0.2
			c-0.1,0-0.2,0-0.3,0c-0.8,0-1.6-0.1-2.7-0.1c-0.6,0-1.2,0-1.8,0c-0.6,0-1.2,0-1.8,0c-0.4,0-0.8,0-1.3,0c-0.4,0-0.8,0-1.1,0
			c-0.8,0-1.5,0-2.3,0l-0.6,0c-0.1,0-0.2,0-0.2,0C235.4,114.5,235.2,114.8,235.2,115.1z"/>
		<path class="st6" d="M292.2,230.4c0,0-0.1-0.1-0.1-0.1c0,0.1-0.1,0.1-0.1,0.2c0,0,0.1,0,0.1,0.1
			C292.1,230.5,292.2,230.5,292.2,230.4z"/>
		<path class="st3" d="M101.5,176.3c0-0.1-0.1-0.1-0.1-0.2c-7-1.4-14-2.7-21-4c-0.8-0.1-1.2-0.4-1.4-0.8c-0.3-0.1-0.6-0.1-0.9-0.2
			c-0.1,0-0.1,0-0.2,0c-0.4,0.3-0.9,0.3-1.6,0.1c-6.8-1.6-13.7-3.2-20.5-5c-0.2,0.1-0.4,0.1-0.5,0.2c-0.3,0.2-0.5,0.4-0.6,0.7
			c0.1,0.4,0.1,0.8-0.1,1.5c-2.4,9.3-4.6,18.7-7,28c-0.2,0.7-0.3,1.4,0,1.9c0,0,0,0.1,0,0.1c2.7,7.8,8.5,15.4,13.2,22.1
			c2.7,3.9,6,7.3,8.9,11c2.6,3.4,4.5,7.1,7.2,10.4c0,0,0,0,0.1,0.1c0.1,0.2,0.3,0.4,0.6,0.6c0.1,0.5,0.3,1,0.8,1.2
			c0.1,0.5,0.3,1,0.8,1.2c0,0.5,0.4,0.5,0.7,0.7c0,0,0,0,0,0c0.4,0.4,0.7,0.8,1,1.3c0.1,0.3,0.3,0.6,0.4,0.9c0,0.3,0,0.6,0.4,0.5
			c0.1,0.3,0.1,0.5,0.2,0.8c0.1,0,0.1,0,0.2-0.1c0,0,0,0,0,0c0.2-0.1,0.5-0.1,0.7-0.2c0.3-1.3,0.6-2.6,0.7-3.9c0-0.2,0-0.5,0-0.7
			c0-0.3,0-0.6-0.1-0.9c-0.2-1.8,0.6-3.8-0.2-5.6c0.8,0,1.5-0.2,2.3-0.2c0.3,0,0.6,0,0.8,0.1c0.2,0.1,0.3,0.2,0.5,0.3
			c0.2,0.2,0.5,0.5,0.7,0.8c0.4,0.7,0.7,0.3,1-0.5c0.2-0.4,0.4-0.9,0.5-1.4c0.1-0.4,0.2-0.8,0.3-1.2c0-0.2,0.1-0.4,0.1-0.6
			c0.2-0.8,0.5-1.6,1-2.3c0.1-0.1,0.1-0.2,0.1-0.3c0.3-0.9,0.4-1.6,0.7-1.9c0.1-0.3,0.2-0.5,0.2-0.8c-0.1-0.1,0.1,0.2,0,0
			c1.2-4.4,1.2-9.9,2.1-14.4c2.5-12.5,4.9-25,7.3-37.5c0.1-0.5,0.1-0.9,0-1.2C101.1,176.7,101.3,176.5,101.5,176.3z"/>
		<path class="st2" d="M312.2,262.1c-0.1,0.1-0.2,0.1-0.3,0.2c0,0,0.1,0.1,0.1,0.1c0.2,0.2,0.3,0.4,0.4,0.6
			c-0.2,0.3-0.3,0.7-0.3,1.2c0,4.6,0,9.2,0,13.9c0.1,1,0.1,2.1,0.1,3.1c0,1,0,2.1-0.2,3.1l0,0l0,0c-0.2,4.8-0.6,9.6,0.1,14.5
			c0.3,2,0.6,4,0.9,5.9c0,0,0,0,0,0c0.1,0,0.2,0,0.2,0c3.7-0.5,7.4-1.2,11.2-1.3c1.3,0,2.6,0,3.9-0.1c0.9-0.1,1.9-0.2,2.8-0.3
			c0.9-0.1,1.9-0.2,2.8-0.3c0.6-0.1,1.1-0.2,1.7-0.2c0,0,0,0,0,0c2.4-0.3,4.8-0.5,7.2-0.8c0.1,0,0.2,0,0.3,0c0.1,0,0.3-0.2,0.4-0.4
			c-0.5-0.3-0.7-0.8-0.8-1.3c0,0,0,0,0,0c-1-1.3,0.4-2.8-0.4-4.1c-0.4-0.1-0.4-0.5-0.4-0.9l0,0l0,0c0,0,0,0,0,0
			c-0.9-1.9-0.1-3.6,0.4-5.4c0,0,0,0,0,0l0,0l0,0l0,0l0,0c0-0.1,0-0.3,0.1-0.4c-0.1-0.6-0.2-1.2-0.3-1.9l0,0c0,0,0,0,0,0
			c0.4-0.7-0.8-0.8-0.6-1.4c-1.2-0.7-1.1-1.8-1.2-2.9c0,0,0,0,0,0c-1.8-3.6-2.4-7.5-3.7-11.2c-1.1-3.2-2-6.4-2.9-9.6
			c-0.1-0.5-0.3-0.8-0.5-1c0-0.2,0.1-0.5,0.2-0.7c0,0,0.1-0.1,0.1-0.1c-0.1-0.1-0.3-0.1-0.4-0.2
			C326.3,260.9,319.2,261.5,312.2,262.1z"/>
		<path class="st3" d="M376.2,301c-0.5-0.3-1.3-0.3-2.2-0.2c-0.3,0-0.7,0-0.8-0.4c-0.5-0.3-1-0.4-1.5,0c-0.4,1.2,0.5,2.4,0.3,3.6
			c0,0.3,0.1,0.7,0,1c-0.1,0.1-0.3,0.2-0.5,0.3c-0.5,0.1-1-0.2-1.2-0.8l0,0l0,0l0,0c0,0,0,0,0,0c-0.8-0.8-1.6-1.1-2.9-1
			c-6.7,0.6-13.5,1-20.2,1.4c-0.8,0-1.8,0.4-2.2-0.8c-0.7-0.1-0.3-1-0.8-1.3c0,0,0,0,0,0l0,0c0,0,0,0,0,0c-0.2-0.4-0.5-0.6-0.8-0.7
			c0-0.1,0-0.2,0-0.2c-0.1-0.1-0.3-0.2-0.3-0.3l0,0c0,0,0,0,0,0c-2.4,0.3-4.8,0.5-7.2,0.8c0,0,0,0,0,0c-0.6,0-1.1,0.1-1.7,0.2
			c-0.9,0.1-1.9,0.2-2.8,0.3c-0.9,0.1-1.9,0.2-2.8,0.3c-1.3,0.1-2.6,0.1-3.9,0.1c-3.7,0.1-7.5,0.8-11.2,1.3c0,0.2,0,0.3,0.1,0.5
			c-0.1,0-0.2,0-0.3,0c0.2,1.7,0.4,3.3,0.6,5c0,0.4,0.2,0.6,0.3,0.8c0,0.1,0,0.3,0,0.4c0,0,0,0,0,0.1c0,0,0,0,0,0.1l0,0.4
			c0.2,0,0.3,0.1,0.5,0.1c0.1,0,0.2,0,0.2,0c0.1,0,0.1,0,0.2,0c0,0,0.1,0,0.1,0c0.2,0.1,0.4,0.2,0.6,0.2c0.4,0,1.1-0.2,1.1-1.4
			c0-0.1,0-0.1,0-0.2c0.1-0.3,0.2-0.6,0.3-0.9c0-0.1,0.1-0.3,0.1-0.4c0,0.1,0.1,0.3,0.1,0.4c0.2,1.1,0.5,2.6,2,3.2
			c0.3,0.1,0.7,0.2,1,0.2c0.8,0,1.4-0.4,1.8-1c0,0-0.1-0.1-0.1-0.1c-0.2-0.3-0.3-0.7,0.3-1.2c0,0,0.1-0.1,0.1-0.1
			c0.2-0.2,0.4-0.2,0.6-0.2c0.2,0,0.3,0,0.4,0.1c0,0.2-0.4,0.5-0.4,0.7c0.1,0.1,0.2,0.2,0.2,0.2c0.3,0,0.6-0.1,0.8-0.3
			c0.1,0.3,0,0.6-0.2,0.8c-0.1,0.1-0.2,0.2-0.3,0.3c1.3-0.2,1.7-1.4,1.9-1.8c0.2-0.5,0.7-0.5,0.7-0.5c0,0,0,0,0,0
			c0.4,0.6,1,0.9,1.6,0.9c0.4,0,0.8-0.1,1.1-0.3c0.2-0.1,0.4-0.1,0.4-0.1c0.1,0,0.2,0,0.3,0c0.6,0,1.1-0.3,1.6-0.5
			c0.3-0.1,0.6-0.3,0.8-0.3h0c0,0,0.2,0.1,0.4,0.7c0.1,0.3,0.4,0.5,0.8,0.5c0.1,0,0.1,0,0.2,0c0.1,0,0.2,0,0.3,0
			c0.5,0,1,0.3,1.6,0.6c0.7,0.4,1.5,0.8,2.4,0.8c0.5,0,1-0.1,1.5-0.4c0.2,0.1,0.6,0.3,0.7,0.4c0,1.4,0.9,2,1.5,2.3
			c0.2,0.1,0.3,0.2,0.5,0.3c0.1,0.1,0.1,0.1,0.2,0.2c0.1,0,0.1,0.1,0.2,0.1c0,0.5,0,1.1,0.4,1.6c5.8,0.3,10.9,8.6,17.6,2.8
			c0.6,0,1.3-0.1,2-0.1c0.7-0.1,1.4-0.1,2.2-0.2c0.6,0.2,1.3,0.4,1.9,0.5c0,0,0,0.1,0.1,0.1c0.1,0.1,0.1,0.2,0.2,0.2
			c2.3,2.7,2.8,5.4,1.5,8.2c-0.6,1.3-0.3,2.4-0.1,3.4c0.1,0.4,0.2,0.8,0.2,1.2c0,0.9,0.9,1.7,1.8,1.7c0.2,0,0.4,0,0.6-0.1
			c0.5-0.2,0.7-0.6,0.8-0.8c0.2-0.5-0.2-1-0.3-1.2c0,0-0.1-0.1-0.1-0.1c0,0,0,0,0,0c0.3,0.3,0.6,0.3,0.8,0.3c0.1,0,0.3,0,0.4-0.1
			c-0.1,0.3-0.3,0.7-0.4,1c-0.2,0.7-0.4,1.3-0.8,1.6c-0.6,0.5-0.7,1-0.6,1.3c0,0.4,0.3,0.8,0.7,1c0.9,0.6,1.3,1.5,1.8,2.4
			c0.2,0.4,0.4,0.9,0.7,1.3c0.2,0.3,1.2,1.8,2.5,1.8c0.3,0,0.6-0.1,0.9-0.3c0.1-0.1,0.2-0.2,0.3-0.2c0,0.1,0,0.2,0.1,0.3
			c0,0.1,0,0.2,0.1,0.4c0,0.1,0.1,0.3,0.1,0.5c0.1,0.6,0.1,1.5,1,2c1.5,0.9,2,2.3,2.6,4l0.2,0.5c0.2,0.5,0.7,1.8,2.2,1.8
			c1.6,0,2.6,1,3.5,2.5c0.7,1,1.5,2,2.9,2.4c0,0,0,0,0,0c0,0.1-0.1,0.2-0.1,0.3c0.1-0.2,0.3-0.4,0.5-0.5c0.1,0,0.2-0.1,0.3-0.1
			c0.1,0,0.2,0,0.3,0.1c0,0.2-0.2,0.5-0.3,0.8l0,0c0,0,0,0,0,0c0.1,0.1,0.2,0.2,0.3,0.3l0,0l0,0c0.3,0,0.6,0,0.8-0.1
			c0,0.1,0,0.1,0,0.2c0,0.3-0.2,0.5-0.5,0.6l-0.1,0.1c1.6-0.1,2.9-0.7,4.2-1.4c0.3-0.1,0.5-0.3,0.8-0.4c0.9-0.4,1.4-1,1.6-1.6
			c0.2-0.7,0.1-1.4-0.4-2.2c-0.3-0.6-0.6-1.4,0.1-2c1.9-1.6,1.1-3.4,0.7-4.2c-0.1-0.3-0.2-0.6-0.1-1c0.6-4.3-0.4-7.9-3-10.8
			c-0.7-0.8-1.2-1.7-1.7-2.9c-0.1-0.1-0.1-0.3-0.2-0.4c-0.4-1.1-0.8-2.3-1.8-3.1c-1.2-1-1.4-2.5-1.2-3.5c0.6-3.2-1.4-5-2.9-6.4
			l-0.1-0.1c-1-1-2-2.1-2.9-3.2c-0.6-0.8-1.3-1.6-2-2.4c-1-1.1-1.3-2.5-1.6-4c-0.3-1.4-0.6-2.9-1.5-4.2c-0.1-0.2-0.2-0.3-0.4-0.4
			c-0.3-0.3-0.5-0.6-0.5-0.8c0.2-1.2,0.1-2.1-0.5-2.7c-0.2-0.2-0.3-0.3-0.5-0.5c-0.1,0.1-0.1,0.2-0.2,0.3
			C376.5,300.8,376.3,300.9,376.2,301z"/>
		<path class="st3" d="M133.5,234.8c1.8-13,3.5-26,5.2-39c0.1-0.6,0.2-1.1,0.4-1.4c-0.1-0.3-0.2-0.6-0.4-0.8c0,0,0,0,0,0
			c-0.1-0.1-0.2-0.2-0.3-0.3c-0.2,0-0.4-0.1-0.6-0.1c-3.1-0.5-6.1-1-9.2-1.4c-0.4-0.1-0.7-0.2-1.1-0.2c-0.7-0.1-1.5-0.1-2.2-0.3
			c-0.4-0.1-0.9-0.2-1.3-0.4c-0.5-0.2-0.6-0.6-0.6-1c0,0,0,0,0-0.1c0.3-2.6,1-5.1,1.5-7.7c-0.1-0.5-0.2-1-0.6-1.4
			c0,0-0.1-0.1-0.1-0.1c-0.3,0.1-0.8,0.1-1.4-0.1v0c-0.9,0.4-1.7-0.1-2.6-0.2c0,0-0.1,0-0.1,0c0,0,0,0,0,0l0,0h0
			c-1.5-1.2-3.5-1.1-5.2-1.4c-4.4-0.9-8.8-1.8-13.2-2.6c-0.1,0-0.1,0.1-0.2,0.1c-0.3,0.2-0.5,0.4-0.6,0.6c0.1,0.3,0.1,0.7,0,1.2
			c-2.5,12.5-4.8,25-7.3,37.5c-0.9,4.5-2.1,14.4-2.1,14.4c0.1,0.1,0.3,0.2,0.4,0.3c0.5-0.2,1.3,0,2.7,0.2
			c11.8,1.9,23.6,3.7,35.4,5.5c1.2,0.2,3,0.7,3.1,0.7c0,0,0,0,0.1,0c0,0,0,0,0,0C133.5,236.5,133.4,235.4,133.5,234.8z M124.9,191.6
			c-0.1,0-0.2,0-0.3,0c0,0,0,0,0,0c-0.1,0-0.1,0-0.2-0.1c0,0,0,0-0.1,0c-0.1,0-0.1,0-0.2-0.1c0,0,0,0-0.1,0c-0.1,0-0.1-0.1-0.2-0.1
			c0,0,0,0,0,0c-0.1,0-0.1-0.1-0.2-0.1c0,0,0,0-0.1,0c-0.1,0-0.1-0.1-0.1-0.1c0,0,0,0-0.1-0.1c0,0-0.1-0.1-0.1-0.2c0,0,0,0-0.1-0.1
			c-0.1-0.1-0.1-0.2-0.2-0.3c0,0,0.1-0.1,0.1-0.1c0,0.2,0.1,0.4,0.3,0.6C123.7,191.3,124.4,191.4,124.9,191.6z"/>
		<path class="st3" d="M94.3,101.1c-4.4-1.6-8.6-3.1-13.2-4.1c-5.4-1.1-10.6-2.6-15.5-5.1c-1.1-0.3-2.3-0.6-3.4-0.9
			c-2.2-0.6-4.4-1.2-6.7-1.8c-0.1,0-0.1,0-0.2,0c-0.2,0-0.4,0.1-0.5,0.2c-0.2,0.2-0.3,0.5-0.3,0.7c0,0.2,0,0.5,0,0.8
			c-0.1,0.6-0.2,1.8,1,2.3c0.4,0.2,0.4,0.3,0.4,0.3c0,0.1-0.1,0.3-0.3,0.4c-1.7,1.2-1.2,2.6-0.8,3.6c0.1,0.1,0.1,0.3,0.2,0.4
			c0.1,0.3,0.2,0.7,0.4,1c0.4,1.1,0.7,1.7,0.4,2.3c-0.4,0.7-0.8,1.4-1.3,2.1c-0.5,0.7-1.1,1.5-1.5,2.4c0-0.1,0-0.2,0-0.2
			c0.2-1,0.4-2,0.9-2.9c0.5-0.9,0.6-2.1,0.3-3c-0.3-0.7-0.8-1.3-1.5-1.5c-3.6-1.3-6.7-3.2-9.6-5.1c-0.1-0.1-0.3-0.2-0.4-0.4
			c-0.4-0.4-1-0.9-1.7-0.9c-0.3,0-0.6,0.1-0.9,0.3c-1,0.7-1.1,2.1-1.1,3.2c0,0.9,0.2,1.6,0.4,2.3l0.1,0.2c0.3,1,0.6,1.9,0.4,2.8
			c-0.3,1-0.2,1.9-0.1,2.8c0.1,0.9,0.2,1.8-0.2,2.5c-0.2,0.4-0.2,0.8-0.1,1.2c0.2,0.6,0.7,0.8,1.1,0.9c0,0,0.1,0,0.1,0l-0.1,0
			c-0.8,0.3-1.3,0.4-1.5,1c-0.2,0.6,0.2,1,0.7,1.6l0,0c0.2,0.3,0.3,0.8,0.1,1.3c-0.1,0.3-0.3,0.7-0.6,0.7c0,0-0.1,0-0.1,0
			c-0.3,0-1,0.1-1.3,0.9c-0.3,1.1,0.5,1.6,0.9,1.8c0,0,0.1,0,0.1,0c0.4,0.2,0.8,0.4,1.1,0.6c0.4,0.1,0.8,0.2,1.3,0.5
			c0.9,0.5,1.5,1.5,2.7,1.4c0.3,0.5,0.7,0.5,1.2,0.4c-0.1,0.8,0.2,1.7,0.1,2.5c-0.1,1-0.5,2.3,0.3,3.2c0,0.3,0.2,0.4,0.4,0.4
			c0.4,0.6,0.9,0.9,1.7,0.8l0,0c0,0,0,0,0,0c3.1,0.7,6.4,0.4,9.5,1.3c0.5,0.5,1.2,0.1,1.8,0.1c0.1,0,0.1,0,0.2,0
			c0.1,0,0.2,0.1,0.3,0.1c0,0,0.1,0.1,0.1,0.1c0.4,0,0.9,0,1.3,0c0.2,0.4,0.4,0.7,0.9,0.8l0,0c0,0,0,0,0,0c0,0,0,0,0,0
			c1.3,0.5,2.6,1.1,3.7-0.4c1.4,0.1,2.8,0.4,4.2,0c0.4,0.7,1.1,0.3,1.7,0.4c0.3,0.5,0.9,0.6,1.2,0.4c1.5-1,2.9-0.2,4.3,0.1
			c3.8,0.9,7.6,2.1,11.5,2.7c0,0,0,0,0,0.1c0.1,0,0.3-0.1,0.4-0.2c0-0.5,0-0.9,0-1.4c0.6-0.5,0.6-1.1,0-1.6c0-0.4,0-0.8,0-1.3
			c0.8-0.2,0.7-0.9,0.8-1.5c1.4-6.3,2.8-12.5,4.2-18.8l0,0c-0.2-0.8-0.1-1.6,0.1-2.4c0.1-0.5,0.3-0.9,0.4-1.4
			C94.4,102.1,94.3,101.6,94.3,101.1C94.2,101.2,94.3,101.1,94.3,101.1z"/>
		<path class="st5" d="M47.3,124.8L47.3,124.8C47.3,124.7,47.3,124.8,47.3,124.8z"/>
		<path class="st3" d="M439.3,157.6c-0.1,0.3-0.4,0.5-0.7,0.6c0,0,0,0,0,0c0.1-0.1,0.2-0.3,0.2-0.4c-2.5,0.2-4.9,0.2-7.3,0.7
			c-1.7,0.4-3.4,0.8-5.1,1.2c-0.2,0-0.4,0.1-0.6,0.1c-0.1,0-0.2-0.1-0.3-0.1c0,0.1-0.1,0.1-0.1,0.2c-1.8,0.3-3.9,0.3-4.7,1.3
			c-0.3,0-0.6-0.1-0.8-0.2c0,0,0,0,0,0.1c0.1,0.7,0.1,1.4,0.1,2.1c-0.1,1.9,0,3.7,0.3,5.5c0.1,0,0.2,0,0.3,0c0,0,0,0,0,0
			c0,0,0,0,0,0c0.1-0.4,0.3-0.6,0.5-0.9c1.4-0.2,2.7-1,4.2-0.9c0,0.1,0,0.2,0,0.2c-0.1,0.1-0.2,0.2-0.3,0.3c1-0.3,1.9-0.7,2.9-1
			c1.6-0.5,3.3-0.9,5-1.2c0.1,0,0.1,0,0.2,0.1c0,0,0.1-0.1,0.1-0.1c0.2,0,0.3-0.1,0.5-0.1c0.9-0.5,1.9-0.6,2.5-1.7
			c0.4-0.7,0.9-1.5,1.5-2.1c0.1-0.1,0.1-0.2,0.2-0.2c0-0.1,0-0.3,0-0.4c0.1,0,0.2-0.1,0.3-0.1c0.1,0,0.2,0,0.3,0.1c0,0,0,0,0.1,0
			c0.1,0,0.1,0,0.2,0l0-0.1c0.1-0.5,0.3-1.1,0.5-1.4c0.2-0.2,0.4-0.5,0.5-0.8c0.1-0.3,0.1-0.6-0.1-0.8c0-0.1-0.1-0.1-0.1-0.1
			C439.3,157.2,439.3,157.4,439.3,157.6z"/>
		<path class="st3" d="M444.4,164.4c-0.6,0-1.3-0.5-1.9-1.4c-0.1-0.1-0.2-0.3-0.3-0.4c-0.7-1-1.5-2.2-3.1-2.2c-0.2,0-0.4,0-0.6,0.1
			c-0.1,0-0.1,0-0.2,0c0,0-0.1,0-0.1,0c-0.1,0-0.2-0.1-0.3-0.1c-0.1,0-0.2,0-0.3,0.1c0,0.2,0,0.3,0,0.4c-0.1,0.1-0.2,0.2-0.2,0.2
			c-0.6,0.6-1.1,1.4-1.5,2.1c-0.6,1.1-1.6,1.2-2.5,1.7c-0.2,0-0.4,0.1-0.5,0.1c0,0-0.1,0.1-0.1,0.1c0.2,0.1,0.5,0.3,0.6,0.6
			c-0.2,0.7,0.2,1.6,0.4,2.5c0.4,1.3,0.7,2.7,1,3.9c-0.1,0.3-0.2,0.5-0.3,0.8c0.1,0,0.2,0.1,0.3,0.1c0.1,0,0.2,0,0.3,0
			c1.7,0,2.3-1,2.5-2c0.1,0,0.1,0.1,0.2,0.1c0.1,0,0.2,0.1,0.3,0.1c0.2,0,0.4-0.1,0.6-0.2c0.3-0.3,0.7-0.6,1-0.9
			c0.7-0.7,1.3-1.3,1.9-1.7c0.3-0.2,0.4-0.5,0.6-0.8c0,0,0-0.1,0.1-0.1c0,0.1,0.1,0.2,0.1,0.3c0.2,0.4,0.5,0.7,1,0.7
			c0.5,0,0.9-0.4,1.2-0.7c0.5-0.5,1-0.8,1.5-0.9c1.2-0.2,1.9-0.7,2.2-1.5"/>
		<path class="st3" d="M413.3,139.2c0,0.7,0.4,1.6,1,2.1c0,1.4,0.9,2.6,0.6,4c-0.5,1.8,0,3.3,1.1,4.7c0,0.9-0.3,2.1,1.2,2.1
			c0,0.4,0,0.7,0.4,0.8c0.5,1.8-0.2,3.8,1.2,5.4c-0.1,0.5-0.1,1,0.4,1.3c0.2,0.4,0.3,0.8,0.3,1.2c0,0,0,0,0.1,0
			c0.3,0.1,0.6,0.2,0.8,0.2c0.8-1,2.9-1,4.7-1.3c0-0.1,0.1-0.1,0.1-0.2c-0.3-0.1-0.5-0.3-0.6-0.6c0.1-0.3,0-0.7,0-1.1
			c-0.1-0.8-0.1-1.5-0.2-2.3c-0.1-1.3-0.3-2.5-0.5-3.8c-0.2-0.9,0-1.9,0.3-2.8c0.1-0.7,0.2-1.4,0.4-2.1c0.1-0.4,0.2-0.8,0.3-1.2
			c0-0.1,0-0.2,0-0.3c-0.1-0.8-0.6-1.8-0.4-2.5c0.1-0.3,0.3-0.6,0.5-0.8c0-0.2,0.1-0.2,0.3-0.3c0,0,0.1-0.1,0.1-0.1
			c0-0.2,0.2-0.3,0.4-0.3c0,0,0,0,0,0c0,0,0,0,0,0c0,0,0,0,0,0c0.1-0.3,0.3-0.5,0.5-0.5c0.1-0.2,0.3-0.3,0.4-0.5
			c0.1-0.5,0.3-0.9,0.4-1.3c0-0.4,0-0.9-0.1-1.3c-0.1-0.2-0.1-0.5-0.1-0.7c-0.4-0.4-0.2-0.9-0.2-1.4c0-0.3-0.1-0.7-0.2-1
			c0,0,0-0.1-0.1-0.1c-0.1,0-0.1,0-0.2,0c0-0.3,0-0.6,0-0.8c0,0,0,0,0,0c-0.9,0.2-1.8,0.4-2.7,0.6c-2,0.5-4,1-6.1,1.4
			c-2.2,0.6-3.4,0.9-4,1.7C413.3,137.9,413.3,138.5,413.3,139.2z"/>
		<path class="st3" d="M437.6,155.2c0,0-0.1,0-0.1,0c0,0-0.1,0-0.1,0c-0.2-0.4-0.4-0.8-0.5-1.2c-0.6-2.4-1.2-4.9-2.3-7.1
			c0-0.1,0-0.1,0-0.2c-1.8-5-3.5-10-5.2-15c-0.2-0.5-0.4-0.9-0.7-1c-0.1-0.3-0.1-0.6,0-0.9c-0.1,0-0.2,0-0.3,0c-0.2,0-0.4,0-0.6,0.1
			c-1,0.3-1.5,1-1.4,2.3c0,0.5,0,1,0,1.6c0,0.3,0,0.6,0,0.8c0.1,0,0.1,0,0.2,0c0,0,0,0.1,0.1,0.1c0.1,0.3,0.2,0.7,0.2,1
			c0,0.5-0.2,1,0.2,1.4c0,0.2,0.1,0.5,0.1,0.7c0.1,0.5,0.2,0.9,0.1,1.3c-0.1,0.4-0.3,0.9-0.4,1.3c-0.1,0.2-0.2,0.4-0.4,0.5
			c-0.3,0-0.4,0.2-0.5,0.5c0,0,0,0,0,0c0,0,0,0,0,0c0,0,0,0,0,0c-0.2,0-0.3,0.1-0.4,0.3c0,0-0.1,0.1-0.1,0.1c-0.2,0-0.3,0.1-0.3,0.3
			c-0.2,0.2-0.4,0.5-0.5,0.8c-0.3,0.8,0.3,1.8,0.4,2.5c0,0.1,0,0.2,0,0.3c-0.1,0.4-0.1,0.8-0.3,1.2c-0.2,0.7-0.3,1.4-0.4,2.1
			c-0.3,0.9-0.4,1.8-0.3,2.8c0.3,1.3,0.4,2.5,0.5,3.8c0.1,0.8,0.1,1.6,0.2,2.3c0,0.4,0.1,0.8,0,1.1c0.2,0.2,0.4,0.4,0.6,0.6
			c0.1,0,0.2,0.1,0.3,0.1c0.2,0,0.4-0.1,0.6-0.1c1.7-0.4,3.4-0.8,5.1-1.2c2.4-0.5,4.9-0.5,7.3-0.7c-0.1,0.1-0.1,0.3-0.2,0.4
			c0,0,0,0,0,0c0.3,0,0.6-0.2,0.7-0.6c0.1-0.2,0.1-0.3,0-0.5c0-0.2-0.1-0.3-0.3-0.4c-0.1-0.1-0.2-0.3-0.2-0.4
			c-0.1-0.3-0.3-0.6-0.4-0.9c-0.1-0.2-0.2-0.3-0.2-0.4C438,155.1,437.8,155.2,437.6,155.2z"/>
		<path class="st2" d="M431.1,128.4c-0.1,0.2-0.4,0.4-0.7,0.4c-0.6,0-1.3,0.1-1.6,0.7c-0.1,0.1-0.1,0.2-0.2,0.4
			c-0.1,0.3,0,0.6,0,0.9c0.3,0.1,0.5,0.5,0.7,1c1.7,5,3.5,10,5.2,15c0,0.1,0,0.1,0,0.2c1.1,2.2,1.6,4.7,2.3,7.1
			c0.1,0.4,0.3,0.8,0.5,1.2c0,0,0.1,0,0.1,0c0,0,0.1,0,0.1,0c0.2,0,0.4-0.1,0.5-0.3c0.1-0.1,0.2-0.3,0.2-0.5c0-0.1,0-0.2,0-0.3
			c0-0.1,0-0.3,0-0.4c0.1-1.5,0.6-2.8,1.2-4.3c0.3-0.7,0.6-1.5,0.8-2.2c0-0.1,0.1-0.2,0.1-0.3c0.2-0.4,0.5-1,0.2-1.7
			c-0.1-0.2-0.2-0.4-0.1-0.6c0.1-0.2,0.3-0.4,0.7-0.5c1.5-0.5,2.6-1.1,3.3-1.8c0.3-0.2,0.6-0.5,1-0.7c1-0.6,2.4-1.5,2.4-3.6
			c0-0.6,0.1-1.5,0.9-1.6c1.4-0.2,2.2-0.8,2.7-2c0.2-0.5,0.7-0.8,0.9-0.9c0.3,0.1,0.6,0.1,0.9,0.1h0c1.6,0,2.4-1.1,3.1-1.9
			c0.4-0.4,0.7-0.8,1.1-1.1c0.5-0.3,0.8-0.8,1.1-1.2c0.1-0.2,0.3-0.4,0.4-0.5c0.9-0.2,1.9-0.5,2-1.3c0.1-0.8-0.5-1.2-1.3-1.7
			c0,0,0,0,0-0.1c0.4-0.9,0.4-1.8,0-2.4c-0.4-0.6-1-0.9-1.7-0.9c-0.3,0-0.6,0-0.8,0.1c-0.3,0.1-0.5,0.1-0.6,0.1h0
			c-0.2,0-0.4,0-0.6-1.1c-0.2-1.7-1.3-2.8-3-3.1c-0.7-0.1-0.9-0.5-1.1-1.4l0-0.2c-0.5-1.8-1-3.7-1.5-5.5c-0.4-1.3-0.7-2.6-1.1-3.8
			c-0.8-2.9-2.6-4.5-5-4.5c-1.1,0-2.3,0.4-3.6,1.2c-0.2,0.1-0.3,0.2-0.4,0.3c-0.4,0.2-0.7,0.5-1,0.6c-0.3,0.1-0.5,0.3-0.7,0.5
			c0,0,0,0,0,0c-0.4-0.3-0.3-0.5-0.2-0.6l0-0.1c0.1-0.3,0.3-0.7,0.1-1.2c-0.1-0.2-0.3-0.5-0.9-0.6c-0.1,0-0.2,0-0.3,0
			c-0.5,0-0.9,0.2-1.2,0.4c-0.7,0.4-0.9,1.1-1.1,1.7c0,0.1,0,0.1-0.1,0.2c-0.5,1.7-1.1,3.5-1.6,5.2l-0.5,1.4"/>
		<path class="st2" d="M433.1,116.3c0,0,0,0.1,0,0.2c0,0.1-0.1,0.3-0.1,0.3"/>
		<path class="st3" d="M271.7,138c-0.1,0.1-0.1,0.1-0.2,0.2c-0.7,0.6-0.9,1.3-0.9,2.2c0,1.7,0,3.4,0,5.2c-0.3,0.3-0.5,0.5-0.8,0.8
			c-0.3,0-0.7,0-0.8,0.4c-0.3,0-0.7,0-0.8,0.4c-0.3,0-0.7,0-0.8,0.4l0,0c-0.8,0.8-0.3,1.9-0.7,2.8c-0.2,0.5,0.4,1,1.1,1
			c0,0.8,0.1,1.7,0.1,2.5c0,2.2-0.6,4.5,0.3,6.6l0,0c0.2,0.4,0.4,0.7,0.9,0.5c0.5,1,2,0.6,2.5,1.6c1.5,0.9,3.3,1.4,3.8,3.5
			c0.1,0.3,0.8,0.4,1.2,0.7c0.5,0.4,0.9,1,1.6,0.8c0.2,0.6,0.6,0.9,1.2,0.8c-0.3,0.5,0.2,0.6,0.4,0.8c0,0.7,0,1.4,0.1,2
			c0.1,0.5,0.1,0.9-0.1,1.1c0,0.3,0.1,0.5,0.1,0.8c0.4,0.3,0.4,0.8,0.8,1.1c0,0,0,0,0,0l0,0c0,0,0,0,0,0c0.2,0.4,0.4,0.5,0.8,0.4
			c0,0,0,0,0,0l0,0c0,0,0,0,0,0c0,0.3,0,0.5,0,0.8l0,0c-1.7,1.8-0.5,5.1,2.1,5.9c0,0,0,0,0,0l0,0c0,0,0,0,0,0
			c0.3,0.4,0.7,0.5,1.3,0.4c0,0,0,0,0,0c0,0,0,0,0,0c0,0,0,0,0,0c0,0.5,0.2,1,0.4,1.4c0.4,0.3,0.9,0.4,1.5,0.5
			c0.2-0.2,0.4-0.3,0.8-0.3c6.3-0.4,12.7-0.8,19-1.1c0.2,0,1.6,0,1.8,0c0.1-0.1-0.3-4.2-0.5-4.7c-0.1-0.1-0.1-0.3-0.2-0.4
			c-0.1-0.2-0.1-0.4-0.2-0.6c-0.5-1.5-1.1-3.1-0.5-4.1c1-1.6,0.8-3.3,0.7-4.8c-0.1-1.7-0.2-3,1-4.1c0.2-0.2,0.3-0.4,0.3-0.7
			c-0.2-1.4,0.3-2.7,0.8-4.1c0.4-1,0.8-2.1,0.9-3.2c0.1-0.1,0.1-0.2,0.2-0.2c0.6-0.8,1.2-1.8,1-3.2c0-0.2-0.2-0.4-0.3-0.6
			c-0.1-0.1-0.3-0.2-0.5-0.2c0,0-0.1,0-0.1,0c-1.9,0.3-1.9,1.8-2,2.5c0,0.2,0,0.5-0.1,0.6l-4.3,4.3c0.2-1.3,0.7-2.3,1.6-3.1
			c0.1-0.1,0.1-0.1,0.2-0.2c0.3-0.3,0.8-0.7,0.8-1.3c0-0.1,0-0.1,0-0.2c-0.3,0.3-0.6,0.3-0.9,0.3c0.1-0.2,0-0.5-0.3-0.8l0,0l0,0l0,0
			c0,0,0,0,0,0c-0.4-0.4-0.4-1.1-0.6-1.7c0,0,0-0.1,0-0.1c0,0-0.1,0-0.1,0c-0.2-0.3-0.5-0.6-1.2-0.6c-0.2,0,0-1,0.1-1.5
			c0.3-1.2-0.5-1.6-1.1-2.5c-1.8-2.6-4.5-1.4-6.6-2.3c0,0,0,0,0,0l0,0l0,0c-0.4-0.2-0.6-0.4-0.5-0.8c-0.3,0.1-0.4-0.2-0.5-0.4
			c-1.3-0.2-2.6-0.4-3.9-0.6c-1.1-0.2-2.3-0.4-3.4-0.6c-0.8-0.1-1.5-0.3-1.3-1.3c-0.5-0.1-0.5-0.5-0.4-0.8c-0.6,0.1-1.3,0-1.8-0.3
			c0,0,0,0,0,0c-0.1-0.2-0.1-0.4-0.1-0.6c0-0.1,0.1-0.2,0.1-0.3c-0.8-0.5-1.5-0.7-2.2-0.7c-0.3,0-0.7,0-1,0.1
			c0.1-0.3,0.2-0.5,0.3-0.8c0,0,0.1-0.1,0.1-0.1c0.7-0.9,0.3-1.6-0.1-1.9c-0.3-0.3-0.7-0.4-1.1-0.4c-0.4,0-0.7,0.1-1,0.3
			c-0.6,0.3-1.2,0.6-1.8,0.8c-0.4,0.2-0.8,0.4-1.2,0.5c-0.4,0.2-0.7,0.4-1,0.6c-0.6,0.4-1.2,0.7-1.8,0.7c-0.1,0-0.3,0-0.4-0.1
			c-0.1,0-0.3-0.1-0.4-0.1c-0.2,0-0.4-0.1-0.6-0.1C272.1,137.9,271.9,138,271.7,138z M284.8,181.7
			C284.8,181.7,284.8,181.6,284.8,181.7L284.8,181.7L284.8,181.7L284.8,181.7L284.8,181.7z"/>
		<path class="st3" d="M411.9,231.1c-0.5-0.2-1-0.2-1.7,0c-9.5,2.2-18.9,4.4-28.6,5.6c-5.7,0.7-11.4,2-17.2,2.1
			c-0.7,0-1.1,0.2-1.3,0.6c-0.3,0.1-0.6,0.1-1,0.1c0.1,0.1,0.2,0.2,0.2,0.4c0.2,0.8,0.3,1.8-0.8,2.2c-0.1,0.1-0.2,0.3-0.3,0.4
			c-0.4,0.1-0.4,0.5-0.4,0.8c-0.4,0.2-0.4,0.5-0.4,0.9c-0.5,0.7-1.6,0.1-2.1,0.8c-0.2,0-0.5,0-0.4,0.4c-0.4-0.2-0.6,0.1-0.8,0.5
			c-0.9,0.7-2.5,0.1-2.9,1.6c-0.4-0.1-0.7,0-0.8,0.4l0,0l0,0c0,0,0,0,0,0c-0.4,0.5-0.9,0.9-0.8,1.6c-0.7-0.1-1.3,0.1-1.6,0.8
			c-0.4-0.1-0.7,0.1-0.8,0.4l0,0l0,0l0,0c0,0,0,0,0,0c-0.1,0.1-0.3,0.3-0.4,0.4c-1,0.3-2,0.6-2.9,1c-0.9,0.4-2.1,0.6-2.1,1.9
			c-0.7,0.4-0.2,0.9-0.2,1.3c0,0.1,0,0.3-0.1,0.4c-0.1,0-0.2,0-0.3,0.1c0,0-0.1,0-0.1,0c0,0-0.1,0-0.1,0.1c-0.1,0-0.1,0.1-0.1,0.1
			c0,0,0,0-0.1,0c0,0,0,0,0,0c-0.3,0.2-0.6,0.6-1,0.8c-0.2,0.4-0.4,0.8-0.7,1.1c0.1,0.2,0.1,0.3,0.2,0.4c0.1,0.1,0.1,0.2,0.2,0.2
			c0.2,0.2,0.5,0.4,0.9,0.5c3.5-0.5,6.9-0.9,10.4-1.4c0.4-0.1,0.6,0,0.9,0.1c0,0,0.1,0,0.1,0c0.1-0.1,0.1-0.2,0.2-0.3
			c0.1-0.2,0.3-0.4,0.4-0.7c0.5-0.1,1-0.1,1.6-0.2c0.6-0.3,1.3-0.5,1.9-0.8l0,0c0.1-0.5,0.3-0.7,0.8-0.5c0.1-0.7,0.6-0.9,1.3-0.8
			c0,0,0,0,0,0c2.3-0.9,4.8-1.1,7.3-0.8c0.6-0.1,1.2-0.3,1.9-0.4c0.6-0.1,1.2-0.3,1.8-0.4c0.4,0.1,0.8,0.1,1.2,0.2
			c0.2,0,0.4,0,0.6,0.1c0.3,0.2,0.7,0.5,1,1c0.4-0.2,0.7,0,0.9,0.4c0,0,0,0,0,0c0.3,0.5,0.6,0.9,0.9,1.1c0,0,0,0,0,0c0,0,0,0,0,0
			c0,0,0,0,0.1,0c0.6,0.3,1.3,0.3,2.1,0c0.5-0.2,1-0.4,1.6,0c0.5,0.1,1,0.1,1.4-0.1c0.1,0,0.3-0.1,0.4-0.2c0.2-0.1,0.4-0.2,0.7-0.3
			c0.4-0.2,0.7-0.3,1.1-0.4l0,0c0.9-0.1,1.9-1.1,2.5,0.4c0.7-0.1,1.1,0.2,1.2,0.8c0.4-0.1,0.7,0,0.8,0.4c0.4,0.1,0.9,0.2,0.8,0.8
			c0.7-0.1,1.1,0.2,1.2,0.8c0.4-0.1,0.7,0,0.8,0.4c0.4,0.1,0.9,0.2,0.8,0.8c0.7-0.1,1.1,0.2,1.2,0.8c0.4-0.1,0.7,0,0.8,0.4
			c0.4,0.1,0.9,0.2,0.8,0.8c0.7-0.1,1.1,0.2,1.2,0.8c0.3,0.1,0.6,0.1,0.9,0.1c0.1,0.2,0.1,0.5,0,0.8c0,0,0,0,0,0
			c1,0,1.9-0.2,2.7-0.4c0.3-0.1,0.6-0.1,0.9-0.2c1.2-0.2,2-1.1,2-2.2c0-2.4,1.4-3.9,3-5.7c0.2-0.2,0.4-0.4,0.5-0.6
			c1.7-1.9,3.1-3.3,5.5-3.6c1.5-0.2,2.4-1.4,2.5-3.3c0-0.3-0.1-0.5-0.3-0.7c-0.1-0.1-0.3-0.2-0.5-0.2c-0.1,0-0.2,0-0.3,0.1
			c-0.4,0.2-0.8,0.3-1.2,0.5c-0.3,0.1-0.5,0.2-0.8,0.3c0.5-0.8,0.7-2.1,0.6-2.7c-0.1-0.4-0.4-0.5-0.5-0.6c-0.5-0.2-0.6-0.3-0.4-0.7
			c0.6,0.4,1.2,0.4,1.8,0.4c1.5,0,3-1,3.9-2.6c0.9-1.5,1.1-3.1,0.5-4.3c-0.4-0.8-0.9-1-1.3-1c-0.4,0-0.9,0.2-1.4,1.1
			c0,0.1-0.1,0.1-0.1,0.2c-0.2-0.5-0.6-1.3-1.6-1.3c-0.5,0-0.9,0.2-1.3,0.4c0,0-0.7,0.3-0.9,0.4c0.3-0.2,0.6-0.5,0.8-0.8
			c0.8-0.8,1.5-1.4,2.6-1.4l0.2,0c0.6,0,1.2-0.4,1.3-1c0.2-0.6-0.1-1.2-0.6-1.6c-0.3-0.2-0.6-0.4-0.9-0.6c-0.3-0.2-0.6-0.5-0.9-0.7
			c-0.3,0.2-0.7,0.2-1,0.3C412.1,231.1,412,231.1,411.9,231.1z"/>
		<path class="st3" d="M314,310.9c-0.2-0.1-0.3-0.4-0.3-0.8c-0.2-1.7-0.4-3.3-0.6-5c0.1,0,0.2,0,0.3,0c0-0.2,0-0.3-0.1-0.5
			c-0.1,0-0.2,0-0.2,0c0,0,0,0,0,0c-0.3-2-0.6-4-0.9-5.9c-0.7-4.8-0.3-9.6-0.1-14.5l0,0l0,0c0.1-1,0.2-2.1,0.2-3.1
			c0-1,0-2.1-0.1-3.1c0-4.6,0-9.2,0-13.9c0-0.5,0-0.9,0.3-1.2c-0.1-0.2-0.2-0.4-0.4-0.6c0,0-0.1-0.1-0.1-0.1
			c-0.1-0.1-0.2-0.1-0.3-0.2c-4.1,0.3-8.2,0.6-12.4,0.9c-1.4,0.1-3.1,0.5-4.1-0.1c-0.3,0.1-0.7,0.1-1,0.2c-0.3,0.1-0.5,0.2-0.8,0.3
			c-0.5,0.7-1,1.4-1.5,2c-1.3,1-0.6,2.5-0.8,3.8c-0.3,0.3-0.5,0.5-0.8,0.8c-1.7,0.3-1.8,1.7-2.1,3l0,0c-0.1,0.9-0.9,1.6-1.1,2.5
			c-0.1,0.2-0.1,0.4-0.1,0.6c0,0.3,0.1,0.5,0.3,0.8l0,0c-0.2,0.2-0.3,0.4-0.4,0.6c-0.9,0.8-2.4,1.4-0.7,3c0.1,0.6,0,1.4,0.8,1.7
			c0,0.3,0,0.7,0,1c-0.1,0.9-0.3,1.5-0.8,1.9c0,0.3,0.1,0.6,0.1,0.9c0,0.1,0,0.2,0.1,0.3c1,0.9,1.1,2.8,1.5,4.3
			c0,0.1,0.2,0.2,0.4,0.3c-0.1,0.4-0.1,0.8,0.4,0.8c0,0.7,0.4,1.5-0.4,2c-1.5,0.5-1.1,1.8-1.3,2.9c-0.9,0.4-1.2,1.2-1.3,2.1l0,0l0,0
			l0,0l0,0c0,0,0,0,0,0c-1.4,2.3-1.9,4.8-2,7.4c0,0,0,0.1,0,0.1c0.1,0.3,0.3,0.6,0.6,0.8c1.9-0.1,3.9,0.3,5.6-0.8l3.3,0
			c0.6,0.8,1.4,0.3,2,0.3c1.8,0,3.6-0.2,5.4-0.3c0,0.3,0.3,0.2,0.4,0.2c-0.2,0.4-0.9,0.7-0.8,1.1c0,0.1,0,0.1,0.1,0.2
			c0.2,0.4,0.3,0.8,0.3,1.2c0,0.1,0,0.1,0,0.2c0,0.2,0,0.4,0,0.7c0,0.2,0,0.3,0,0.5c0,0.1,0,0.1,0,0.2c0,0.8,0.3,1.5,1.6,1.9
			c0.1,0,0.2,0.4,0.2,0.7c0,0.2,0,0.4,0.1,0.6l0,0c0.3,0.2,0.5,0.4,0.7,0.5c-0.1,0.3-0.4,0.5-0.6,0.6c0.3,0.2,0.7,0.3,1.1,0.3
			c0.3,0,0.5-0.1,0.8-0.2c0.3-0.1,0.6-0.3,0.9-0.5c0.1-0.1,0.2-0.1,0.3-0.2c1.8-1.3,3.7-1.9,5.7-1.9c0.5,0,1,0,1.4,0.1l-0.2-0.2
			c-0.2-0.2-0.2-0.4-0.2-0.7c0.3,0,0.5,0.1,0.8,0.1c0.1-0.1,0.2-0.2,0.3-0.2c0-0.3-0.1-0.5-0.1-0.8c0,0,0.1,0,0.1,0
			c0.1,0,0.3,0,0.4,0.1c0.3,0.1,0.4,0.4,0.4,0.7c0,0,0,0,0-0.1C314.1,311.2,314,311,314,310.9z"/>
		<path class="st3" d="M404.2,214.7c-0.1,0-0.2,0-0.4,0c-0.2,0-0.5,0-0.7,0c-0.9,0-1.9-0.1-2.9-0.9c0,0-0.1,0.1-0.1,0.1
			c0,0,0,0.1,0,0.1c-0.2-0.1-0.5-0.2-0.7-0.4l0,0l0,0c0,0,0,0,0,0c-1.5,0.7-1.6,0.6-1.7-0.7c0-0.8-0.1-1.7,0.8-2.2
			c-0.1-0.4,0-0.7,0.4-0.8c-0.1-0.4,0-0.7,0.4-0.8c0-0.3,0-0.5,0-0.8c-0.3-0.4-0.6-0.6-1-0.9c-1.1-0.6-2.5-0.8-3.5-1.5
			c-0.6-0.3-0.2-0.9-0.4-1.4c-0.4-0.1-0.7,0-0.9,0.1c-0.3,0.2-0.4,0.6-0.5,1c-0.2,0.8-0.6,1.3-1.5,0.5c-0.4,0.1-0.7,0-0.8-0.4
			c-0.2,0-0.5-0.1-0.4-0.4c-0.4,0.1-0.7,0-0.8-0.4c-0.2,0-0.5-0.1-0.4-0.4c-0.4,0.1-0.8-0.2-1.1-0.3c-0.4,1.3-0.9,2.6-0.9,4.1
			c0,0.2,0,0.4-0.1,0.5c-0.2,0.5-0.6,0.8-1,1.1c-0.1,0.3-0.1,0.7-0.5,0.8c-0.1,1.8-1.3,0.8-2.1,0.8c-0.3,1.3-0.6,2.6-1,3.8
			c-0.5,1.2-1.2,1.3-1.9,0.3c-0.5,0.3-0.7-0.1-0.9-0.4c-0.1-0.1-0.3-0.2-0.4-0.3c-1.1,1.4-1,3.2-1.6,4.9c-0.2,0.7-0.2,1.5-0.8,2
			c0,0.2-0.1,0.5-0.4,0.4c0.1,0.7-0.3,1.2-0.8,1.6c-0.3,0.8,0.7,1.7,0,2.5c0.1,0.4-0.1,0.7-0.4,0.9l0,0c-0.1,0.1-0.3,0.3-0.4,0.4
			c0,0.1-0.1,0.2-0.1,0.2c-1.4,0.7-3.1,0.8-4.1,2.4c0,0.1-0.1,0.1-0.1,0.2c-0.4,0.4-1.1,0.5-1.7,0.5c-0.7,0.7-1-0.1-1.4-0.4
			c-0.3,0.3-0.6,0.6-0.9,0.8l0,0c-0.2,0.4-0.4,0.6-0.9,0.4c-0.5,0.7-1.1,0.5-1.6,0c-0.2-0.1-0.6,0-0.5-0.4c-0.5,0.2-0.7-0.1-1-0.4
			c-0.2-0.2-0.4-0.5-0.7-0.7c-0.3,0-0.5-0.1-0.8-0.1c0,0,0-0.1,0-0.1c0-0.2,0-0.3,0-0.4c0,0-0.1,0-0.3,0c-0.1,0-0.2,0-0.3-0.1
			c-0.1,0.3-0.3,0.6-0.5,0.8c-0.5,0.4-0.9,0.9-1.4,1.3c-0.2,0-0.3,0.2-0.4,0.3c0,0-0.1,0.1-0.1,0.1c-0.2,0.2-0.4,0.4-0.6,0.5
			c0,0,0,0,0,0c-1.2,1-2.3,2-2.8,3.5c0,0,0,0,0,0c-0.6,0.7-1.3,1.3-2.1,1.8c-0.6,0.4-1.2,0.8-1.7,1.4c-0.1,0.1-0.3,0.1-0.4,0.2
			c0,0.1,0,0.3,0.1,0.4c0.1,0.1,0.1,0.3,0.2,0.4c0.1,0.1,0.2,0.2,0.3,0.3c3.2-0.5,6.5-1,9.8-1.2c0.5,0,1.1-0.5,1.5-0.1
			c0.3,0,0.6-0.1,1-0.1c0.2-0.4,0.7-0.6,1.3-0.6c5.8-0.1,11.5-1.4,17.2-2.1c9.7-1.2,19.1-3.4,28.6-5.6c0.7-0.2,1.2-0.1,1.7,0
			c0.1,0,0.2,0,0.3,0c0.3,0,0.7-0.1,1-0.3c0.2-0.1,0.5-0.3,0.7-0.6c0.3-0.4,0.3-0.9,0.1-1.5l-0.1-0.3c-0.2-0.9-0.6-2.4-2.5-2.4
			c-0.1,0-0.2,0-0.4,0c-0.1,0-0.2,0-0.3,0c-0.5,0-1.1,0.1-1.6,0.4c0.3-0.2,0.6-0.5,0.6-0.9c0-0.4-0.1-0.7-0.3-1
			c-0.3-0.3-0.8-0.5-1.3-0.5c-0.1,0-0.1,0-0.2,0c0.2-0.3,0.2-0.5,0.3-0.7c0,0,0-0.1,0-0.1l0.1,0c1,0,1.3-0.7,1.4-1
			c0.1-0.3,0-0.6-0.2-0.8c-1.1-1.2-1.1-1.2-1-3.6c0-0.7-0.2-1.2-0.8-1.6c-0.3-0.2-0.7-0.4-1-0.5c-0.4-0.1-0.8-0.3-1.2-0.4
			C405,215,404.6,214.8,404.2,214.7z M408.6,226.7C408.6,226.8,408.5,226.8,408.6,226.7c-0.1,0.1-0.1,0-0.1,0c0,0,0.2-0.1,0.3-0.2
			C408.7,226.6,408.7,226.7,408.6,226.7z"/>
		<path class="st3" d="M407,196.9c-0.3,0.2-0.6,0.1-1,0.2c-2.5,0.5-5,0.4-7.4,1.2c-1.7,0.3-3.3,0.7-5,1c-1.2,0.2-2.4,0.5-3.6,0.8
			c-0.6,0.1-1.2,0.3-1.8,0.4c-3,0.7-6,1.3-9.1,1.6c-0.4,0.1-0.8,0.1-1.2,0.2c-0.1,0.1-0.1,0.2-0.2,0.3c0.3,0.2,0.5,0.4,0.6,0.7
			c-0.4,1.3,0,2.9,1.1,3.7c0.3-0.3,0.6-0.5,1-0.4c0.9-0.9,1.8-1.6,2.5-2.6c0.1-0.1,0.2-0.2,0.3-0.4c0.7-0.7,1.4-0.7,2.4-0.2h0
			c-0.1-0.3,0.1-0.5,0.4-0.5c0-0.3,0.2-0.4,0.4-0.4l0,0c1.1-1.1,2.6-1.2,4.1-1.3c1,0,1.1,0.5,1,1.2c0.4-0.1,0.7,0,0.8,0.5
			c0.3,0.3,0.6,0.7,0.4,1.2c0.2,0,0.5,0,0.8,0c0,0.1,0,0.2,0,0.3c0,0.1,0,0.2-0.1,0.3c0.2-0.2,0.5-0.2,0.9-0.1c0,0,0,0,0,0l0,0
			c0,0,0,0,0,0c0.2,0.5-0.2,1.1,0.4,1.4c1.1,0.7,2.4,0.9,3.5,1.5c0.4,0.2,0.7,0.5,1,0.9c0,0.3,0,0.5,0,0.8c0,0,0,0,0,0l0,0
			c0,0,0,0,0,0c0,0,0,0,0,0c-0.4,0.1-0.5,0.4-0.4,0.8c0,0,0,0,0,0l0,0c0,0,0,0,0,0c-0.5,0.1-0.5,0.4-0.4,0.8c0,0,0,0,0,0l0,0
			c0,0,0,0,0,0c0,0,0,0,0,0c-0.9,0.5-0.8,1.4-0.8,2.2c0,1.3,0.1,1.3,1.7,0.7c0,0,0,0,0,0l0,0l0,0c0.2,0.1,0.5,0.3,0.7,0.4
			c0,0,0-0.1,0-0.1c0,0,0-0.1,0.1-0.1c0.9,0.7,2,0.9,2.9,0.9c0.2,0,0.5,0,0.7,0c0.1,0,0.2,0,0.4,0c0.4,0.1,0.8,0.3,1.2,0.5
			c0.3,0.2,0.8,0.4,1.2,0.4c0.2,0,0.4,0,0.6,0c0.3-0.1,0.5-0.4,0.5-0.7c0.2-0.4-0.4-1.3-0.7-1.5c0,0,0,0-0.1,0
			c-0.2-0.3-0.4-0.6-0.6-0.9s-0.4-0.6-0.5-0.8c-1.7-1.1-0.6-2.2,0.4-3.2c0,1,0,2.1,0.2,3.1c0.1,0.2,0.2,0.3,0.3,0.5
			c0.4,0.6,1.2,1.1,1.8,1.1c0.2,0,0.4-0.1,0.6-0.1c0.4-0.2,0.7-0.3,0.8-0.3c0,0,0.1,0,0.1,0c0.2,0.1,0.2,0.9,0.3,1.2l0,0.1
			c0.2,1.7,0.9,2,1.6,2c0.1,0,0.2,0,0.4,0c-0.1-0.2-0.2-0.5-0.2-0.8c0.2,0,0.5-0.2,0.8-0.4c0.2-0.5,0.5-0.8,1.1-0.8c0,0,0,0,0,0
			c0.3-0.1,0.6-0.2,0.8-0.4c0.2,0.2,0.3,0.5,0.4,0.7c1.5-0.9,1.7-2.4,1.9-3.7c0.1-0.6,0.2-1.2,0.4-1.7c0.1-0.3,0.1-0.6-0.1-0.8
			c-0.2-0.2-0.4-0.3-0.6-0.3c-0.1,0-0.1,0-0.2,0c-0.5,0.1-0.9,0.2-1.3,0.2c-0.9,0.2-1.7,0.3-2.5,0.6c-0.4,0.1-0.7,0.2-0.9,0.2
			c-0.2,0-0.5,0-0.8-1.2c-0.4-1.9-1-3.8-1.7-5.8c-0.3-0.9-0.6-1.7-0.8-2.7c0-0.1-0.1-0.2-0.2-0.3c0-0.1,0-0.2,0-0.3
			c0-0.6-0.2-1-0.4-1.3C407.5,197.1,407.2,197,407,196.9z M399.4,209.1L399.4,209.1L399.4,209.1L399.4,209.1z M399,209.9L399,209.9
			L399,209.9L399,209.9z M398.5,210.7L398.5,210.7L398.5,210.7L398.5,210.7z"/>
		<path class="st3" d="M433.8,168.2c-0.2-0.9-0.6-1.8-0.4-2.5c-0.2-0.3-0.4-0.5-0.6-0.6c-0.1,0-0.1-0.1-0.2-0.1
			c-1.7,0.3-3.4,0.7-5,1.2c-1,0.3-1.9,0.7-2.9,1c0.1-0.1,0.2-0.2,0.3-0.3c0-0.1,0-0.1,0-0.2c-1.5-0.1-2.8,0.7-4.2,0.9
			c-0.3,0.2-0.4,0.5-0.5,0.9c-0.1,0.3-0.1,0.7-0.2,1.1c0.2,1.5,0.6,3.3,0.8,4.4c0.2,0.9,0.5,1.8,0.6,2.7c0,0,0,0,0,0
			c0,0.2,0,0.4,0,0.6c-0.1,0.5-0.3,1-0.8,1.5c0,0,0.2,0.2,0.2,0.3c-0.1,0.3-0.2,0.6-0.3,0.8c0.1,0,0.2,0,0.3,0c0,0,0,0,0,0
			c0.2,0,0.4,0,0.6-0.1c0.7-0.1,1.2-0.4,1.7-0.9c2.1-2.3,4.8-3.5,8.2-4.7c1.6-0.5,2.6-1,3.1-1.6c0.2-0.2,0.3-0.5,0.3-0.8
			C434.5,171,434.2,169.6,433.8,168.2z"/>
		<path class="st5" d="M413.7,214.1C413.7,214.1,413.7,214.1,413.7,214.1c-0.6,0-0.9,0.3-1.1,0.8c0,0,0,0,0,0c0,0,0,0,0,0l0,0
			c0,0,0,0,0,0c-0.3,0.2-0.6,0.3-0.8,0.4c0,0.3,0.1,0.6,0.2,0.8c0,0,0,0,0,0c0.2,0.5,0.1,0.6,0,0.7c-1.1,1.2-1.1,2.6-1,4
			c0,0.5,0,1,0,1.5c0,0.4,0.2,0.7,0.5,0.8c0.1,0,0.2,0,0.3,0c0.3,0,0.5-0.1,0.7-0.3c1.3-1.8,2-3.4,2.1-5.1c0-0.3,0.1-0.6,0.2-0.9
			c0.2-0.7,0.5-1.6,0.1-2.5c-0.1-0.2-0.2-0.5-0.4-0.7C414.3,213.8,414,214,413.7,214.1z"/>
		<path class="st3" d="M26,158.1c1.2,0.2,2.4,0.7,3.6,1c8.4,2.4,16.8,4.7,25.2,6.9c0.2,0.1,0.3,0.3,0.5,0.5c0.2-0.1,0.3-0.2,0.5-0.2
			c6.8,1.8,23,5.7,23,5.7c0-0.1,0.9-8.9,1.8-12.1c0.6-2.2,0.6-4.5,1.6-6.6c0.1-0.3,0.2-0.6,0.4-0.9c0.1-0.2,0.3-0.3,0.5-0.4
			c0.2-0.1,0.3-0.2,0.4-0.4c-0.1-0.7-0.2-1.4,0.4-1.9c0,0.1,0,0.2,0,0.3c0.1-0.1,0.1-0.2,0.2-0.3c0,0-0.1,0-0.1-0.1
			c-0.1-0.3-0.2-0.6-0.3-0.9c0,0-0.1,0-0.1-0.1c-0.3-0.1-0.8-0.2-1-0.5c-0.1-0.2-0.2-0.4-0.2-0.7c-0.2-0.5,0-0.8,0.3-1.2
			c0-0.1,0.1-0.3,0.1-0.4c0.3-0.9,0.6-1.9,1.2-2.7c0.3-0.4,0.6-0.8,1.1-1.1c0.8-0.6,1.3-1.1,1.8-2c0.4-0.8,0.8-1.6,1.4-2.3
			c0.5-0.6,1-1.1,1.4-1.7c0,0,0,0,0,0c0.1-0.2,0.1-0.4,0.3-0.4c0-0.1,0.1-0.1,0.1-0.2c0-0.3,0.2-0.4,0.4-0.6c0,0,0,0,0,0
			c0.1-0.1,0.2-0.2,0.2-0.4c-0.1,0.1-0.1,0.2-0.2,0.2c0-0.5,0-1,0-1.5c-0.3-0.3-0.7-0.5-1.1-0.8c0,0-0.1-0.1-0.1-0.1
			c-0.5-0.2-0.7-0.6-0.8-1.2c-0.1-0.3-0.3-0.6-0.4-0.9c0,0,0,0,0-0.1c-3.9-0.7-7.6-1.9-11.5-2.7c-1.4-0.3-2.8-1.1-4.3-0.1
			c-0.3,0.2-0.9,0.2-1.2-0.4c-0.6-0.1-1.2,0.3-1.7-0.4c-1.4,0.4-2.8,0.1-4.2,0c-1.1,1.5-2.4,0.9-3.7,0.4c0,0,0,0,0,0c0,0,0,0,0,0
			l0,0c-0.4-0.2-0.7-0.4-0.9-0.8c-0.4,0-0.9,0-1.3,0c0,0-0.1-0.1-0.1-0.1c-0.1-0.1-0.2-0.1-0.3-0.1c0,0-0.1,0-0.2,0
			c-0.6,0-1.3,0.4-1.8-0.1c-3.1-0.9-6.4-0.6-9.5-1.3c0,0,0,0,0,0l0,0l0,0l0,0l0,0c-0.8,0.1-1.3-0.2-1.7-0.8c-0.3,0-0.4-0.2-0.4-0.4
			c-0.9-1-0.4-2.2-0.3-3.2c0.1-0.9-0.2-1.7-0.1-2.5c-0.5,0.1-0.9,0.1-1.2-0.4c-1.2,0.1-1.8-0.9-2.7-1.4c-0.5-0.3-0.9-0.5-1.3-0.5
			c-0.4-0.2-0.8-0.4-1.1-0.6c0,0-0.1,0-0.1,0c-0.5,0.2-1,0.7-1.3,1.7c-0.9,3.2-2.1,6.3-3.3,9.4c-0.9,2.4-1.9,4.8-2.7,7.3
			c-1,3.3-2.8,6.2-4.6,9.1c-0.7,1.2-1.5,2.5-2.2,3.8l0,0.1c-1,1.8-1.7,3.2-1.1,5.3c0,0.1-0.1,0.3-0.2,0.5c-0.1,0.2-0.3,0.5-0.4,0.8
			l-0.1,0.4c-0.4,1.6-0.8,3,0,4.2c0.1,0.2,0.3,0.4,0.5,0.6c0.2-0.2,0.6-0.3,0.9-0.4C24.4,157.7,25.1,157.9,26,158.1z"/>
		<path class="st7" d="M47.3,124.7L47.3,124.7C47.3,124.8,47.3,124.7,47.3,124.7z"/>
		<path class="st3" d="M177.9,113.6c-14.2-0.4-29-2.6-42.9-5.3c-3.8-0.8-7.5-1.9-11.3-2.6c0.1,0-6-0.8-2.9-0.5
			c-1.3-0.1-2.5-0.2-3.8-0.3c-5.2-0.4-10.8-0.5-16.1-1.6c0,0,0,0,0,0c-0.3,3.1-1.4,6.2-1,9.3c0.3,0.7,0.6,1.5,0.8,2.2
			c0.7,0.5,0.6,1,0,1.5c-0.1,0.7-0.2,1.4,0.2,2.1c0,0,0,0,0,0.1c0.2,0.2,0.4,0.4,0.5,0.7c0.2,0.2,0.4,0.4,0.7,0.6
			c0.9,0.8,1.6,1.5,2,2.7c0.4,1,0.6,2.1,1.3,3c0.2,0.2,0.4,0.4,0.8,0.7c0.6,0.4,1.1,0.8,1.5,1.2c0.1,0,0.1,0.1,0.2,0.1
			c0.2,0.1,0.3,0.2,0.5,0.3c0.2,0.4,0.2,0.9,0.2,1.4c-0.1,0.1-0.3,0.2-0.4,0.3c0.1-0.4,0.1-0.7,0-0.9c0,0.2,0,0.3,0,0.5
			c0,0.2,0,0.4-0.1,0.5c0.1,0.3,0.1,0.5-0.2,0.6c-0.3,1.1-0.8,2.1-1,3.1c-0.1,0.6-0.2,1.2-0.3,1.9c0,0.1,0.1,0.2,0.1,0.3
			c0-0.1-0.1-0.1-0.1-0.2c0,0,0,0,0,0.1c0,0.2-0.1,0.5-0.3,0.6c-0.3,0.2-0.9,0.6-1.2,1c0,0.3,0,0.7,0,1c0,0.1,0.1,0.1,0.1,0.1
			c0.7,0.6,1.5,0.4,2.3,0.1c0.4-0.1,0.8-0.2,1.2-0.2c0.1-0.1,0.2-0.2,0.3-0.3c0.2,0.1,0.4,0.1,0.5,0.2c0.1,0.1,0,0.3-0.1,0.3
			c0,0,0.1,0,0.1,0.1c1.6,1.3,1.2,3.9,1.2,5.7c0,2,0.5,3.9,1.2,5.7c0.4,1,0.9,2.1,1.8,2.8c0.6,0.5,1.1,0.5,1.7,0.5
			c1.3-1.1,2.8,0,4.1-0.3c0,0-0.1,0-0.1,0.1c0.1,0,0.3,0,0.4,0c0,0,0,0,0.1,0c0,0-0.1-0.1-0.1-0.1c0.9,0.1,1.9-0.4,2.7,0.3
			c1,0.2,2.1,0.3,2.8-0.6c0.2-0.3,0.4-0.4,0.6-0.5c0.2-0.2,0.4-0.3,0.5-0.3c0.1,0,0.2,0,0.3,0.1c0.2,0.1,0.3,0.4,0.4,0.8
			c0.4,0.4,0.8,1,1.1,1.4c0,0.1,0.1,0.1,0.1,0.2c0.6-0.9,0.5-2,0.6-3.1c0.1-1.2,0.6-1.7,1.9-1.5c6.2,0.8,12.5,1.5,18.7,2.2
			c6.4,0.8,12.9,1.6,19.3,2.3c3.9,0.5,7.8,0.8,11.7,1.3c0.4,0.1,0.8,0.1,1,0c0,0,0.1,0,0.1,0.1c0,0,0-0.1,0-0.1
			c0.2-0.2,0.4-0.5,0.4-1.1c0-0.8,0.2-1.6,0.3-2.3c0.1-0.7,0.2-1.3,0.2-2c0-0.4,0-0.7,0.1-1.1c0,0,0,0,0,0c0.1-1,0.3-1.8,0.4-2.6
			c0-0.2,0-0.4,0-0.6c0-0.1,0.1-0.1,0.2-0.2c0,0,0-0.1-0.1-0.1c0,0,0,0,0.1,0c0.1-0.8,0.2-1.6,0.4-2.4c0-0.5,0.1-1,0.2-1.5
			c0-0.2,0.1-0.4,0.1-0.5c0-0.2,0.1-0.4,0.1-0.6c0,0,0,0,0-0.1c0.1-0.4,0.1-0.8,0-1.2c-0.2-2.9-0.3-5.8,0.8-8.6c0-0.7,0-1.4,0-2.2
			c-0.5-0.3-0.3-0.9-0.3-1.3c0.3-3.9,0.5-7.9,1-11.8c0.1-0.5,0-0.8-0.1-1.1C183.1,113.8,180.5,113.7,177.9,113.6z"/>
		<path class="st3" d="M248.2,209.5c-0.2,0-0.4-0.2-0.4-0.4c-0.4-0.2-0.5-0.4-0.4-0.8c-0.9-0.4-0.6-1.5-1.2-2.1
			c-0.3-0.1-0.5-0.3-0.6-0.5c-0.1-0.1-0.1-0.3-0.2-0.4c0,0,0-0.1-0.1-0.1c-0.1-0.2-0.1-0.4-0.2-0.6c-0.4-0.5-0.6-1.1-0.5-1.7
			c-0.4-1.4-0.7-2.9-0.9-4.4c-0.6,0-0.4-0.6-0.2-0.9c0,0,0-0.1,0-0.1c-0.2-1-0.5-2.1-0.8-3.1c-0.1-0.1-0.2-0.2-0.2-0.3
			c-0.4-0.4-0.4-0.8-0.4-1.2c-0.3-0.8-0.6-1.5-0.9-2.3c-0.6-0.8-1-1.7-1-2.7c-0.5-1.5-0.9-3-1.2-4.6c0-0.1-0.1-0.4-0.1-0.4
			s0-0.4,0-0.4c0-0.1-0.3,0-0.3,0s-1.7,0-2.6-0.1c-0.6-0.5-1.4-0.8-2.1-0.9c-0.5-0.4-1-0.4-1.6,0c0,0-0.1,0-0.1,0
			c-0.2,0-0.3,0.1-0.5,0.1c-0.1,0-0.2,0-0.2,0.1c-0.5,0.2-1.1,0.4-1.6,0.4c-0.1,0-0.2,0-0.2,0c-0.3-0.1-0.5-0.4-0.7-0.6
			c-0.2-0.4-0.3-0.8-0.7-1.1c-0.4-0.3-0.8-0.3-1.3-0.2c-0.4-0.1-0.9,0.1-1.3,0.3c-0.3,0-0.5-0.1-0.6-0.5c-0.1-0.3-0.2-0.6-0.4-0.9
			c-0.3-0.5-1-0.5-1.5-0.5c-1.1-0.1-2.2-0.3-3.3-0.5l-3.2-0.2c-1.2,0-2.5,0.1-3.7,0c-2.3,0-4.6-0.3-6.9-0.3c0,0-0.1,0-0.1,0
			c-2.9-0.2-5.9-0.3-8.8-0.5l0,0c-1.4-0.1-2.8-0.2-4.3-0.3c-0.3-0.1-0.6-0.1-0.9-0.1c-3.1-0.2-6.2-0.4-9.3-0.4c-0.6,0-1-0.1-1.2-0.3
			c0,0.1,0,0.1,0,0.2c0,0.2,0,0.5-0.1,0.7c-0.3,0.2-0.4,0.6-0.5,1.3c-0.4,6.1-0.9,12.1-1.5,18.2c0,0.2,0,0.5,0,0.6
			c-0.1,0.1-0.1,0.2-0.2,0.3c0.1,0,0.2,0,0.3,0c0.2,0.3,0.5,0.4,1.2,0.5c4.3,0.3,8.5,0.8,12.8,1c1.5,0.1,1.7,0.7,1.6,1.9
			c-0.2,2.3-0.2,4.6-0.4,6.8c-0.1,0.6,0,1.1,0.2,1.4c0,0.1,0,0.1,0,0.2c0,0,0.1,0,0.1,0c0.3,0.2,0.6,0.3,1.2,0.3
			c16.7,0.5,33.3,1,50,1.6c0.7,0,1.4,0.1,1.8-0.3C248.3,210.6,248.4,210.2,248.2,209.5z"/>
		<path class="st3" d="M128.5,153.8c-0.3-0.4-0.7-1-1.1-1.4c-0.1-0.4-0.2-0.6-0.4-0.8c-0.1,0-0.2-0.1-0.3-0.1
			c-0.2,0-0.3,0.1-0.5,0.3c-0.2,0.1-0.4,0.2-0.6,0.5c-0.7,1-1.8,0.8-2.8,0.6c-0.8-0.7-1.8-0.2-2.7-0.3c0,0,0.1,0.1,0.1,0.1
			c0,0,0,0-0.1,0c-0.1,0-0.3,0-0.4,0c0,0,0.1,0,0.1-0.1c-1.2,0.3-2.7-0.9-4.1,0.3c-0.6,0.1-1.2,0-1.7-0.5c-0.9-0.7-1.4-1.8-1.8-2.8
			c-0.7-1.8-1.2-3.8-1.2-5.7c0-1.8,0.3-4.4-1.2-5.7c0,0-0.1,0-0.1-0.1c0.1,0,0.2-0.2,0.1-0.3c-0.1-0.1-0.3-0.2-0.5-0.2
			c-0.1,0.1-0.2,0.2-0.3,0.3c-0.4,0-0.8,0.1-1.2,0.2c-0.8,0.2-1.6,0.4-2.3-0.1c-0.1,0-0.1-0.1-0.1-0.1c0-0.3,0-0.7,0-1
			c0.3-0.5,0.9-0.9,1.2-1c0.2-0.1,0.3-0.3,0.3-0.6c0,0,0,0,0-0.1c0,0.1,0.1,0.1,0.1,0.2c0-0.1-0.1-0.2-0.1-0.3
			c0-0.6,0.1-1.3,0.3-1.9c0.2-1.1,0.7-2.1,1-3.1c0.2-0.1,0.2-0.4,0.2-0.6c0-0.2,0.1-0.4,0.1-0.5c0-0.2,0-0.3,0-0.5
			c0.1,0.2,0.1,0.5,0,0.9c0.2-0.1,0.3-0.2,0.4-0.3c0-0.5,0-0.9-0.2-1.4c-0.1-0.1-0.3-0.2-0.5-0.3c-0.1,0-0.1-0.1-0.2-0.1
			c-0.4-0.5-0.9-0.8-1.5-1.2c-0.4-0.3-0.7-0.5-0.8-0.7c-0.7-0.8-0.9-2-1.3-3c-0.4-1.1-1.1-1.9-2-2.7c-0.2-0.2-0.5-0.4-0.7-0.6
			c-0.1-0.3-0.3-0.5-0.5-0.7c0,0,0,0,0-0.1c-0.4-0.7-0.3-1.4-0.2-2.1c0.5-0.5,0.6-1,0-1.5c-0.2-0.8-0.5-1.5-0.8-2.2
			c-0.4-3.1,0.7-6.2,1-9.3c0,0,0,0,0,0c-1.7-0.3-3.3-0.8-4.9-1.3c-0.6-0.2-1.2-0.4-1.8-0.7c0,0,0,0-0.1,0.1c0,0.5,0.2,1-0.4,1.2
			c-0.1,0.5-0.3,0.9-0.4,1.4c-0.2,0.8-0.3,1.6-0.1,2.4l0,0c-1.4,6.3-2.8,12.5-4.2,18.8c-0.1,0.6,0,1.3-0.8,1.5c0,0.4,0,0.8,0,1.3
			c0.6,0.5,0.6,1.1,0,1.6c0,0.5,0,0.9,0,1.4c-0.1,0.1-0.2,0.2-0.4,0.2c0.1,0.3,0.3,0.6,0.4,0.9c0.1,0.6,0.3,1,0.8,1.2
			c0,0,0.1,0.1,0.1,0.1c0.4,0.3,0.8,0.5,1.1,0.8c0,0.5,0,1,0,1.5c0.1-0.1,0.1-0.2,0.2-0.2c-0.1,0.1-0.1,0.2-0.2,0.4c0,0,0,0,0,0
			c-0.3,0.1-0.5,0.3-0.4,0.6c0,0.1-0.1,0.1-0.1,0.2c-0.2,0-0.2,0.2-0.3,0.4c0,0,0,0,0,0c-0.4,0.6-1,1.1-1.4,1.7
			c-0.5,0.7-0.9,1.5-1.4,2.3c-0.5,0.9-1,1.4-1.8,2c-0.4,0.3-0.8,0.6-1.1,1.1c-0.5,0.8-0.9,1.8-1.2,2.7c0,0.1-0.1,0.2-0.1,0.4
			c-0.3,0.3-0.5,0.7-0.3,1.2c0,0.3,0,0.5,0.2,0.7c0.2,0.3,0.7,0.4,1,0.5c0.1,0,0.1,0,0.1,0.1c0.1,0.3,0.2,0.6,0.3,0.9
			c0,0,0.1,0,0.1,0.1c0,0.1-0.1,0.2-0.2,0.3c0-0.1,0-0.2,0-0.3c-0.6,0.6-0.4,1.3-0.4,1.9c-0.1,0.1-0.2,0.3-0.4,0.4
			c-0.2,0.1-0.3,0.2-0.5,0.4c-0.2,0.3-0.3,0.6-0.4,0.9c-1,2.1-1,4.4-1.6,6.6c-0.9,3.3-1.5,6.6-2.1,9.9c-0.1,0.6,0.4,2.2,0.4,2.2
			s0.7,0,1.5,0.1c7,1.3,14,2.7,21,4c0,0,0.1,0.1,0.1,0.2c0.1,0,0.1-0.1,0.2-0.1c4.4,0.9,8.8,1.7,13.2,2.6c1.7,0.4,3.7,0.2,5.2,1.4
			l0,0l0,0c0,0,0,0,0,0c0,0,0.1,0,0.1,0c0.9,0.1,1.7,0.6,2.6,0.2l0,0c0.6,0.2,1.1,0.2,1.4,0.1c0,0,0.1,0.1,0.1,0.1
			c0-0.1,0-0.1,0-0.2c0.4-0.3,0.7-0.9,0.8-1.8c1-7.8,2.1-15.7,3.2-23.5c0-0.4,0-0.7-0.1-1.1C128.4,154.3,128.4,154,128.5,153.8z"/>
		<path class="st2" d="M294.1,262c0.1-0.8,0.1-1.7,0-2.5c-0.1-0.5-0.1-1,0.2-1.4c0.4-0.5,0.9-0.7,1.2-1.3c0.2-0.4,0.4-0.8,0.6-1.3
			c0.4-0.8,0.8-1.5,0.9-2.3c-0.1-0.2-0.2-0.3-0.3-0.4c0-0.1,0-0.1,0-0.2c-0.1,0-0.1,0.1-0.2,0.1c-0.3-0.1-0.6-0.1-1,0
			c-1,0.2-2,0.2-3,0.3c-0.3-0.1-0.7-0.3-1-0.6c-0.1-0.1-0.2-0.2-0.2-0.3c0.1-0.3,0.3-0.4,0.7-0.3c-0.2-0.4,0.1-0.5,0.4-0.4
			c0.1-0.7,0.7-0.9,1.2-1.2c0.2-0.7-0.2-1.4-0.4-2c-0.3-0.1-0.6-0.4-0.9-0.4c-4.7,0.1-9.4,0-14.1,0.5c-3.4,0.3-6.9,0.1-10.3,0.2
			c-4.2,0.2-8.4,0-12.7,0c0,0.2,0,0.4,0,0.5c-0.2-0.1-0.4-0.2-0.5-0.4c0,0-0.1-0.1-0.1-0.1c0,0.7,0.1,1.4,0.2,2.1c0,0,0,0,0,0
			c0,0,0,0,0,0.1c0,0.2,0.1,0.5,0.1,0.7c0.1,1.2,0.2,2.3,0.4,3.5c0.2,1.3,0.6,2.5,0.8,3.8l0,0c0.2,4.4,0.2,8.8-0.2,13.2
			c0,0.3,0,0.5,0,0.8c0,0.1,0,0.2,0,0.3c0,0.3,0,0.5,0,0.8c0,1.4,0,2.9,0,4.3c0,0.4-0.1,0.6-0.3,0.7c0,0-0.1,0-0.1,0
			c0,0.1,0,0.1,0,0.2l0,0.1c0,0.2,0.1,0.4,0.2,0.5c0.1,0,0.1,0,0.2,0c0.1,0,0.2-0.1,0.3-0.1c1.5,0.1,3,0.3,4.1,1.3
			c0.1,0.3,0.2,0.6,0.1,0.9c-0.1,0.6,0,1.2,0,1.9c0,0.7,0,2.1,0,2.8c0.2,0.3,0.9,0.1,0.9,0.1l0.1-0.1c0,0,0.5-0.1,0.8-0.1
			c1.6,0.1,3.3,0,4.9,0c0.4,0,0.9,0,1.3,0c0.7-0.1,1.6-0.1,2.5-0.1c0.8,0,1.6,0,2.5,0.1c0.1,0,0.3,0,0.4,0c0.5,0,0.9-0.1,1.4-0.2
			c2-0.1,4-0.2,6-0.2c1.6,0,3.4-0.5,4.6,0.1c0.1,0,0.1-0.1,0.2-0.1c-0.1-0.3-0.1-0.6-0.1-0.9c0.4-0.4,0.7-1,0.8-1.9c0-0.3,0-0.7,0-1
			c-0.8-0.3-0.7-1-0.8-1.7c-1.7-1.6-0.1-2.2,0.7-3c0.1-0.2,0.3-0.4,0.4-0.6l0,0c-0.2-0.3-0.2-0.6-0.3-0.8c0-0.2,0-0.4,0.1-0.6
			c0.2-0.9,1-1.6,1.1-2.5l0,0c0.3-1.3,0.4-2.7,2.1-3c0.3-0.3,0.5-0.5,0.8-0.8c0.2-1.3-0.5-2.7,0.8-3.8c0.5-0.7,1-1.3,1.5-2
			c0.3-0.1,0.5-0.2,0.8-0.3c-0.1-0.2-0.2-0.4-0.3-0.6C294,262.4,294.1,262.2,294.1,262z"/>
		<path class="st3" d="M342.4,242.1c-5.1,0.5-10.2,0.9-15.2,1.4l0,0c-2.1,0.2-4.1,0.3-6.2,0.5l0,0c-2.3,0.6-4.7,0.5-7.1,0.8
			c-0.3-0.2-0.7-0.2-0.9-0.2c-0.9,0.1-1.5,0.8-2.3,1.2h0c-0.6,1.1-1.7,0.6-2.6,0.7c-2.6,0.4-5.3,0.2-7.9,0.9
			c-0.1-0.1-0.2-0.1-0.3-0.2c0,0.1,0,0.2,0,0.3c-0.3,0.1-0.5,0.2-0.8,0.3c0,0.3-0.1,0.7-0.4,0.8c-0.2,0.9-0.3,1.9-0.5,2.8
			c0,0.1,0,0.2-0.1,0.3c-0.3,0.4-0.6,0.7-1.1,1c0,0.1,0,0.1,0,0.2c0.1,0.1,0.2,0.2,0.3,0.4c-0.2,0.8-0.5,1.5-0.9,2.3
			c-0.2,0.4-0.4,0.8-0.6,1.3c-0.3,0.6-0.8,0.8-1.2,1.3c-0.4,0.4-0.3,0.9-0.2,1.4c0.1,0.9,0.1,1.7,0,2.5c-0.1,0.2-0.2,0.4-0.3,0.6
			c0.1,0.2,0.2,0.4,0.3,0.6c0.3-0.1,0.7-0.2,1-0.2c1.1,0.5,2.7,0.2,4.1,0.1c4.1-0.3,8.2-0.6,12.4-0.9c0.1,0.1,0.2,0.1,0.3,0.2
			c0.1-0.1,0.2-0.1,0.3-0.2c7-0.6,14.1-1.2,21.1-2c0.1,0.1,0.3,0.1,0.4,0.2c0.1-0.1,0.2-0.2,0.3-0.3c2-0.2,4-0.5,6.1-0.7
			c0.6-0.1,1.1-0.3,1.4-0.5c0.2,0,0.5-0.1,0.7-0.1c-0.1-0.1-0.2-0.3-0.2-0.4c0.3-0.3,0.5-0.7,0.7-1.1c0.4-0.2,0.6-0.5,1-0.8
			c0,0,0,0,0,0c0,0,0,0,0.1,0c0,0,0.1-0.1,0.1-0.1c0,0,0.1,0,0.1-0.1c0,0,0.1,0,0.1,0c0.1,0,0.2,0,0.3-0.1c0-0.1,0-0.3,0.1-0.4
			c-0.1-0.5-0.5-1,0.2-1.3c0.1-1.3,1.2-1.5,2.1-1.9c0.9-0.4,1.9-0.7,2.9-1c0.1-0.1,0.3-0.3,0.4-0.4c0,0,0,0,0,0l0,0l0,0l0,0
			c0.2-0.3,0.4-0.6,0.8-0.4c0.3-0.7,0.9-0.9,1.6-0.8c-0.1-0.7,0.4-1.2,0.8-1.6c0,0,0,0,0,0l0,0l0,0c0.1-0.5,0.5-0.5,0.8-0.4
			c0.4-1.6,2-0.9,2.9-1.6c0.2-0.4,0.4-0.6,0.8-0.5c-0.1-0.4,0.2-0.3,0.4-0.4c0.5-0.7,1.5-0.1,2.1-0.8c0-0.3,0-0.7,0.4-0.9
			c0-0.3,0-0.7,0.4-0.8c0.1-0.2,0.2-0.4,0.3-0.4c1.2-0.4,1.1-1.4,0.8-2.2c-0.1-0.2-0.1-0.3-0.2-0.4c-0.4-0.3-1,0.1-1.5,0.1
			c-3.3,0.2-6.5,0.6-9.8,1.2c-0.1-0.1-0.2-0.2-0.3-0.3c-0.5,0.2-1,0.4-1.6,0.6C346.7,241.5,344.6,241.9,342.4,242.1z"/>
		<path class="st3" d="M123.5,189.8C123.5,189.8,123.5,189.8,123.5,189.8c0,0.4,0.1,0.8,0.6,1c0.4,0.2,0.8,0.3,1.3,0.4
			c0.7,0.1,1.5,0.1,2.2,0.3c0.4,0.1,0.7,0.1,1.1,0.2c3.1,0.5,6.1,1,9.2,1.4c0.2,0,0.4,0.1,0.6,0.1c0.1,0.1,0.2,0.2,0.3,0.3
			c0.1-0.1,0.2-0.2,0.3-0.2c0,0,0,0,0,0c0.8,0.1,1.5,0.2,2.3,0.3c0.8,0,1.5,0.1,2.2,0.2c4,0.5,7.9,0.9,11.9,1.4l0.5,0.1
			c2.2,0.4,4.4,0.7,6.6,0.9c0.3,0,0.6,0,0.9,0.1c0,0,0,0,0,0c0.8,0.1,1.5,0.2,2.3,0.3c0,0,0-0.1-0.1-0.1c2.4,0.2,4.9,0.4,7.3,0.7
			c1.6,0.1,3.2,0.3,4.8,0.4c0.1,0,0.2-0.1,0.3-0.1c0.4,0,0.7,0.1,1.1,0.1c0.1-0.1,0.1-0.2,0.2-0.3c0-0.2,0-0.4,0-0.6
			c0.6-6.1,1.1-12.1,1.5-18.2c0-0.7,0.2-1.1,0.5-1.3c0-0.2,0-0.5,0.1-0.7c0-0.1,0-0.1,0-0.2c-0.3-0.3-0.4-0.7-0.3-1.5
			c0.6-6.1,1-12.1,1.5-18.2c0-0.2,0-0.5,0.1-0.7c-0.2-0.4-0.4-0.6-0.8-0.8c0,0-0.1,0-0.1-0.1c-0.2,0.1-0.6,0.1-1,0
			c-3.9-0.5-7.8-0.9-11.7-1.3c-6.4-0.8-12.9-1.5-19.3-2.3c-6.2-0.7-12.5-1.5-18.7-2.2c-1.3-0.2-1.8,0.3-1.9,1.5
			c-0.1,1,0,2.1-0.6,3.1c0-0.1-0.1-0.1-0.1-0.2c0,0.3-0.1,0.5-0.1,0.8c0.1,0.4,0.2,0.8,0.1,1.1c-1.1,7.8-2.2,15.7-3.2,23.5
			c-0.1,0.9-0.3,1.5-0.8,1.8c0,0.1,0,0.1,0,0.2c0.3,0.4,0.5,0.9,0.6,1.4C124.4,184.6,123.8,187.2,123.5,189.8z"/>
		<path class="st5" d="M123.1,190.3c0,0-0.1,0.1-0.1,0.1c0.1,0.1,0.1,0.2,0.2,0.3c0,0,0,0,0.1,0.1c0,0.1,0.1,0.1,0.1,0.2
			c0,0,0,0,0.1,0.1c0,0,0.1,0.1,0.1,0.1c0,0,0,0,0.1,0c0.1,0.1,0.1,0.1,0.2,0.1c0,0,0,0,0,0c0.1,0,0.1,0.1,0.2,0.1c0,0,0,0,0.1,0
			c0.1,0,0.1,0,0.2,0.1c0,0,0,0,0.1,0c0.1,0,0.1,0,0.2,0.1c0,0,0,0,0,0c0.1,0,0.2,0,0.3,0c-0.5-0.1-1.2-0.3-1.5-0.7
			C123.2,190.6,123.1,190.4,123.1,190.3z"/>
		<path class="st3" d="M335,215.9C335,215.9,335,215.9,335,215.9c0.1-0.1,0-0.4-0.1-0.5c0-0.3-0.1-0.5-0.1-0.8
			c-0.6-1.9-0.9-3.8-0.9-5.8c0-0.8,0-1.6,0-2.5l0,0c-0.3-3-0.7-6.1-1-9.1c0.1,0,0.2,0,0.3,0c-0.1-0.9-0.1-1.8-0.2-2.6
			c-0.1-1.2-0.3-2.4-0.5-3.6c0,0-0.1,0.1-0.1,0.1c-0.4-1-0.4-2-0.4-3c0-0.1,0.1-0.2,0.1-0.3c-0.1,0-10.5,0-15.1,1.3
			c-0.2,0-0.3-0.2-0.5-0.3c-0.1-0.1-0.1-0.2-0.1-0.4c-1.1,0.3-2.1,0.8-3.1,1.3c-0.2,0.1-0.4,0.2-0.6,0.2c0,0,0,0,0,0
			c-0.2,0-0.5-0.1-0.6-0.1c-0.4,0-0.8,0.1-1,0.3c0.1,0.3,0.2,0.6,0.3,0.9c-0.2,0.3-0.1,0.8-0.1,1.3c0.5,6,0.8,12,1.4,18
			c0.3,2.9,0.1,5.7,0.3,8.6c0.6,1.1,1.1,2.1,0.7,3.3c0,0,0,0,0,0c-0.2,1.2-0.9,2.7-1.6,3.7c-0.5,0.7-1,1-1.4,1.8
			c0,1-0.4,2.4-0.1,3.4c0.1,0.3,4.3-1.3,6.6,0.3c1.2,0.1,0.9-1,1.2-1.5c0.6-0.9,1.4-1.7,2.1,0c1.7,0.9,2-0.6,2.4-1.5
			c0.5-1,0.8-1.4,1.7-0.4c1.1,1.2,2.3,0.7,2.7-0.6c0.6-1.8,2.1-3,3.1-4.5c0.3-0.4,0.8-0.8,0.8-1.4c0-0.2,0-0.3,0-0.5
			c0-0.3,0.1-0.4,0.3-0.6c0,0,0,0,0.1,0c0,0,0,0,0,0c0.4-0.2,0.9-0.1,1.4,0c0,0,0,0,0,0c0.4-0.3,0.8-0.7,1.1-1l0,0c0,0,0,0,0,0
			c0.2-0.6,0.8-0.5,1.2-0.5C335.3,218,335.2,217,335,215.9z"/>
		<path class="st3" d="M301,241.8C301,241.7,301,241.7,301,241.8c-0.1-0.1-0.2,0-0.3,0c0,0-0.1,0-0.1,0c-0.2,0-0.5-0.1-0.6-0.2
			c-0.1-0.1-0.1-0.2-0.1-0.4c-0.1,0-0.2-0.1-0.2-0.2c-0.5-0.1-0.6-0.5-0.7-1.1c-0.4-1-0.4-2.4-0.5-3.6c-0.4-0.6-0.6-1.3-0.6-2
			c-0.1-0.1-0.2-0.2-0.3-0.3c-0.3,0-0.4-0.1-0.6-0.4c0,0,0,0,0,0c0,0-0.1,0-0.1-0.1c0,0,0,0,0,0c-0.4-0.1-0.8-0.2-1-0.5
			c-0.8-0.3-1.6-0.6-2.3-1c0,0,0,0,0,0c0,0,0-0.1,0-0.1c0,0-0.1,0-0.2-0.1c-0.3-0.3-0.6-0.6-0.8-1c-0.6-1.5-0.2-3.2-0.2-4.8
			c0-1-0.1-2.2-0.6-3.2c-0.1-0.3-0.4-0.6-0.6-0.9c-0.4-0.2-0.8-0.3-1.1-0.7c-0.2,0-0.4-0.1-0.5-0.1c-0.3,0.2-0.5,0.4-0.8,0.3
			c0,0,0-0.1,0.1-0.1c-0.1,0-0.3,0.1-0.4,0.1c0.1,0,0.2,0,0.3,0c0,0.1-0.1,0.2-0.1,0.3c-0.1,0-0.2,0-0.3,0c-0.3,0-0.6-0.1-0.8-0.2
			c0,0,0,0,0-0.1c-0.4-1-0.8-1.9-1.1-2.9c-0.1-0.2-0.2-0.4-0.3-0.6c-0.4-0.6-0.8-1.1-1.3-1.6c-0.3-0.1-0.5-0.2-0.6-0.5l0,0
			c-0.2-0.1-0.3-0.3-0.5-0.4c0,0,0,0,0,0c-0.1-0.1-0.2-0.2-0.3-0.3c-0.2,0-0.4-0.1-0.4-0.3c-0.8-0.6-1.5-1.3-2-2.2
			c-0.6-0.9-0.8-1.9-0.8-2.8c-0.2-0.7,0-1.5,0-2.3c0,0,0-0.1,0-0.1c0-0.3,0-0.6-0.1-0.9c-0.1-0.3-0.2-0.6-0.5-0.9
			c-0.8-1.4-2.2-1.7-3.7-1.6c-0.7,0-1.3,0.1-2,0.1c-0.7,0-1.3,0-2,0l0,0c-4.9,0.5-9.9,0.5-14.8,0.7c-3.2,0.1-6.4,0.3-9.5,0.4
			c-0.5,0-1.2-0.2-1.4,0.2l-0.4,0.2c0,0-0.1,0-0.1,0c0.1,0.1,0.1,0.2,0.3,0.3c0.1,0.1,0.1,0.2,0.2,0.4c0.1,0.1,0.1,0.2,0.2,0.3
			c0.8,1.8,0.8,3.9,2.8,5.2c0.2,0.1,0.4,0.2,0.5,0.3c0.2,0.1,0.3,0.3,0.4,0.4c0.6,1.1,0.9,2.6,1.4,4.1c0.1,0.2,0.1,0.4,0.2,0.6
			c0.5,1.6,2.6,2.6,3.3,5.4c0,0.2,0,0.4,0,0.7c0,6.3,0,12.5,0,18.8c0,0.7-0.1,1.1-0.5,1.2c0,0.2,0,0.5,0,0.7
			c0.4,0.2,0.5,0.6,0.5,1.2c-0.1,1.1,0,2.2,0,3.3c0,0,0.1,0.1,0.1,0.1c0.2,0.2,0.3,0.3,0.5,0.4c0-0.2,0-0.4,0-0.5
			c4.3,0,8.5,0.1,12.7,0c3.4-0.1,6.8,0.1,10.3-0.2c4.7-0.5,9.4-0.4,14.1-0.5c0.3,0,0.6,0.2,0.9,0.4c0.2,0.7,0.6,1.3,0.4,2
			c-0.5,0.3-1.1,0.5-1.2,1.2c-0.3-0.1-0.6,0-0.4,0.4c-0.5-0.1-0.6,0-0.7,0.3c0.1,0.1,0.1,0.3,0.2,0.3c0.3,0.2,0.6,0.4,1,0.6
			c1-0.1,2-0.1,3-0.3c0.4-0.1,0.8-0.1,1,0c0.1,0,0.1-0.1,0.2-0.1c0.4-0.3,0.8-0.6,1.1-1c0-0.1,0-0.2,0.1-0.3
			c0.2-0.9,0.3-1.9,0.5-2.8c0.4-0.2,0.4-0.5,0.4-0.8c0.3-0.1,0.5-0.2,0.8-0.3c0-0.1,0-0.2,0-0.3c-0.2-0.2-0.3-0.5-0.4-0.9
			c0.2-0.1,0.4-0.2,0.8-0.2l0,0c1.9-0.9,1.6-2.6,1.7-4.2C301.6,241.7,301.3,241.7,301,241.8z"/>
		<path class="st7" d="M292.1,230.3c0,0,0.1,0.1,0.1,0.1c0,0-0.1,0.1-0.1,0.1c0,0-0.1,0-0.1-0.1C292,230.4,292.1,230.4,292.1,230.3z
			"/>
		<polygon class="st6" points="286.1,194.1 286,194.1 286.1,194.1 		"/>
		<path class="st6" d="M342.9,300L342.9,300L342.9,300C342.9,300,342.9,300,342.9,300z"/>
		<polygon class="st6" points="342.5,289.6 342.5,289.6 342.5,289.6 		"/>
		<path class="st3" d="M379.4,286.3c-0.2-0.2-0.9,0.2-1.1-0.4c0,0-0.1,0-0.1,0c-0.4-0.2-0.7-0.4-1.1-0.6c0,0,0,0,0,0l0,0
			c-0.4-0.9-0.6-1.7-0.6-2.7c-0.5-0.3-0.5-0.7-0.4-1.2c-2.1,0.1-2.5-1.2-2.5-2.9c-1.6-0.1-1.7-1.6-2.5-2.5c-0.7,0.1-1.2-0.2-1.3-0.9
			c-0.4-0.3-0.7-0.7-1-1.1c-0.5-0.7-0.8-1.4-1.4-2.1c-0.6-0.2-1.5,0-1.7-0.9c-0.3,0-0.5-0.1-0.4-0.4c-0.4,0.2-0.7-0.1-0.8-0.4
			c0,0,0,0,0,0c-0.1-0.1-0.3-0.3-0.4-0.4c-0.5-0.1-0.8-0.4-0.9-0.8c-1.3-1.2-2.8-2-3.2-4c0-0.1-0.1-0.2-0.2-0.3
			c-0.3-0.3-0.8-0.5-1.1-0.7l0,0c-0.9-0.3-1.9-0.6-2.6-1.3c-0.4,0-0.7,0-0.9-0.4c-0.3,0-0.7,0-0.8-0.4c-0.5-0.1-0.8-0.3-0.8-0.8
			c-0.6-0.3-0.4-0.5,0-0.8c0-0.3,0-0.7,0.4-0.8c0.1-0.4,0.4-0.6,0.8-0.4c0-0.4-0.2-0.7-0.4-0.8c0,0,0,0,0,0c0,0-0.1,0-0.1,0
			c-0.2-0.1-0.5-0.1-0.9-0.1c-3.5,0.5-6.9,1-10.4,1.4c-0.3-0.1-0.6-0.2-0.9-0.5c-0.1-0.1-0.1-0.1-0.2-0.2c-0.2,0-0.5,0.1-0.7,0.1
			c-0.4,0.3-0.8,0.4-1.4,0.5c-2,0.3-4,0.5-6.1,0.7c-0.1,0.1-0.2,0.2-0.3,0.3c0,0-0.1,0.1-0.1,0.1c-0.1,0.2-0.2,0.5-0.2,0.7
			c0.2,0.2,0.4,0.5,0.5,1c0.9,3.2,1.8,6.5,2.9,9.6c1.3,3.7,1.9,7.7,3.7,11.2c0,0,0,0,0,0c0.2,1.1,0.1,2.3,1.2,2.9
			c-0.2,0.6,1,0.7,0.6,1.4c0,0,0,0,0,0l0,0c0.1,0.6,0.2,1.2,0.3,1.9c0,0.1,0,0.3-0.1,0.4l0,0l0,0l0,0l0,0c0,0,0,0,0,0
			c-0.5,1.8-1.4,3.5-0.4,5.4c0,0,0,0,0,0l0,0l0,0c0,0.4,0,0.7,0.4,0.9c0.8,1.3-0.6,2.8,0.4,4.1c0,0,0,0,0,0c0.2,0.5,0.3,1,0.8,1.3
			c-0.1,0.1-0.2,0.4-0.4,0.4c-0.1,0-0.2,0-0.3,0c0,0,0,0,0,0l0,0c0.1,0.1,0.2,0.2,0.3,0.3c0,0.1,0,0.1,0,0.2
			c0.3,0.1,0.6,0.3,0.8,0.7c0,0,0,0,0,0l0,0c0,0,0,0,0,0c0.5,0.3,0.1,1.1,0.8,1.3c0.4,1.2,1.4,0.8,2.2,0.8
			c6.7-0.4,13.5-0.8,20.2-1.4c1.3-0.1,2.1,0.2,2.9,1c0,0,0,0,0,0l0,0l0,0l0,0c0.2,0.6,0.7,0.9,1.2,0.8c0.2-0.1,0.4-0.2,0.5-0.3
			c0.1-0.3-0.1-0.7,0-1c0.2-1.2-0.7-2.4-0.3-3.6c0.5-0.4,1-0.3,1.5,0c0.1,0.4,0.5,0.4,0.8,0.4c0.9-0.1,1.6-0.1,2.2,0.2
			c0.1-0.1,0.3-0.2,0.4-0.3c0.1-0.1,0.1-0.2,0.2-0.3c0.3-0.6,0.2-1.4,0.1-2c-0.7-3.5,0.7-6.4,2.2-9.5c0.3-0.7,0.7-1.5,1-2.2
			c0.1-0.2,0.1-0.5,0-0.7c-0.2,0.2-0.5,0.5-0.8,0.6C379.3,286.4,379.3,286.4,379.4,286.3z M342.5,289.6L342.5,289.6L342.5,289.6
			L342.5,289.6z M342.9,300C342.9,300,342.9,300,342.9,300L342.9,300L342.9,300z"/>
		<polygon class="st8" points="365.4,270.5 365.4,270.5 365.3,270.5 365.4,270.5 		"/>
		<path class="st8" d="M376.1,281.3C376.2,281.3,376.2,281.3,376.1,281.3L376.1,281.3L376.1,281.3z"/>
		<polygon class="st8" points="353.7,261 353.7,261 353.7,261 		"/>
		<path class="st8" d="M371.2,275.9L371.2,275.9C371.2,275.9,371.2,275.9,371.2,275.9C371.2,275.9,371.2,275.9,371.2,275.9
			C371.2,275.9,371.2,275.9,371.2,275.9z"/>
		<path class="st8" d="M373.6,278.4C373.6,278.4,373.6,278.4,373.6,278.4C373.6,278.4,373.6,278.4,373.6,278.4
			C373.6,278.4,373.6,278.4,373.6,278.4C373.6,278.4,373.6,278.4,373.6,278.4z"/>
		<polygon class="st8" points="371.2,275.9 371.2,275.9 371.2,275.9 		"/>
		<path class="st8" d="M353.7,260.9C353.7,260.9,353.7,260.9,353.7,260.9C353.7,260.9,353.7,261,353.7,260.9L353.7,260.9z"/>
		<path class="st8" d="M354.5,261.8C354.5,261.8,354.5,261.8,354.5,261.8C354.5,261.8,354.6,261.8,354.5,261.8L354.5,261.8z"/>
		<path class="st8" d="M365.7,270.9C365.7,270.9,365.7,270.9,365.7,270.9C365.8,270.9,365.8,270.9,365.7,270.9L365.7,270.9z"/>
		<path class="st8" d="M355.4,262.2C355.4,262.2,355.4,262.2,355.4,262.2C355.4,262.2,355.4,262.2,355.4,262.2L355.4,262.2z"/>
		<path class="st8" d="M376.1,281.3C376.1,281.3,376.1,281.3,376.1,281.3C376.1,281.3,376.1,281.3,376.1,281.3
			C376.1,281.3,376.1,281.3,376.1,281.3z"/>
		<path class="st8" d="M376.5,282.5C376.5,282.5,376.5,282.5,376.5,282.5C376.5,282.5,376.6,282.5,376.5,282.5L376.5,282.5z"/>
		<path class="st8" d="M353.7,260.1C353.7,260.1,353.7,260.1,353.7,260.1C353.7,260.1,353.7,260.1,353.7,260.1L353.7,260.1z"/>
		<path class="st8" d="M355,258.9C355,258.9,355,258.9,355,258.9L355,258.9L355,258.9z"/>
		<path class="st8" d="M364.1,269.7L364.1,269.7C364.1,269.6,364.1,269.7,364.1,269.7C364.1,269.7,364.1,269.7,364.1,269.7
			L364.1,269.7z"/>
		<path class="st8" d="M355,258.9C355,258.9,355,258.9,355,258.9C355,258.9,355,258.9,355,258.9C355,258.9,355,258.9,355,258.9z"/>
		<path class="st8" d="M365.3,270.5C365.3,270.5,365.3,270.5,365.3,270.5C365.3,270.5,365.3,270.5,365.3,270.5
			C365.3,270.5,365.3,270.5,365.3,270.5z"/>
		<path class="st8" d="M356.2,262.6C356.2,262.6,356.2,262.6,356.2,262.6C356.2,262.6,356.2,262.6,356.2,262.6L356.2,262.6z"/>
		<path class="st8" d="M354.2,259.3C354.1,259.3,354.1,259.3,354.2,259.3C354.1,259.3,354.1,259.3,354.2,259.3L354.2,259.3z"/>
		<path class="st2" d="M289.8,187.3c-0.2-0.7-0.6-1.4-1.3-2.1c-1.2-1.3-2.5-2.8-4-3.8c-1-0.7-2.1-1.3-2.8-2.4c-0.6-1-0.2-2.2,0-3.3
			c0.3-0.5,0.2-1.1,0-1.6c-0.2-0.7-0.9-1.3-1.5-1.8c-0.3-0.2-0.6-0.1-0.8,0.1c-0.2,0.1-0.4,0.1-0.7,0.1c-10.6,0.2-21.2,0.5-31.8,0.8
			c-0.2,0-0.4,0-0.7,0c-0.4,0.1-0.9,0.1-1.4,0.1c-0.4,0-0.8,0-1.3,0c-0.2,0.1-0.5,0.1-0.7,0.2c-1.5,0.1-2.1,0.2-2.4-0.3
			c-0.1,0-0.1,0-0.2,0c-0.1,0-0.5,0.2-0.6,0.2l-0.9,8.9c0,0.1,0,0.2,0,0.3c0,0.7,0,1.3,0,1.9c0,0.2,0,0.4,0,0.7
			c0,0.7,0.1,1.4,0.3,2.1c0.1,0.2,0.2,0.4,0.2,0.6c-0.2,1.1,0.2,2,0.9,2.9c0.1,0.2,0.3,0.4,0.4,0.5c0.4,0.5,0.7,1,1,1.6
			c0.1,0.2,0.2,0.4,0.3,0.6c0.1,0.5,0.3,1,0.5,1.5c0.1,0.2,0.1,0.3,0.2,0.5c-0.8,2.5,1.3,3.6,1,5.8c0,0.2,0,0.4,0,0.5
			c0.1,1.8,1.9,3.7,1.9,3.7c0.2,0,2.3-0.4,2.5-0.4c3-0.1,6-0.2,8.9-0.4c5-0.2,9.9-0.2,14.8-0.7l0,0c0.7,0,1.3,0,2,0
			c0.7,0,1.3,0,2-0.1c1.5-0.1,2.9,0.2,3.7,1.6c0.3,0.3,0.4,0.6,0.5,0.9c0,0,0,0,0,0c0.3,0,0.7-0.1,0.9-0.4c0-0.1,0.1-0.2,0.1-0.3
			c0.3-0.6,0-1-0.4-1.4c2-1,3.5-3.1,3.6-5.3c0-0.3-0.2-0.6-0.4-0.8c-0.1-0.1-0.1-0.2-0.3-0.4c-1.1-1.7,0.7-2.5,1.9-3.3
			c1.3-0.8,2.6-1.2,3.5-2.5c0.8-1.4,1.3-2.7,1.2-3.9C290.2,188,290.1,187.6,289.8,187.3z"/>
		<path class="st0" d="M394,261C394,261,394,261,394,261C394,261,394,261,394,261C394,260.9,394,260.9,394,261L394,261z"/>
		<polygon class="st0" points="394.8,261.8 394.8,261.8 394.8,261.8 		"/>
		<path class="st0" d="M393.2,260.6C393.2,260.5,393.1,260.5,393.2,260.6C393.1,260.5,393.1,260.5,393.2,260.6L393.2,260.6z"/>
		<path class="st0" d="M391.9,259.7C391.9,259.7,391.9,259.7,391.9,259.7C391.9,259.7,391.9,259.7,391.9,259.7L391.9,259.7z"/>
		<path class="st0" d="M360.8,254.7L360.8,254.7L360.8,254.7C360.8,254.7,360.8,254.7,360.8,254.7z"/>
		<path class="st0" d="M396.1,262.6C396.1,262.6,396.1,262.6,396.1,262.6C396,262.6,396,262.6,396.1,262.6L396.1,262.6z"/>
		<path class="st0" d="M389,257.7C389,257.6,389,257.6,389,257.7C389,257.6,389,257.6,389,257.7L389,257.7z"/>
		<polygon class="st0" points="393.1,260.5 393.1,260.5 393.1,260.5 		"/>
		<polygon class="st0" points="389,257.6 389,257.6 389,257.6 		"/>
		<path class="st0" d="M388.2,256.8C388.2,256.8,388.2,256.8,388.2,256.8C388.2,256.8,388.2,256.8,388.2,256.8
			C388.2,256.8,388.1,256.8,388.2,256.8L388.2,256.8z"/>
		<polygon class="st0" points="386.1,255.6 386.1,255.6 386.1,255.6 		"/>
		<polygon class="st0" points="390.2,258.5 390.2,258.5 390.2,258.5 		"/>
		<path class="st0" d="M391.1,258.9C391.1,258.9,391.1,258.9,391.1,258.9C391.1,258.9,391.1,258.9,391.1,258.9L391.1,258.9z"/>
		<path class="st0" d="M390.2,258.5L390.2,258.5C390.2,258.5,390.2,258.5,390.2,258.5C390.2,258.5,390.2,258.5,390.2,258.5
			C390.2,258.5,390.2,258.5,390.2,258.5z"/>
		<polygon class="st0" points="391.9,259.7 391.9,259.7 391.9,259.7 		"/>
		<path class="st0" d="M394.8,261.8C394.8,261.8,394.8,261.8,394.8,261.8C394.8,261.8,394.8,261.8,394.8,261.8L394.8,261.8z"/>
		<path class="st0" d="M374.5,254.3C374.5,254.3,374.5,254.3,374.5,254.3C374.4,254.3,374.4,254.3,374.5,254.3L374.5,254.3z"/>
		<polygon class="st0" points="375.3,254.7 375.3,254.7 375.3,254.7 		"/>
		<polygon class="st0" points="374.4,254.3 374.4,254.3 374.4,254.3 		"/>
		<path class="st0" d="M386.1,255.6C386.1,255.6,386.1,255.6,386.1,255.6C386.1,255.6,386.1,255.6,386.1,255.6L386.1,255.6z"/>
		<path class="st0" d="M387.3,256.4C387.3,256.4,387.3,256.4,387.3,256.4C387.3,256.4,387.3,256.4,387.3,256.4L387.3,256.4z"/>
		<path class="st0" d="M359.6,255.6C359.5,255.6,359.5,255.5,359.6,255.6C359.5,255.6,359.5,255.6,359.6,255.6L359.6,255.6z"/>
		<path class="st3" d="M360.1,229.2c-0.1-0.1-0.1-0.1-0.2-0.2l0,0c0,0,0,0,0,0c0,0-0.1-0.1-0.1-0.1c-0.3-0.2-0.6-0.3-0.9-0.5
			c-0.2-0.1-0.4-0.2-0.5-0.3c-0.2-0.1-0.4-0.2-0.5-0.3c-0.3-0.1-0.5-0.3-0.6-0.5c-1.7-1.6-2.8-4.1-2.5-6.3c0-0.1-0.1-0.2-0.1-0.3
			c0.1-0.2,0.1-0.3,0.2-0.5c-0.1,0.1-0.3,0.1-0.5,0.1l0,0c-0.5-0.4-1.1-0.8-1.6-1.2c-0.2-0.1-0.3-0.3-0.5-0.5
			c-0.9-1-1.4-0.9-2.6-0.3c-1.8,0.9-3.9,1.8-6,0.4c-1.2-0.8-3.1-0.5-3.8-2.2l0,0c-0.2-0.4-0.4-0.6-0.8-0.5c0.1-0.4-0.1-0.4-0.4-0.4
			c0-0.3-0.2-0.4-0.4-0.4c0-0.2-0.1-0.3-0.3-0.3c-0.1,0-0.1,0.2-0.1,0.3c-0.2,0-0.3,0.1-0.5,0.1c-0.6,0.1-1.1,0-1.5-0.3
			c-0.3,0.2-0.5,0.3-0.6,0.6c-0.1,0.1-0.1,0.2-0.2,0.3c0,0,0,0,0,0c0.1,1,0.3,2,0.4,3.1c-0.5,0-1-0.1-1.2,0.5c0,0,0,0,0,0l0,0
			c-0.4,0.3-0.8,0.7-1.1,1c0,0,0,0,0,0c-0.5-0.1-1-0.2-1.4,0c0,0,0,0,0,0c0,0,0,0-0.1,0c-0.1,0.1-0.2,0.3-0.3,0.6c0,0.1,0,0.3,0,0.5
			c0,0.6-0.5,1-0.8,1.4c-1,1.5-2.5,2.7-3.1,4.5c-0.4,1.2-1.6,1.8-2.7,0.6c-0.9-1-1.3-0.6-1.7,0.4c-0.5,0.9-0.7,2.4-2.4,1.5
			c-0.7-1.6-1.4-0.9-2.1,0c-0.4,0.5-0.1,1.6-1.2,1.5c-2.2-1.6-5.8-0.9-6.6-0.3c-0.1,0-0.1,0.1-0.2,0.1c-0.2,0.1-0.3,0.4-0.3,0.6
			c0,0,0,0,0,0c0,0.3,0,0.6,0,0.8c-0.5,0.1-0.5,0.4-0.4,0.8c-0.6,0.3-0.6,0.6,0,0.8c0.1,0.7-0.4,1.1-1,1.2c-1.9,0.2-2.6,1-1.7,2.8
			c0.4,0.8-0.1,1.3-0.5,1.8H306c-0.2-0.4-0.5-0.5-0.8-0.4c-0.1-0.5-0.5-0.5-0.9-0.4c-1.3-1.2-2.3-1.1-3,0.6
			c-0.1,0.4-0.3,0.6-0.5,0.8c0,0.3,0.1,0.6,0.1,0.9c0,0,0,0.1,0,0.1c0.3-0.1,0.6-0.1,0.8,0.1c-0.1,1.6,0.2,3.3-1.7,4.2l0,0
			c-0.4,0-0.6,0.1-0.8,0.2c0.1,0.4,0.2,0.7,0.4,0.9c0.1,0.1,0.2,0.2,0.3,0.2c2.6-0.7,5.3-0.5,7.9-0.9c0.9-0.1,2,0.4,2.6-0.7h0
			c0.8-0.4,1.4-1.1,2.3-1.2c0.3,0,0.6,0,0.9,0.2c2.4-0.3,4.8-0.2,7.1-0.8l0,0c2.1-0.2,4.1-0.3,6.2-0.5l0,0
			c5.1-0.5,10.2-0.9,15.2-1.4c2.2-0.2,4.4-0.5,6.5-0.9c0.5-0.2,1.1-0.4,1.6-0.6c-0.1-0.1-0.2-0.2-0.2-0.4c-0.1-0.1-0.1-0.3-0.1-0.4
			c0.1-0.1,0.3-0.1,0.4-0.2c0.5-0.6,1.1-1,1.7-1.4c0.8-0.5,1.4-1.2,2.1-1.8c0,0,0,0,0,0c0.5-1.5,1.6-2.5,2.8-3.5c0,0,0,0,0,0
			c0.2-0.2,0.4-0.4,0.6-0.5c0,0,0.1-0.1,0.1-0.1c0.1-0.2,0.2-0.3,0.4-0.3c0.5-0.5,0.9-0.9,1.4-1.3c0.3-0.2,0.5-0.5,0.5-0.8
			C360.2,229.5,360.2,229.3,360.1,229.2z"/>
		<polygon class="st7" points="399,209.9 399,209.9 399,209.9 		"/>
		<polygon class="st7" points="398.5,210.7 398.5,210.7 398.5,210.7 		"/>
		<path class="st7" d="M399.4,209.1L399.4,209.1C399.4,209,399.4,209,399.4,209.1C399.4,209.1,399.4,209.1,399.4,209.1
			C399.4,209.1,399.4,209.1,399.4,209.1z"/>
		<polygon class="st7" points="399.4,209.1 399.4,209.1 399.4,209.1 		"/>
		<path class="st7" d="M394.4,204.5C394.4,204.5,394.4,204.5,394.4,204.5C394.4,204.5,394.4,204.5,394.4,204.5L394.4,204.5z"/>
		<path class="st7" d="M398.6,210.7L398.6,210.7C398.6,210.7,398.6,210.7,398.6,210.7C398.5,210.7,398.5,210.7,398.6,210.7
			C398.5,210.7,398.6,210.7,398.6,210.7z"/>
		<path class="st7" d="M399,209.9C399,209.9,399,209.9,399,209.9C399,209.9,399,209.9,399,209.9L399,209.9z"/>
		<path class="st7" d="M367,230.6C367,230.6,367,230.6,367,230.6C367,230.7,367,230.7,367,230.6L367,230.6z"/>
		<path class="st7" d="M385.2,210.7C385.3,210.7,385.3,210.7,385.2,210.7C385.3,210.7,385.3,210.7,385.2,210.7L385.2,210.7z"/>
		<path class="st7" d="M383.2,211.6C383.2,211.6,383.2,211.6,383.2,211.6C383.2,211.5,383.2,211.5,383.2,211.6L383.2,211.6z"/>
		<path class="st7" d="M374.5,227.7C374.5,227.7,374.5,227.8,374.5,227.7L374.5,227.7C374.5,227.7,374.5,227.7,374.5,227.7z"/>
		<path class="st7" d="M380.3,215.7C380.3,215.7,380.3,215.7,380.3,215.7C380.3,215.7,380.3,215.7,380.3,215.7L380.3,215.7z"/>
		<path class="st7" d="M390.6,205.7C390.6,205.7,390.6,205.7,390.6,205.7C390.7,205.7,390.7,205.7,390.6,205.7L390.6,205.7z"/>
		<path class="st7" d="M389.4,204.9C389.4,204.9,389.4,204.9,389.4,204.9C389.4,204.9,389.4,204.9,389.4,204.9L389.4,204.9z"/>
		<path class="st7" d="M390.2,205.3C390.2,205.3,390.2,205.3,390.2,205.3C390.2,205.3,390.2,205.3,390.2,205.3L390.2,205.3z"/>
		<path class="st7" d="M389,204.5C389,204.5,389,204.5,389,204.5C389,204.5,389,204.5,389,204.5C389,204.5,389,204.5,389,204.5z"/>
		<path class="st7" d="M376.5,221.9C376.5,221.9,376.5,221.9,376.5,221.9C376.6,221.9,376.6,221.9,376.5,221.9L376.5,221.9z"/>
		<path class="st7" d="M363.7,231.9C363.7,231.9,363.7,231.9,363.7,231.9C363.7,231.9,363.7,231.9,363.7,231.9L363.7,231.9z"/>
		<path class="st7" d="M363.2,231.5C363.2,231.5,363.2,231.5,363.2,231.5C363.2,231.5,363.3,231.5,363.2,231.5L363.2,231.5z"/>
		<path class="st7" d="M365.3,231.9C365.3,231.9,365.3,231.9,365.3,231.9C365.3,231.9,365.3,231.9,365.3,231.9L365.3,231.9z"/>
		<path class="st7" d="M375.3,226.5C375.3,226.5,375.3,226.5,375.3,226.5C375.3,226.5,375.3,226.5,375.3,226.5L375.3,226.5z"/>
		<path class="st7" d="M376.1,222.4C376.1,222.4,376.1,222.4,376.1,222.4C376.1,222.3,376.1,222.3,376.1,222.4L376.1,222.4z"/>
		<path class="st7" d="M375.3,224C375.3,224,375.3,224,375.3,224C375.3,224,375.3,224,375.3,224L375.3,224z"/>
		<path class="st7" d="M391.5,206.1C391.5,206.1,391.5,206.2,391.5,206.1C391.5,206.2,391.5,206.2,391.5,206.1L391.5,206.1z"/>
		<path class="st0" d="M392.3,202.8C392.3,202.8,392.3,202.8,392.3,202.8C392.3,202.8,392.3,202.8,392.3,202.8L392.3,202.8z"/>
		<path class="st0" d="M392.8,204.1C392.8,204.1,392.8,204.1,392.8,204.1C392.8,204,392.7,204,392.8,204.1L392.8,204.1z"/>
		<path class="st0" d="M386.1,202.8C386.1,202.8,386.1,202.8,386.1,202.8C386.1,202.8,386.1,202.8,386.1,202.8L386.1,202.8z"/>
		<polygon class="st0" points="391.5,202.4 391.5,202.4 391.5,202.4 		"/>
		<path class="st0" d="M379.5,207C379.5,207,379.5,207,379.5,207C379.4,207,379.4,207,379.5,207L379.5,207z"/>
		<path class="st0" d="M391.5,202.4C391.5,202.4,391.5,202.4,391.5,202.4C391.5,202.4,391.5,202.4,391.5,202.4
			C391.5,202.4,391.5,202.4,391.5,202.4z"/>
		<path class="st0" d="M412.7,214.9C412.7,214.8,412.7,214.8,412.7,214.9C412.7,214.8,412.6,214.9,412.7,214.9
			C412.6,214.9,412.6,214.9,412.7,214.9L412.7,214.9z"/>
		<path class="st9" d="M313.5,146.4c0,0.1,0.1,0.1,0.1,0.2c0.1-0.1,0.1-0.2,0.2-0.3c0,0,0,0,0,0
			C313.7,146.4,313.6,146.4,313.5,146.4z"/>
	</g>
	<path class="st3" d="M392.8,204C392.8,204.1,392.8,204.1,392.8,204L392.8,204C392.7,204,392.8,204,392.8,204
		c0.1-0.5-0.1-0.9-0.4-1.2c0,0,0,0,0,0l0,0c0,0,0,0,0,0c-0.1-0.4-0.4-0.6-0.8-0.5c0,0,0,0,0,0.1l0,0l0,0c0,0,0,0,0,0c0,0,0,0,0,0
		c0.1-0.7,0-1.2-1-1.2c-1.5,0-2.9,0.2-4.1,1.3l0,0c-0.3,0-0.4,0.2-0.4,0.4c0,0,0,0,0,0l0,0c0,0,0,0,0,0c-0.3,0-0.5,0.2-0.4,0.5h0
		c-0.9-0.5-1.7-0.5-2.4,0.2c-0.1,0.1-0.2,0.2-0.3,0.4c-0.7,1-1.7,1.8-2.5,2.6c-0.4-0.1-0.8,0.1-1,0.4c0,0,0,0,0,0l0,0c0,0,0,0,0,0
		c-1.1-0.8-1.5-2.4-1.1-3.7c-0.2-0.3-0.4-0.5-0.6-0.7c-0.1-0.1-0.2-0.1-0.3-0.2c-0.1,0-0.1,0-0.2-0.1c-2.1,0.3-4.1,0.6-6.2,1
		c-1.3,0.3-1.7-0.2-1.9-1.4c-0.4-2.7-0.9-5.3-1.3-8c-0.1,0-0.1,0-0.2,0c-0.2,0-0.4,0.1-0.5,0.2c0,0,0,0,0,0c0,0,0,0,0,0
		c0,0.5-0.1,1-0.3,1.5c0,0.1-0.1,0.3-0.2,0.4c0,0.4,0,1,0,1.6c1,0.8,0.2,2.3,0.8,3.1c-0.1,0.8-0.3,1.6-0.4,2.4
		c0,0.3-0.1,0.5-0.1,0.8c-0.2,2-2.6,4.5-4.6,4.9c-0.2,0.1-0.4,0.3-0.6,0.4v0l0,0l-0.1,0.1c-0.6,0.3-0.9,0.8-0.9,1.4
		c-0.7,0.6-0.9,1.3-0.7,2.3c0.3,1-0.3,0.9-1,0.6l0,0c-1-0.9-1.3-0.1-1.7,0.6c-0.7,1.4,0,2.9-0.4,4.3c-0.6,0.2-1,0.6-0.8,1.2
		c-0.5-0.1-0.9,0.1-1.3,0.3c-0.1,0.2-0.2,0.3-0.2,0.5c0,0,0,0,0,0c0,0,0,0.1,0,0.2c-0.4,3.6,1.7,6.4,4.3,8.6
		c0.9,0.7,3.3,2.6,5.1,2.8c0.4,0.2,0.7,0.2,1.1-0.1c0.1,0,0.2-0.1,0.3-0.1c0.4,0.1,0.6-0.1,0.7-0.5l0,0c0.3-0.3,0.6-0.6,0.9-0.8
		c0,0,0,0,0,0l0,0c0,0,0,0,0,0c0.4,0.4,0.6,1.2,1.4,0.4c0.6,0,1.3-0.1,1.7-0.5c0.1-0.1,0.1-0.1,0.1-0.2c0.7-1.1,1.7-1.6,2.8-1.9
		c0.5-0.1,1.1-0.2,1.5-0.5c0.4-0.3,0.6-0.6,0.7-0.9c0.1-0.2,0.2-0.3,0.1-0.6c0,0,0,0,0,0l0,0c0,0,0,0,0,0c0.5-0.6,0.1-1.2-0.1-1.8
		c0.1-0.3,0.2-0.6,0.3-0.8c0.4-0.3,0.6-0.8,0.6-1.3c0-0.1,0.1-0.1,0.1-0.2c0.2,0,0.3-0.2,0.3-0.4c0,0,0,0,0,0l0,0c0,0,0,0,0,0
		c0.6-0.5,0.6-1.3,0.8-2c0.2-0.6,0.3-1.3,0.5-2c0.1-0.3,0.2-0.5,0.4-0.8c0.7-1.1,1.6-0.8,2.5-1c0.5,0.4,1.1,0.2,1.4-0.8
		c0.1-0.3,0.2-0.5,0.3-0.8c0.2-0.5,0.4-1,0.7-1.5c0.6-1.3,0.9-0.6,1.9-1.2c0.8-0.4,1.2-1.7,1.5-2.7c0.1-0.1,0.2-0.3,0.3-0.4
		c0.1-0.2,0.1-0.3,0.1-0.5c0-0.8,0.2-1.5,0.4-2.3c0.3-0.7,0.7-1.2,1.4-0.8c0.8,0.5,1.7,1,2.6,1.3c0.2,0.1,0.5,0.1,0.7,0.1
		c0.3,0.1,0.5,0,0.7-0.2c0.3-0.2,0.5-0.5,0.6-0.9c0.1-0.2,0-0.4-0.1-0.5c0.1-0.1,0.2-0.2,0.3-0.3c0-0.1,0-0.2,0.1-0.3
		c0-0.1,0-0.2,0-0.3C393.3,204,393,204.1,392.8,204z"/>
	<path class="st3" d="M397.1,262.6c-0.6-0.6-1.3-0.9-2-1.4c-1.3-1-2.6-2-4-2.9c-1.7-1.1-3.7-2.9-5.6-3.6c-0.1,0-0.2,0-0.3,0
		c-0.5,0-1.1,0.4-1.6,0.4c-0.4,0.1-0.7,0.2-1.1,0.4c-0.2,0.1-0.4,0.2-0.7,0.3c-0.1,0.1-0.3,0.1-0.4,0.2c-0.4,0.1-0.9,0.2-1.4,0.1
		c-0.5-0.4-1.1-0.2-1.6,0c-0.8,0.3-1.6,0.3-2.1,0c0,0,0,0-0.1,0c0,0,0,0,0,0c0,0,0,0,0,0c-0.4-0.2-0.7-0.6-0.9-1.1c0,0,0,0,0,0l0,0
		l0,0l0,0c-0.2-0.4-0.4-0.6-0.9-0.4c0,0,0,0,0,0l0,0l0,0l0,0l0,0c0,0,0,0,0,0c-0.3-0.5-0.6-0.8-1-1c-0.2,0-0.4,0-0.6-0.1
		c-0.4-0.1-0.8-0.1-1.2-0.2c-0.6,0.1-1.2,0.3-1.8,0.4c-0.6,0.1-1.2,0.3-1.9,0.4c-2.5-0.3-4.9-0.1-7.3,0.8c0,0,0,0,0,0
		c-0.6,0-1.2,0.1-1.3,0.8c0,0,0,0,0,0l0,0c0,0,0,0,0,0c-0.5-0.2-0.8,0-0.8,0.5l0,0c-0.6,0.3-1.3,0.5-1.9,0.8c-0.5,0.1-1,0.1-1.6,0.2
		c-0.2,0.2-0.3,0.4-0.4,0.7c-0.1,0.1-0.1,0.2-0.2,0.3c0,0,0,0,0,0c0.2,0.1,0.4,0.4,0.4,0.8c0,0,0,0,0,0c0,0,0,0,0,0c0,0,0,0,0,0
		c-0.4-0.2-0.7,0-0.8,0.4c0,0,0,0,0,0l0,0c0,0,0,0,0,0c-0.4,0.1-0.4,0.5-0.4,0.8c0,0,0,0,0,0l0,0c0,0,0,0,0,0
		c-0.4,0.3-0.6,0.5,0,0.8c0,0,0,0,0,0l0,0c0,0,0,0,0,0c0,0.5,0.4,0.7,0.8,0.8c0,0,0,0,0,0l0,0c0,0,0,0,0,0c0.1,0.4,0.5,0.4,0.8,0.4
		c0,0,0,0,0,0l0,0c0,0,0,0,0,0c0.1,0.4,0.5,0.4,0.9,0.4c0,0,0,0,0,0l0,0c0,0,0,0,0,0c0.7,0.7,1.7,1,2.6,1.3c0.3,0.2,0.8,0.5,1.1,0.7
		c0.1,0.1,0.1,0.2,0.2,0.3c0.4,1.9,1.9,2.8,3.2,4c0.1,0.5,0.4,0.7,0.9,0.8c0,0,0,0,0,0l0,0l0,0c0,0,0,0,0,0c0.1,0.1,0.3,0.3,0.4,0.4
		c0,0,0,0,0,0c0.2,0.3,0.4,0.6,0.8,0.4c0,0,0,0,0,0l0,0l0,0l0,0l0,0c0,0,0,0,0,0c0,0,0,0,0,0c-0.1,0.4,0.1,0.4,0.4,0.4c0,0,0,0,0,0
		l0,0c0,0,0,0,0,0c0.2,0.9,1,0.7,1.7,0.9c0.6,0.6,0.9,1.4,1.4,2.1c0.3,0.4,0.6,0.8,1,1.1c0.1,0.7,0.6,1,1.3,0.9c0,0,0,0,0,0l0,0
		c0,0,0,0,0,0c0,0,0,0,0,0c0.8,0.8,0.9,2.4,2.5,2.5c0,0,0,0,0,0c0,0,0,0,0,0c0,0,0,0,0,0c0,0,0,0,0,0c0,1.7,0.4,3.1,2.5,2.9
		c0,0,0,0,0,0c0,0,0,0,0,0c0,0,0,0,0,0l0,0l0,0c0,0,0,0,0,0c-0.1,0.5-0.1,0.9,0.4,1.2c0,0,0,0,0,0l0,0c0,0,0,0,0,0
		c-0.1,0.9,0.2,1.8,0.6,2.7l0,0c0,0,0,0,0,0c0.4,0.2,0.7,0.4,1.1,0.6c0,0,0.1,0,0.1,0c0.2,0.6,0.9,0.2,1.1,0.4
		c0,0.1-0.1,0.2-0.1,0.2c0.3-0.1,0.6-0.4,0.8-0.6c0.4-0.4,0.6-0.9,0.8-1.4c0.1-0.2,0.2-0.5,0.3-0.6c0.2-0.4,0.5-0.8,0.7-1.2
		c0.4-0.8,0.8-1.6,1.4-1.9c2.6-1.4,4.5-3.5,6.3-5.6c1-1.1,2-2.3,3.1-3.3c0.6-0.5,0.5-1.1,0.5-1.5c0-0.1,0-0.1,0-0.2
		c0.2-2.9,1.1-4.7,3.1-5.9c0.5-0.3,0.7-0.6,0.8-0.9c0,0,0-0.1,0-0.1c0,0,0,0,0,0C397.3,263.3,397.3,262.9,397.1,262.6z M360.8,254.7
		L360.8,254.7L360.8,254.7C360.8,254.7,360.8,254.7,360.8,254.7z"/>
	<path class="st3" d="M417.6,202.6c-0.5,0.1-1,0-1.4-0.3c-0.1-0.2-0.3-0.4-0.6-0.6c-0.2-0.1-0.3-0.2-0.5-0.3
		c-0.5-0.3-0.9-0.3-1.3-0.1c-0.4-0.2-0.9-0.6-1.3-1c-0.6-0.9-1.2-1.8-1.9-2.6c-0.1-0.2-0.1-0.5-0.2-0.7c-0.5-1.9-3.5-1.1-3,0.8
		c0.5,2,1.4,3.7,2,5.6c0.6,1.9,0.1,4.2,0.5,6.2c0.5,2-0.4,4,0.1,6.1c0.5,2.1,0.2,4,0.5,6.1c0.2,1.2,1.8,1.4,2.6,0.7
		c4.3-4.1,7-12.9,7.1-18.7C420.2,202.4,418.5,201.6,417.6,202.6z"/>
	<g>
		<path class="st4" d="M402.1,203.4"/>
	</g>
	<path class="st3" d="M418.6,191.4"/>
	<g>
		<path class="st4" d="M425.2,172.5"/>
	</g>
	<g>
		<path class="st4" d="M437.9,166.1"/>
	</g>
	<path class="st3" d="M429.3,162.3"/>
	<g>
		<path class="st4" d="M421.2,142.6"/>
	</g>
	<g>
		<path class="st4" d="M429.5,136.2"/>
	</g>
</g>
</svg>
