<?xml version="1.0"?>
<svg xmlns="http://www.w3.org/2000/svg" xmlns:xlink="http://www.w3.org/1999/xlink" version="1.1" id="Capa_1" x="0px" y="0px" viewBox="0 0 496 496" style="enable-background:new 0 0 496 496;" xml:space="preserve" width="512px" height="512px" class="hovered-paths"><g><g>
	<path style="fill:#00AD84" d="M168,464H88c-4.424,0-8-3.576-8-8v-80c0-4.424,3.576-8,8-8h80c4.424,0,8,3.576,8,8v80   C176,460.424,172.424,464,168,464z" data-original="#F0BC5E" class="hovered-path active-path" data-old_color="#F0BC5E"/>
	<path style="fill:#00AD84" d="M168,352H88c-4.424,0-8-3.576-8-8v-80c0-4.424,3.576-8,8-8h80c4.424,0,8,3.576,8,8v80   C176,348.424,172.424,352,168,352z" data-original="#F0BC5E" class="hovered-path active-path" data-old_color="#F0BC5E"/>
	<path style="fill:#00AD84" d="M168,240H88c-4.424,0-8-3.576-8-8v-80c0-4.424,3.576-8,8-8h80c4.424,0,8,3.576,8,8v80   C176,236.424,172.424,240,168,240z" data-original="#F0BC5E" class="hovered-path active-path" data-old_color="#F0BC5E"/>
</g><path d="M456,376h-9.472c0.896-2.512,1.472-5.184,1.472-8c0-13.232-10.768-24-24-24h-56V104c0-22.056-17.944-40-40-40h-53.752l-4-16  H224v-8c0-22.056-17.944-40-40-40s-40,17.944-40,40v8H97.752l-4,16H40C17.944,64,0,81.944,0,104v352c0,22.056,17.944,40,40,40h288  c22.056,0,40-17.944,40-40h88c22.056,0,40-17.944,40-40S478.056,376,456,376z M432,368c0,4.416-3.592,8-8,8H280  c-4.408,0-8-3.584-8-8s3.592-8,8-8h144C428.408,360,432,363.584,432,368z M184,440c-13.232,0-24-10.768-24-24s10.768-24,24-24h96  h120v48H184z M144.6,421.904l-14.896-3.72C128.696,417.928,128,417.032,128,416s0.696-1.928,1.704-2.176l14.896-3.72  c-0.296,1.936-0.6,3.872-0.6,5.896S144.304,419.96,144.6,421.904z M160,40c0-13.232,10.768-24,24-24s24,10.768,24,24v8h-48V40z   M110.248,64h147.504l12,48H98.248L110.248,64z M290.248,128l-4-16H320v200h16V96h-53.752l-4-16H328c13.232,0,24,10.768,24,24v240  h-16v-16h-16v16h-40c-13.232,0-24,10.768-24,24c0,2.816,0.576,5.488,1.472,8H184c-13.016,0-24.488,6.344-31.792,16H152  l-26.176,6.304C117.68,400.336,112,407.616,112,416s5.68,15.664,13.824,17.696l24.24,6.064l1.984,0.048  C159.344,449.576,170.896,456,184,456h136v24H48V112h33.752l-4,16H290.248z M16,456V104c0-13.232,10.768-24,24-24h49.752l-4,16H32  v382.528C22.712,475.216,16,466.416,16,456z M336,478.528V456h16C352,466.416,345.288,475.216,336,478.528z M456,440h-40v-48h8h32  c13.232,0,24,10.768,24,24S469.232,440,456,440z" data-original="#000000" class="" style="fill:#000000"/><polygon points="196.8,278.4 187.2,265.6 128.752,309.44 117.656,298.344 106.344,309.656 127.248,330.56 " data-original="#000000" class="" style="fill:#000000"/><polygon points="196.8,166.4 187.2,153.6 128.752,197.44 117.656,186.344 106.344,197.656 127.248,218.56 " data-original="#000000" class="" style="fill:#000000"/><rect x="224" y="152" width="64" height="16" data-original="#000000" class="" style="fill:#000000"/><rect x="224" y="184" width="64" height="16" data-original="#000000" class="" style="fill:#000000"/><rect x="224" y="216" width="64" height="16" data-original="#000000" class="" style="fill:#000000"/><rect x="224" y="264" width="64" height="16" data-original="#000000" class="" style="fill:#000000"/><rect x="224" y="296" width="64" height="16" data-original="#000000" class="" style="fill:#000000"/><rect x="224" y="328" width="16" height="16" data-original="#000000" class="" style="fill:#000000"/><rect x="128" y="80" width="16" height="16" data-original="#000000" class="" style="fill:#000000"/><rect x="224" y="80" width="16" height="16" data-original="#000000" class="" style="fill:#000000"/></g> </svg>
