<?xml version="1.0" encoding="utf-8"?>
<!-- Generator: Adobe Illustrator 23.0.3, SVG Export Plug-In . SVG Version: 6.00 Build 0)  -->
<svg version="1.1" id="Layer_1" xmlns="http://www.w3.org/2000/svg" xmlns:xlink="http://www.w3.org/1999/xlink" x="0px" y="0px"
	 viewBox="0 0 512 512" style="enable-background:new 0 0 512 512;" xml:space="preserve">
<style type="text/css">
	.st0{fill:#00bf91;}
</style>
<g>
	<g>
		<path class="st0" d="M69.1,20.2c-5.5-5.5-13-8.6-20.9-8.6s-15.3,3.1-20.9,8.6l-7.2,7.2c-5.5,5.5-8.6,13-8.6,20.9
			s3.1,15.3,8.6,20.9l29.7,29.7L98.7,50L69.1,20.2z"/>
		<path class="st0" d="M247.5,356.8l-27.1-27.1l58.8-66.2l7.5-7.5H335c10.7,0,21.2-4.4,28.8-11.9c4.1-4.1,6.3-9.5,6.3-15.3
			c0-11.9-9.7-21.7-21.7-21.7c-5.8,0-11.2,2.3-15.3,6.3l-16.7,16.7l-34.6-34.6l16.7-16.7c13.3-13.3,31-20.7,49.9-20.7
			c38.9,0,70.5,31.6,70.5,70.5c0,18.8-7.3,36.6-20.7,49.9c-16.9,16.9-39.4,26.3-63.4,26.3h-28.4L247.5,356.8z"/>
		<path class="st0" d="M207.1,394.5c-13.5,0-24.4-11-24.4-24.4c0-13.5,11-24.4,24.4-24.4c13.5,0,24.4,11,24.4,24.4
			C231.6,383.6,220.6,394.5,207.1,394.5z"/>
	</g>
	<path d="M285.6,380.6l16.3-16.3l11.5,11.5l-16.3,16.3L285.6,380.6z"/>
	<path d="M229.2,437.1c-3.2,3.2-8.3,3.2-11.5,0l-23.9-23.9l-11.5,11.5l23.9,23.9c4.8,4.8,11,7.1,17.3,7.1s12.5-2.4,17.3-7.1
		l46.9-46.9l-11.5-11.5L229.2,437.1z"/>
	<path d="M288.6,0L174.5,114.1L74.8,14.4c-7-7-16.7-11-26.6-11s-19.6,4-26.6,11l-7.2,7.2c-7.1,7.1-11,16.6-11,26.6s3.9,19.5,11,26.6
		l99.7,99.7L0,288.6L223.4,512L512,223.4L288.6,0z M19.7,48.2c0-5.7,2.2-11.1,6.3-15.1l7.2-7.2c7.9-8,22.3-8,30.2,0L220,182.7
		l-12.9,12.9l-127-127L68.6,80.1l127,127L182.7,220L25.9,63.3C21.9,59.3,19.7,53.9,19.7,48.2z M230.1,230.1l-30.1-4.3l25.8-25.8
		L230.1,230.1z M23,288.6L125.6,186l53.2,53.2l70.5,10.1l-10.1-70.5L186,125.6L288.6,23L489,223.4L223.4,489L23,288.6z"/>
	<path d="M274.7,66.2l11.5-11.5l57,57l-11.5,11.5L274.7,66.2z"/>
	<path d="M250.2,90.6l11.5-11.5l57,57l-11.5,11.5L250.2,90.6z"/>
	<path d="M225.8,115.1l11.5-11.5l57,57l-11.5,11.5L225.8,115.1z"/>
	<path d="M111.7,237.3l11.5-11.5l81.5,81.5l-11.5,11.5L111.7,237.3z"/>
	<path d="M87.3,261.8l11.5-11.5l81.5,81.5l-11.5,11.5L87.3,261.8z"/>
	<path d="M62.8,286.2l11.5-11.5l81.5,81.5l-11.5,11.5L62.8,286.2z"/>
</g>
</svg>
