<?xml version="1.0"?>
<svg xmlns="http://www.w3.org/2000/svg" xmlns:xlink="http://www.w3.org/1999/xlink" version="1.1" id="Capa_1" x="0px" y="0px" viewBox="0 0 512 512" style="enable-background:new 0 0 512 512;" xml:space="preserve" width="512px" height="512px"><g><g>
	<g>
		<path d="M270.506,0c-35.288,0-64,28.712-64,64s28.712,64,64,64c35.288,0,64-28.712,64-64S305.794,0,270.506,0z M270.506,112    c-26.472,0-48-21.528-48-48s21.528-48,48-48c26.464,0,48,21.528,48,48S296.978,112,270.506,112z" data-original="#000000" class="active-path" data-old_color="#000000" fill="#00AD84"/>
	</g>
</g><g>
	<g>
		<path d="M326.506,88c-4.424,0-8,3.576-8,8c0,26.472-21.528,48-48,48c-26.472,0-48-21.528-48-48c0-4.424-3.576-8-8-8    c-4.424,0-8,3.576-8,8c0,35.288,28.712,64,64,64c35.288,0,64-28.712,64-64C334.506,91.576,330.93,88,326.506,88z" data-original="#000000" class="active-path" data-old_color="#000000" fill="#00AD84"/>
	</g>
</g><g>
	<g>
		<path d="M270.506,40c-4.424,0-8,3.576-8,8v32c0,4.424,3.576,8,8,8c4.416,0,8-3.576,8-8V48C278.506,43.576,274.93,40,270.506,40z" data-original="#000000" class="active-path" data-old_color="#000000" fill="#00AD84"/>
	</g>
</g><g>
	<g>
		<path d="M214.506,56c-4.424,0-8,3.576-8,8v32c0,4.424,3.576,8,8,8c4.416,0,8-3.576,8-8V64C222.506,59.576,218.93,56,214.506,56z" data-original="#000000" class="active-path" data-old_color="#000000" fill="#00AD84"/>
	</g>
</g><g>
	<g>
		<path d="M326.506,56c-4.424,0-8,3.576-8,8v32c0,4.424,3.576,8,8,8c4.416,0,8-3.576,8-8V64C334.506,59.576,330.93,56,326.506,56z" data-original="#000000" class="active-path" data-old_color="#000000" fill="#00AD84"/>
	</g>
</g><g>
	<g>
		<path d="M139.546,185.784c-3.424-2.776-8.456-2.256-11.256,1.168l-117,144c-2.776,3.424-2.264,8.464,1.168,11.256    c1.488,1.208,3.264,1.792,5.04,1.792c2.328,0,4.632-1.008,6.216-2.96l117-144C143.49,193.616,142.978,188.576,139.546,185.784z" data-original="#000000" class="active-path" data-old_color="#000000" fill="#00AD84"/>
	</g>
</g><g>
	<g>
		<path d="M257.714,330.96l-117-144c-2.784-3.424-7.816-3.952-11.256-1.168c-3.432,2.784-3.952,7.824-1.168,11.256l117,144    c1.584,1.944,3.888,2.952,6.216,2.952c1.776,0,3.56-0.584,5.04-1.784C259.978,339.432,260.498,334.392,257.714,330.96z" data-original="#000000" class="active-path" data-old_color="#000000" fill="#00AD84"/>
	</g>
</g><g>
	<g>
		<path d="M139.546,225.784c-3.424-2.768-8.456-2.256-11.256,1.168l-104,128c-2.776,3.424-2.264,8.464,1.168,11.256    c1.488,1.208,3.264,1.792,5.04,1.792c2.328,0,4.632-1.008,6.216-2.96l104-128C143.49,233.616,142.978,228.576,139.546,225.784z" data-original="#000000" class="active-path" data-old_color="#000000" fill="#00AD84"/>
	</g>
</g><g>
	<g>
		<path d="M244.714,354.96l-104-128c-2.784-3.424-7.816-3.944-11.256-1.168c-3.432,2.784-3.952,7.824-1.168,11.256l104,128    c1.584,1.944,3.888,2.952,6.216,2.952c1.776,0,3.56-0.584,5.04-1.784C246.978,363.432,247.498,358.392,244.714,354.96z" data-original="#000000" class="active-path" data-old_color="#000000" fill="#00AD84"/>
	</g>
</g><g>
	<g>
		<path d="M500.714,330.96l-117-144c-2.784-3.424-7.816-3.952-11.256-1.168c-3.432,2.784-3.952,7.824-1.168,11.256l117,144    c1.584,1.944,3.888,2.952,6.216,2.952c1.776,0,3.56-0.584,5.04-1.784C502.978,339.432,503.498,334.392,500.714,330.96z" data-original="#000000" class="active-path" data-old_color="#000000" fill="#00AD84"/>
	</g>
</g><g>
	<g>
		<path d="M377.506,184h-243c-4.424,0-8,3.576-8,8s3.576,8,8,8h243c4.416,0,8-3.576,8-8S381.93,184,377.506,184z" data-original="#000000" class="active-path" data-old_color="#000000" fill="#00AD84"/>
	</g>
</g><g>
	<g>
		<path d="M494.506,328h-243c-4.424,0-8,3.576-8,8s3.576,8,8,8h243c4.416,0,8-3.576,8-8S498.93,328,494.506,328z" data-original="#000000" class="active-path" data-old_color="#000000" fill="#00AD84"/>
	</g>
</g><g>
	<g>
		<path d="M494.506,352h-256c-4.424,0-8,3.576-8,8s3.576,8,8,8h256c4.416,0,8-3.576,8-8S498.93,352,494.506,352z" data-original="#000000" class="active-path" data-old_color="#000000" fill="#00AD84"/>
	</g>
</g><g>
	<g>
		<path d="M494.506,328c-4.424,0-8,3.576-8,8v24c0,4.424,3.576,8,8,8c4.416,0,8-3.576,8-8v-24    C502.506,331.576,498.93,328,494.506,328z" data-original="#000000" class="active-path" data-old_color="#000000" fill="#00AD84"/>
	</g>
</g><g>
	<g>
		<path d="M46.506,332.304c-4.424,0-8,3.576-8,8V504c0,4.424,3.576,8,8,8c4.416,0,8-3.576,8-8V340.304    C54.506,335.88,50.93,332.304,46.506,332.304z" data-original="#000000" class="active-path" data-old_color="#000000" fill="#00AD84"/>
	</g>
</g><g>
	<g>
		<path d="M222.506,332c-4.424,0-8,3.576-8,8v164c0,4.424,3.576,8,8,8c4.416,0,8-3.576,8-8V340    C230.506,335.576,226.93,332,222.506,332z" data-original="#000000" class="active-path" data-old_color="#000000" fill="#00AD84"/>
	</g>
</g><g>
	<g>
		<path d="M486.506,496h-440c-4.424,0-8,3.576-8,8s3.576,8,8,8h440c4.416,0,8-3.576,8-8S490.93,496,486.506,496z" data-original="#000000" class="active-path" data-old_color="#000000" fill="#00AD84"/>
	</g>
</g><g>
	<g>
		<path d="M486.506,352c-4.424,0-8,3.576-8,8v144c0,4.424,3.576,8,8,8c4.416,0,8-3.576,8-8V360    C494.506,355.576,490.93,352,486.506,352z" data-original="#000000" class="active-path" data-old_color="#000000" fill="#00AD84"/>
	</g>
</g><g>
	<g>
		<path d="M37.522,356.192l-13-24c-2.096-3.88-6.952-5.32-10.84-3.216c-3.88,2.096-5.328,6.952-3.216,10.84l13,24    c1.448,2.672,4.2,4.184,7.04,4.184c1.296,0,2.6-0.312,3.8-0.968C38.186,364.936,39.634,360.08,37.522,356.192z" data-original="#000000" class="active-path" data-old_color="#000000" fill="#00AD84"/>
	</g>
</g><g>
	<g>
		<path d="M110.506,408c-4.424,0-8,3.576-8,8v88c0,4.424,3.576,8,8,8c4.416,0,8-3.576,8-8v-88    C118.506,411.576,114.93,408,110.506,408z" data-original="#000000" class="active-path" data-old_color="#000000" fill="#00AD84"/>
	</g>
</g><g>
	<g>
		<path d="M158.506,408h-48c-4.424,0-8,3.576-8,8s3.576,8,8,8h48c4.416,0,8-3.576,8-8S162.93,408,158.506,408z" data-original="#000000" class="active-path" data-old_color="#000000" fill="#00AD84"/>
	</g>
</g><g>
	<g>
		<path d="M158.506,408c-4.424,0-8,3.576-8,8v88c0,4.424,3.576,8,8,8c4.416,0,8-3.576,8-8v-88    C166.506,411.576,162.93,408,158.506,408z" data-original="#000000" class="active-path" data-old_color="#000000" fill="#00AD84"/>
	</g>
</g><g>
	<g>
		<path d="M134.506,312c-17.648,0-32,14.352-32,32s14.352,32,32,32c17.648,0,32-14.352,32-32S152.154,312,134.506,312z M134.506,360    c-8.824,0-16-7.176-16-16c0-8.824,7.176-16,16-16c8.816,0,16,7.176,16,16C150.506,352.824,143.33,360,134.506,360z" data-original="#000000" class="active-path" data-old_color="#000000" fill="#00AD84"/>
	</g>
</g><g>
	<g>
		<path d="M334.506,392h-72c-4.424,0-8,3.576-8,8v56c0,4.424,3.576,8,8,8h72c4.416,0,8-3.576,8-8v-56    C342.506,395.576,338.93,392,334.506,392z M326.506,448h-56v-40h56V448z" data-original="#000000" class="active-path" data-old_color="#000000" fill="#00AD84"/>
	</g>
</g><g>
	<g>
		<path d="M446.506,392h-72c-4.424,0-8,3.576-8,8v56c0,4.424,3.576,8,8,8h72c4.416,0,8-3.576,8-8v-56    C454.506,395.576,450.93,392,446.506,392z M438.506,448h-56v-40h56V448z" data-original="#000000" class="active-path" data-old_color="#000000" fill="#00AD84"/>
	</g>
</g><g>
	<g>
		<path d="M342.506,208h-120c-4.424,0-8,3.576-8,8s3.576,8,8,8h120c4.416,0,8-3.576,8-8S346.93,208,342.506,208z" data-original="#000000" class="active-path" data-old_color="#000000" fill="#00AD84"/>
	</g>
</g><g>
	<g>
		<path d="M228.714,210.96l-19.504-24c-2.784-3.424-7.816-3.952-11.256-1.168c-3.432,2.784-3.952,7.824-1.168,11.256l19.504,24    c1.584,1.944,3.888,2.952,6.216,2.952c1.776,0,3.56-0.584,5.04-1.784C230.978,219.432,231.498,214.392,228.714,210.96z" data-original="#000000" class="active-path" data-old_color="#000000" fill="#00AD84"/>
	</g>
</g><g>
	<g>
		<path d="M348.714,210.96l-19.504-24c-2.784-3.424-7.816-3.952-11.256-1.168c-3.432,2.784-3.952,7.824-1.168,11.256l19.504,24    c1.584,1.944,3.888,2.952,6.216,2.952c1.776,0,3.56-0.584,5.04-1.784C350.978,219.432,351.498,214.392,348.714,210.96z" data-original="#000000" class="active-path" data-old_color="#000000" fill="#00AD84"/>
	</g>
</g></g> </svg>
