<?xml version="1.0"?>
<svg xmlns="http://www.w3.org/2000/svg" id="Layer_35" enable-background="new 0 0 64 64" height="512px" viewBox="0 0 64 64" width="512px" class="hovered-paths"><g><path d="m43.835 47.976-.835 9.024 2 2 2-2-.835-9.024z" fill="#f0bc5e" data-original="#F0BC5E" class="hovered-path active-path" style="fill:#00AD84" data-old_color="#f0bc5e"/><path d="m45 47h1v2h-1z" data-original="#000000" class="" style="fill:#000000"/><path d="m17.333 44-3.333 5 3 4 2-9z" fill="#f0bc5e" data-original="#F0BC5E" class="hovered-path active-path" style="fill:#00AD84" data-old_color="#f0bc5e"/><path d="m9.096 44.432 1.904 8.568 3-4-3.273-4.91z" fill="#f0bc5e" data-original="#F0BC5E" class="hovered-path active-path" style="fill:#00AD84" data-old_color="#f0bc5e"/><path d="m44 1h2v4h-2z" data-original="#000000" class="" style="fill:#000000"/><path d="m32.5 3.379h2v4.243h-2z" transform="matrix(.707 -.707 .707 .707 5.923 25.299)" data-original="#000000" class="" style="fill:#000000"/><path d="m27 16h4v2h-4z" data-original="#000000" class="" style="fill:#000000"/><path d="m59 16h4v2h-4z" data-original="#000000" class="" style="fill:#000000"/><path d="m54.379 4.5h4.243v2h-4.243z" transform="matrix(.707 -.707 .707 .707 12.659 41.562)" data-original="#000000" class="" style="fill:#000000"/><path d="m57.302 14-5.833-7h-12.937l-5.833 7 10.534 12.641.743-.619.055.221.969-.243.97.242.055-.221.743.619zm-10.684-5h2.764l-1.382 2.764zm-.236 4h-2.764l1.382-2.764zm-4.382-1.236-1.382-2.764h2.764zm-1.618 1.236h-4.247l2.654-3.185zm6.337 2-1.719 6.877-1.719-6.877zm4.492-5.185 2.654 3.185h-4.247zm-15.076 5.185h5.084l2.179 8.715zm12.646 0h5.084l-7.263 8.715z" data-original="#000000" class="" style="fill:#000000"/><path d="m60 25h-30c-1.654 0-3 1.346-3 3s1.346 3 3 3h.511c.456-.604 1.173-1 1.989-1s1.532.396 1.989 1h21.023c.456-.604 1.173-1 1.989-1s1.532.396 1.989 1h.51c1.654 0 3-1.346 3-3s-1.346-3-3-3z" fill="#f0bc5e" data-original="#F0BC5E" class="hovered-path active-path" style="fill:#00AD84" data-old_color="#f0bc5e"/><path d="m57.5 29c-1.93 0-3.5 1.57-3.5 3.5v10.969c0 1.51-1.13 2.789-2.628 2.977l-1.093.137c1.069-1.23 1.721-2.83 1.721-4.583 0-3.859-3.14-7-7-7s-7 3.141-7 7c0 1.753.652 3.353 1.721 4.582l-1.093-.137c-1.498-.187-2.628-1.466-2.628-2.976v-10.969c0-1.93-1.57-3.5-3.5-3.5-1.716 0-3.141 1.244-3.437 2.877-.251.215-.483.45-.669.729l-5.148 7.723c-.988 1.482-2.566 2.431-4.31 2.63 1.274-1.27 2.064-3.024 2.064-4.959 0-3.859-3.14-7-7-7s-7 3.141-7 7c0 2.123.954 4.025 2.452 5.31-4.839 1.154-8.452 5.503-8.452 10.69v9h22v-13.246c2.444-.789 4.551-2.362 6.016-4.488.163 3.81 3.05 7.039 6.853 7.583l.131.018v10.133h18v-10.133l.131-.019c3.916-.56 6.869-3.964 6.869-7.92v-12.428c0-1.93-1.57-3.5-3.5-3.5zm-12.5 8c2.757 0 5 2.243 5 5s-2.243 5-5 5-5-2.243-5-5 2.243-5 5-5zm-36 1c0-2.757 2.243-5 5-5s5 2.243 5 5-2.243 5-5 5-5-2.243-5-5zm18.455 6.015c-1.337 2.005-3.36 3.431-5.698 4.016l-.757.189v12.78h-13v-11h-2v11h-3v-7c0-4.963 4.038-9 9-9h6.254c2.681 0 5.169-1.332 6.656-3.562l4.09-6.135v6.395zm31.545.914c0 2.967-2.215 5.521-5.152 5.939l-1.848.265v9.867h-14v-9.867l-1.849-.265c-2.936-.419-5.151-2.972-5.151-5.939v-12.429c0-.827.673-1.5 1.5-1.5s1.5.673 1.5 1.5v10.969c0 2.517 1.883 4.649 4.38 4.961l4.496.562 2.046.004c.026 0 .052.004.078.004.024 0 .048-.003.072-.004l1.928.004 4.62-.57c2.497-.312 4.38-2.444 4.38-4.961v-10.969c0-.827.673-1.5 1.5-1.5s1.5.673 1.5 1.5z" data-original="#000000" class="" style="fill:#000000"/><path d="m16 16h2v2h-2z" data-original="#000000" class="" style="fill:#000000"/><path d="m14 18h2v2h-2z" data-original="#000000" class="" style="fill:#000000"/><path d="m16 20h2v2h-2z" data-original="#000000" class="" style="fill:#000000"/><path d="m18 18h2v2h-2z" data-original="#000000" class="" style="fill:#000000"/><path d="m26 7h2v2h-2z" data-original="#000000" class="" style="fill:#000000"/><path d="m24 9h2v2h-2z" data-original="#000000" class="" style="fill:#000000"/><path d="m26 11h2v2h-2z" data-original="#000000" class="" style="fill:#000000"/><path d="m28 9h2v2h-2z" data-original="#000000" class="" style="fill:#000000"/><path d="m16 3h2v2h-2z" data-original="#000000" class="" style="fill:#000000"/><path d="m14 5h2v2h-2z" data-original="#000000" class="" style="fill:#000000"/><path d="m16 7h2v2h-2z" data-original="#000000" class="" style="fill:#000000"/><path d="m18 5h2v2h-2z" data-original="#000000" class="" style="fill:#000000"/><path d="m8 22h2v2h-2z" data-original="#000000" class="" style="fill:#000000"/><path d="m6 24h2v2h-2z" data-original="#000000" class="" style="fill:#000000"/><path d="m8 26h2v2h-2z" data-original="#000000" class="" style="fill:#000000"/><path d="m10 24h2v2h-2z" data-original="#000000" class="" style="fill:#000000"/></g> </svg>
