<?xml version="1.0"?>
<svg xmlns="http://www.w3.org/2000/svg" height="512px" viewBox="0 0 496 496" width="512px" class="hovered-paths"><g><g fill="#f0bc5e"><path d="m232 264h32v80h-32zm0 0" data-original="#F0BC5E" class="hovered-path active-path" style="fill:#00AD84" data-old_color="#F0BC5E"/><path d="m232 376h32v80h-32zm0 0" data-original="#F0BC5E" class="hovered-path active-path" style="fill:#00AD84" data-old_color="#F0BC5E"/><path d="m232 152h32v80h-32zm0 0" data-original="#F0BC5E" class="hovered-path active-path" style="fill:#00AD84" data-old_color="#F0BC5E"/><path d="m418.320312 384 21.679688 104h-40l-80-384h40l26.238281 125.761719-10.238281 10.238281 15.921875 15.921875-.242187.15625zm0 0" data-original="#F0BC5E" class="hovered-path active-path" style="fill:#00AD84" data-old_color="#F0BC5E"/><path d="m152 104h24l-80 384h-40l21.679688-104 26.640624-127.921875-.160156-.15625 15.839844-15.921875-10.238281-10.238281 26.238281-125.761719zm0 0" data-original="#F0BC5E" class="hovered-path active-path" style="fill:#00AD84" data-old_color="#F0BC5E"/></g><path d="m0 480h16v16h-16zm0 0" data-original="#000000" class=""/><path d="m480 480h16v16h-16zm0 0" data-original="#000000" class=""/><path d="m496 112v-112h-80v96h-16v-61.769531l-48-16v-18.230469h-96v48h-32v-12.945312l-40-20-40 20v60.945312h-16v-96h-80v32h-48v80h126.167969l-21.664063 104h-104.503906v48h32v112h-16v16h51.832031l-18.335937 88h-17.496094v16h432v-16h-17.496094l-18.335937-88h51.832031v-16h-16v-112h32v-48h-104.503906l-21.664063-104zm-64-96h48v80h-48zm-48 29.769531v50.230469h-32v-60.902344zm-112-29.769531h64v80h-48v-48h-16zm0 48v32h-48v-32zm-112-19.054688 24-12 24 12v51.054688h-48zm-48-28.945312v80h-48v-80zm-96 32h32v48h-32zm78.496094 216-14.496094 69.601562v-69.601562zm-78.496094-32h84.6875l8 8-8 8h-84.6875zm32 32h16v112h-16zm400 112h-16v-112h16zm-32-42.398438-14.496094-69.601562h14.496094zm64-101.601562v16h-84.6875l-8-8 8-8zm-102.503906-4.808594-12.808594 12.808594 19.550781 19.550781 24.257813 116.449219h-8.496094v16h11.832031l18.335938 88h-364.335938l18.335938-88h11.832031v-16h-8.496094l24.265625-116.449219 19.542969-19.550781-12.808594-12.808594 24-115.191406h211zm0 0" data-original="#000000" class=""/></g> </svg>
