<?xml version="1.0"?>
<svg xmlns="http://www.w3.org/2000/svg" xmlns:xlink="http://www.w3.org/1999/xlink" version="1.1" id="Capa_1" x="0px" y="0px" viewBox="0 0 465.76 465.76" style="enable-background:new 0 0 465.76 465.76;" xml:space="preserve" width="512px" height="512px"><g><g>
	<g>
		<path d="M106.88,161.057c-0.027,0-0.053,0-0.08,0h-56c-9.411,0-17.04,7.629-17.04,17.04v33.68c0,9.411,7.629,17.04,17.04,17.04h56    c9.411,0,17.04-7.629,17.04-17.04v-33.6C123.884,168.766,116.291,161.101,106.88,161.057z M107.84,211.697    c0,0.574-0.466,1.04-1.04,1.04h-56c-0.574,0-1.04-0.466-1.04-1.04v-33.52c-0.051-0.572,0.371-1.078,0.943-1.129    c0.086-0.008,0.172-0.005,0.257,0.009h56c0.574,0,1.04,0.466,1.04,1.04L107.84,211.697z" data-original="#000000" class="active-path" data-old_color="#000000" fill="#00AD84"/>
	</g>
</g><g>
	<g>
		<path d="M346,161.057c-0.053,0-0.107,0-0.16,0h-55.92c-9.411,0-17.04,7.629-17.04,17.04c0,0.027,0,0.053,0,0.08v33.68    c0,9.411,7.629,17.04,17.04,17.04h56c9.411,0,17.04-7.629,17.04-17.04v-33.68C363.004,168.766,355.411,161.101,346,161.057z     M346.88,211.777c0,0.574-0.466,1.04-1.04,1.04h-56c-0.574,0-1.04-0.466-1.04-1.04v-33.6c0-0.574,0.466-1.04,1.04-1.04h56    c0.574,0,1.04,0.466,1.04,1.04V211.777z" data-original="#000000" class="active-path" data-old_color="#000000" fill="#00AD84"/>
	</g>
</g><g>
	<g>
		<circle cx="97.6" cy="304.257" r="9.04" data-original="#000000" class="active-path" data-old_color="#000000" fill="#00AD84"/>
	</g>
</g><g>
	<g>
		<circle cx="326.88" cy="304.257" r="9.04" data-original="#000000" class="active-path" data-old_color="#000000" fill="#00AD84"/>
	</g>
</g><g>
	<g>
		<path d="M457.76,253.457L457.76,253.457c-4.418,0-8,3.582-8,8v6.64H416c-11.6-154.16-97.12-156.16-101.04-156.16H8    c-4.418,0-8,3.582-8,8v184c0,4.418,3.582,8,8,8h40c4.397,27.172,29.989,45.635,57.162,41.238    c21.193-3.43,37.809-20.045,41.238-41.238h131.28c4.397,27.172,29.989,45.635,57.162,41.238    c21.193-3.43,37.809-20.045,41.238-41.238h33.28c4.418,0,8-3.582,8-8c0-7.04,0-13.68-0.4-20.24h32.8v6.64c0,4.418,3.582,8,8,8    s8-3.582,8-8v-28.88C465.76,257.039,462.178,253.457,457.76,253.457z M131.68,304.257c0,18.733-15.186,33.92-33.92,33.92    c-0.053,0-0.107,0-0.16,0h0.16c-18.734,0-33.92-15.187-33.92-33.92c0-18.733,15.186-33.92,33.92-33.92    S131.68,285.523,131.68,304.257C131.68,304.257,131.68,304.257,131.68,304.257z M238.56,296.257    C238.56,296.257,238.56,296.257,238.56,296.257h-69.68c-0.574,0-1.04-0.466-1.04-1.04v-126.16c0-0.574,0.466-1.04,1.04-1.04h69.44    c0.574,0,1.04,0.466,1.04,1.04l0.24,126.16C239.6,295.791,239.134,296.257,238.56,296.257z M326.88,338.177h0.083    c-0.001,0-0.002,0-0.002,0C326.933,338.177,326.907,338.177,326.88,338.177z M326.999,338.176    c-18.715,0.022-33.915-15.119-33.959-33.839c-0.044-18.733,15.106-33.956,33.84-34s33.956,15.107,34,33.84c0,0.027,0,0.053,0,0.08    C360.88,322.977,345.715,338.155,326.999,338.176z M376.08,296.257c-4.397-27.172-29.989-45.635-57.161-41.238    c-21.193,3.429-37.809,20.045-41.238,41.238h-22.32c0,0,0-0.72,0-1.04v-126.16c0-9.411-7.629-17.04-17.04-17.04h-69.44    c-9.38,0.044-16.96,7.66-16.96,17.04v126.16c0,0,0,0.72,0,1.04h-5.28c-4.397-27.172-29.989-45.636-57.161-41.239    c-21.193,3.429-37.809,20.045-41.239,41.239h-32v-168h298.72c0.88,0,83.76,1.92,86.32,168H376.08z" data-original="#000000" class="active-path" data-old_color="#000000" fill="#00AD84"/>
	</g>
</g></g> </svg>
