<?xml version="1.0"?>
<svg xmlns="http://www.w3.org/2000/svg" viewBox="0 0 64 64" width="512px" height="512px"><g><g id="mail-money"><path d="M61.49,23.13A.973.973,0,0,0,61,23H51V8a1,1,0,0,0-1-1H14a1,1,0,0,0-1,1V23H3a.973.973,0,0,0-.49.13A1,1,0,0,0,2,24V56a1,1,0,0,0,1,1H61a1,1,0,0,0,1-1V24A1,1,0,0,0,61.49,23.13ZM51,25h6.49L51,29.03ZM15,9H49V30.27l-1,.62V12a1,1,0,0,0-1-1H41v2h5V32.13L33.58,39.84a2.957,2.957,0,0,1-3.16,0L18,32.13V13h5V11H17a1,1,0,0,0-1,1V30.89l-1-.62ZM13,25v4.03L6.51,25ZM60,55H4V25.8L29.36,41.54a4.979,4.979,0,0,0,5.28,0L60,25.8Z" data-original="#000000" class="active-path" data-old_color="#000000" fill="#00AD84"/><path d="M32,11A13,13,0,1,0,45,24,13.012,13.012,0,0,0,32,11Zm0,24A11,11,0,1,1,43,24,11.007,11.007,0,0,1,32,35Z" data-original="#000000" class="active-path" data-old_color="#000000" fill="#00AD84"/><path d="M34,23H33V19h1a2.006,2.006,0,0,1,2,2h2a4,4,0,0,0-4-4H33V15H31v2H30a4,4,0,0,0,0,8h1v4H30a2.006,2.006,0,0,1-2-2H26a4,4,0,0,0,4,4h1v2h2V31h1a4,4,0,0,0,0-8Zm-3,0H30a2,2,0,0,1,0-4h1Zm3,6H33V25h1a2,2,0,0,1,0,4Z" data-original="#000000" class="active-path" data-old_color="#000000" fill="#00AD84"/></g></g> </svg>
