<?xml version="1.0" encoding="utf-8"?>
<!-- Generator: Adobe Illustrator 23.0.3, SVG Export Plug-In . SVG Version: 6.00 Build 0)  -->
<svg version="1.1" id="Layer_1" xmlns="http://www.w3.org/2000/svg" xmlns:xlink="http://www.w3.org/1999/xlink" x="0px" y="0px"
	 viewBox="0 0 512 512" style="enable-background:new 0 0 512 512;" xml:space="preserve">
<style type="text/css">
	.st0{fill:#00BF91;}
</style>
<g>
	<path class="st0" d="M449.9,103.7L257.4,1.1c-2.9-1.5-6.3-1.5-9.1,0.1L61.2,103.7c-3.1,1.7-5,4.9-5,8.4v133.9
		c0.1,110.1,65.3,209.7,166.2,253.8l26,11.3c2.4,1.1,5.2,1.1,7.6,0l29.3-12.6C388.1,455.4,454.9,354.9,455,243.4V112.1
		C455,108.6,453,105.3,449.9,103.7z M435.8,243.4c0,103.8-62.3,197.4-157.9,237.5l-0.1,0l-25.5,11l-22.1-9.7
		C136.2,441.3,75.5,348.6,75.4,246.1V117.8L253,20.5l182.8,97.4V243.4z"/>
	<path class="st0" d="M182.3,239.9c-3.4-4-9.5-4.5-13.5-1.1c-4,3.4-4.5,9.5-1.1,13.5l50.6,59.3c3.4,4,9.3,4.5,13.3,1.2l117.9-95.9
		c4.1-3.3,4.7-9.4,1.4-13.5c-3.3-4.1-9.4-4.7-13.5-1.4l-110.6,90L182.3,239.9z"/>
</g>
</svg>
