<?xml version="1.0" encoding="utf-8"?>
<!-- Generator: Adobe Illustrator 23.0.3, SVG Export Plug-In . SVG Version: 6.00 Build 0)  -->
<svg version="1.1" id="Layer_1" xmlns="http://www.w3.org/2000/svg" xmlns:xlink="http://www.w3.org/1999/xlink" x="0px" y="0px"
	 viewBox="0 0 512 512" style="enable-background:new 0 0 512 512;" xml:space="preserve">
<style type="text/css">
	.st0{fill:#00AD84;}
</style>
<g id="shopping_路_cart_路_ecommerce_路_add_路_online">
	<path class="st0" d="M408,64c-48.6,0-88,39.4-88,88c0,8.1,1.2,16.2,3.4,24H138.9l-9.4-88.9C128.2,74,117.2,64,104,64H40
		c-6.3,0-12.4,2.5-16.9,7c-5.9,5.8-8.4,14.3-6.5,22.4c3,11.1,13.1,18.8,24.6,18.6h39.6L111,384.1c-22.1,1.2-39,20.1-37.7,42.1
		c1.1,20.7,17.9,37.1,38.7,37.8h40.8c4.4,21.6,25.5,35.6,47.2,31.2c15.7-3.2,28-15.5,31.2-31.2h81.6c4.4,21.6,25.5,35.6,47.2,31.2
		c15.7-3.2,28-15.5,31.2-31.2H424c4.4,0,8-3.6,8-8s-3.6-8-8-8h-32.8c-4.4-21.6-25.5-35.6-47.2-31.2c-15.7,3.2-28,15.5-31.2,31.2
		h-81.6c-4.4-21.6-25.5-35.6-47.2-31.2c-15.7,3.2-28,15.5-31.2,31.2H112c-13.3,0-24-10.7-24-24s10.7-24,24-24h306.8
		c11.5,0,21.4-8.2,23.5-19.4l33-172.1c31.3-37.1,26.5-92.6-10.7-123.8C448.8,71.3,428.7,64,408,64z M352,432c13.3,0,24,10.7,24,24
		s-10.7,24-24,24s-24-10.7-24-24C328,442.8,338.8,432,352,432z M192,432c13.3,0,24,10.7,24,24s-10.7,24-24,24s-24-10.7-24-24
		C168,442.8,178.8,432,192,432z M426.6,377.5c-0.7,3.8-4,6.5-7.8,6.5H127.2L96.7,110.2C95.8,102.1,88.9,96,80.8,96H41.3
		c-4.1,0.2-7.7-2.3-9-6.2c-0.7-2.7,0.2-5.6,2.2-7.5c1.4-1.5,3.4-2.4,5.5-2.3h64c5,0,9.1,3.8,9.6,8.8l10.2,96
		c0.4,4.1,3.8,7.2,7.9,7.2h198c2.9,5.7,6.4,11.1,10.5,16H134.8c-2.3,0-4.4,1-5.9,2.6c-1.5,1.7-2.3,3.9-2.1,6.2l14.2,144
		c0.4,4.1,3.8,7.2,7.9,7.2H408c3.9,0,7.3-2.8,7.9-6.7L437,235c6.6-2.4,12.9-5.4,18.8-9.2L426.6,377.5z M288,304v-32h57.8l-3.6,32
		H288z M340.4,320l-3.6,32H288v-32H340.4z M288,256v-32h63l-3.5,32H288z M217.8,304l-3.6-32H272v32H217.8z M272,320v32h-48.8
		l-3.6-32H272z M212.5,256l-3.5-32h63v32H212.5z M198.2,272l3.6,32h-50.3l-3.1-32H198.2z M146.7,256l-3.1-32h49.2l3.6,32H146.7z
		 M203.5,320l3.5,32h-50.9l-3.1-32H203.5z M414.6,272l-5.4,32h-51l3.6-32H414.6z M363.6,256l3-26.4c16.3,8.9,35.1,12.2,53.5,9.4
		l-2.9,17H363.6z M406.6,320l-5.4,32H353l3.5-32H406.6z M408,224c-39.8,0-72-32.2-72-72s32.2-72,72-72s72,32.2,72,72
		C479.9,191.7,447.7,223.9,408,224z"/>
	<path class="st0" d="M400,160v40c0,4.4,3.6,8,8,8s8-3.6,8-8v-40h40c4.4,0,8-3.6,8-8s-3.6-8-8-8h-40v-40c0-4.4-3.6-8-8-8s-8,3.6-8,8
		v40h-40c-4.4,0-8,3.6-8,8s3.6,8,8,8H400z"/>
</g>
</svg>
