<?xml version="1.0"?>
<svg xmlns="http://www.w3.org/2000/svg" id="Outline" viewBox="0 0 512 512" width="512px" height="512px"><g><path d="M472,304a8,8,0,0,0,8-8V264a8,8,0,0,0-8-8H432V232a8.005,8.005,0,0,0-1.344-4.438l-128-192A8,8,0,0,0,296,32H270.624a24,24,0,0,0-46.508,5.65L51.387,336H40a8,8,0,0,0-8,8v32a7.971,7.971,0,0,0,.647,3.151h0l39.689,92.606A39.954,39.954,0,0,0,109.1,496H402.9a39.955,39.955,0,0,0,36.766-24.243l39.688-92.606h0A7.971,7.971,0,0,0,480,376V344a8,8,0,0,0-8-8H272V304Zm-8-16H272V272H464ZM272,256V240H416v16Zm73.052-128H272V112h62.385Zm10.667,16,32,48H272V144Zm42.666,64,10.667,16H272V208ZM323.719,96H272V48h19.719ZM224,69.785V336H69.876ZM424.958,465.454A23.971,23.971,0,0,1,402.9,480H109.1a23.971,23.971,0,0,1-22.059-14.546L52.133,384H459.867ZM464,368H48V352H464ZM240,336V40a8,8,0,0,1,16,0V336Z" data-original="#000000" class="active-path" data-old_color="#000000" fill="#00AD84"/><rect x="152" y="400" width="16" height="16" rx="8" ry="8" data-original="#000000" class="active-path" data-old_color="#000000" fill="#00AD84"/><rect x="184" y="400" width="16" height="16" rx="8" ry="8" data-original="#000000" class="active-path" data-old_color="#000000" fill="#00AD84"/><rect x="216" y="400" width="16" height="16" rx="8" ry="8" data-original="#000000" class="active-path" data-old_color="#000000" fill="#00AD84"/><rect x="248" y="400" width="16" height="16" rx="8" ry="8" data-original="#000000" class="active-path" data-old_color="#000000" fill="#00AD84"/><rect x="280" y="400" width="16" height="16" rx="8" ry="8" data-original="#000000" class="active-path" data-old_color="#000000" fill="#00AD84"/><rect x="312" y="400" width="16" height="16" rx="8" ry="8" data-original="#000000" class="active-path" data-old_color="#000000" fill="#00AD84"/><rect x="344" y="400" width="16" height="16" rx="8" ry="8" data-original="#000000" class="active-path" data-old_color="#000000" fill="#00AD84"/></g> </svg>
