<?xml version="1.0" encoding="utf-8"?>
<!-- Generator: Adobe Illustrator 23.0.3, SVG Export Plug-In . SVG Version: 6.00 Build 0)  -->
<svg version="1.1" xmlns="http://www.w3.org/2000/svg" xmlns:xlink="http://www.w3.org/1999/xlink" x="0px" y="0px"
	 viewBox="0 0 512 512" style="enable-background:new 0 0 512 512;" xml:space="preserve">
<style type="text/css">
	.st0{fill:#DDDDDD;}
</style>
<g id="Capa_1">
	<g>
		<path class="st0" d="M511.6,197.8c-1.1-3.3-3.9-5.7-7.4-6.2l-165.8-24.1L264.2,17.2c-1.5-3.1-4.7-5.1-8.2-5.1s-6.7,2-8.2,5.1
			l-74.2,150.2L7.9,191.5c-3.5,0.5-6.3,2.9-7.4,6.2c-1.1,3.3-0.2,7,2.3,9.4l120,116.9L94.4,489.2c-0.6,3.4,0.8,6.9,3.6,9
			c2.8,2.1,6.6,2.3,9.7,0.7l148.3-78l148.3,78c1.3,0.7,2.8,1.1,4.3,1.1c1.9,0,3.8-0.6,5.4-1.8c2.8-2.1,4.2-5.5,3.6-9l-28.3-165.1
			l120-116.9C511.7,204.7,512.6,201.1,511.6,197.8z"/>
	</g>
</g>
<g id="Layer_2">
</g>
</svg>
