<?xml version="1.0"?>
<svg xmlns="http://www.w3.org/2000/svg" height="512px" viewBox="0 0 496 496" width="512px"><g><path d="m216 0c-119.105469 0-216 96.894531-216 216s96.894531 216 216 216c11.039062 0 22.152344-.839844 33.007812-2.511719l-2.421874-15.816406c-10.066407 1.542969-20.355469 2.328125-30.585938 2.328125-110.28125 0-200-89.71875-200-200s89.71875-200 200-200 200 89.71875 200 200c0 10.222656-.785156 20.511719-2.320312 30.585938l15.816406 2.421874c1.664062-10.871093 2.503906-21.976562 2.503906-33.007812 0-119.105469-96.894531-216-216-216zm0 0" data-original="#000000" class=""/><path d="m216 32c-101.464844 0-184 82.542969-184 184s82.535156 184 184 184c6.742188 0 13.734375-.40625 20.800781-1.199219l-1.800781-15.898437c-6.472656.730468-12.855469 1.097656-19 1.097656-43.441406 0-82.960938-16.71875-112.816406-43.878906l22.304687-22.296875-11.3125-11.3125-22.304687 22.296875c-25.464844-27.992188-41.558594-64.527344-43.464844-104.808594h31.59375v-16h-31.59375c1.914062-40.28125 18-76.816406 43.472656-104.808594l22.304688 22.296875 11.3125-11.3125-22.304688-22.296875c27.992188-25.472656 64.527344-41.558594 104.808594-43.472656v31.59375h16v-31.59375c40.28125 1.914062 76.816406 18 104.816406 43.472656l-22.304687 22.296875 11.3125 11.3125 22.304687-22.296875c27.152344 29.847656 43.871094 69.367188 43.871094 112.808594 0 6.128906-.367188 12.519531-1.105469 19l15.90625 1.792969c.792969-7.082031 1.199219-14.074219 1.199219-20.792969 0-101.457031-82.535156-184-184-184zm0 0" data-original="#000000" class=""/><path d="m208 212.6875-37.65625 37.65625 11.3125 11.3125 42.34375-42.34375v-91.3125h-16zm0 0" data-original="#000000" class=""/><path d="m360 496c-74.992188 0-136-61.007812-136-136s61.007812-136 136-136 136 61.007812 136 136-61.007812 136-136 136zm0 0" fill="#f0bc5e" data-original="#F0BC5E" class="active-path" style="fill:#00AD84" data-old_color="#f0bc5e"/><path d="m336 416h-72v-19l52.039062-59.480469c2.554688-2.917969 3.960938-6.664062 3.960938-10.535156v-6.984375c0-8.824219-7.175781-16-16-16s-16 7.175781-16 16v16h-16v-16c0-17.648438 14.351562-32 32-32s32 14.351562 32 32v6.984375c0 7.75-2.816406 15.238281-7.910156 21.070313l-45.457032 51.945312h53.367188zm0 0" data-original="#000000" class=""/><path d="m432 416h-16v-24h-64v-18.519531l59.832031-85.480469h20.167969v88h16v16h-16zm-62.230469-40h46.230469v-66.046875zm0 0" data-original="#000000" class=""/></g> </svg>
