<?xml version="1.0" encoding="utf-8"?>
<!-- Generator: Adobe Illustrator 23.0.3, SVG Export Plug-In . SVG Version: 6.00 Build 0)  -->
<svg version="1.1" id="Capa_1" xmlns="http://www.w3.org/2000/svg" xmlns:xlink="http://www.w3.org/1999/xlink" x="0px" y="0px"
	 viewBox="0 0 512 512" style="enable-background:new 0 0 512 512;" xml:space="preserve">
<style type="text/css">
	.st0{fill:#00BF91;}
</style>
<g>
	<g>
		<path class="st0" d="M117,94.5c4.1,0,7.5-3.4,7.5-7.5s-3.4-7.5-7.5-7.5s-7.5,3.4-7.5,7.5S112.8,94.5,117,94.5z M57,94.5
			c4.1,0,7.5-3.4,7.5-7.5s-3.4-7.5-7.5-7.5s-7.5,3.4-7.5,7.5S52.8,94.5,57,94.5z M87,94.5c4.1,0,7.5-3.4,7.5-7.5s-3.4-7.5-7.5-7.5
			s-7.5,3.4-7.5,7.5S82.8,94.5,87,94.5z M85.3,173.9c0,0,0.1,0,0.1,0l67.8,0h0c4.7,0,8.7-3,9.9-7.6c1.2-4.5-0.6-9.2-4.7-11.5
			l-10.3-6.1c16.6-16.4,25.9-38.8,25.8-62.3c-0.3-47-38.7-85.7-85.7-86.4C39.6-0.7,0,38.7,0,87C0,133.3,38.2,172.9,85.3,173.9z
			 M36.5,35.7C50.3,22.1,68.6,14.7,88,15c38.9,0.6,70.7,32.6,70.9,71.5c0.1,21-8.9,40.9-24.7,54.7c-2.6,2.3-4,5.8-3.7,9.3
			c0.3,3.5,2.3,6.6,5.3,8.4l0.1,0l-50.4,0c-39-0.7-70.5-32.9-70.5-72C15,67.6,22.6,49.3,36.5,35.7L36.5,35.7z M504.5,497H497V385.3
			c0-29.3-17.3-55.8-44.1-67.7l-39.5-16.9c9.6-3,18.3-8.4,25.4-16c10.7-11.3,16.8-26.7,16.8-42.2c0-14.2-5-27.6-14.4-38.8
			c-11.8-14-18.2-31.7-18.2-49.9v-35.9c0-31.5-12.3-61.1-34.5-83.3C366.1,12.3,336.5,0,305.1,0c-65,0-117.8,52.9-117.8,117.8v34.8
			c0,18.9-7.4,36.9-19.5,51.4c-15.2,18.3-18.3,43-8.2,64.5c7.5,16,21,27.4,37.2,32.3L157.5,318c-27.5,11.6-45.3,38.4-45.3,68.3v88.3
			c0,4.1,3.4,7.5,7.5,7.5s7.5-3.4,7.5-7.5v-88.3c0-23.8,14.2-45.2,36.2-54.5l49.2-21.4v45.1H190c-6.4,0-12.5,2.7-16.7,7.5
			c-4.3,4.7-6.3,11.1-5.6,17.4L180,497H7.5c-4.1,0-7.5,3.4-7.5,7.5s3.4,7.5,7.5,7.5h497c4.1,0,7.5-3.4,7.5-7.5S508.6,497,504.5,497
			L504.5,497z M429.7,213.4c7.1,8.4,10.8,18.5,10.8,29.1c0,11.7-4.6,23.3-12.7,31.9c-8.5,9.1-20.3,14.1-33.1,14.1H385l-12.8-5.5
			c-11.2-4.8-18.9-15.1-20.5-27c23.1-12.5,38.9-36.9,38.9-65v-56.4c2.2,0.1,4.4,0.2,6.6,0.2c3.6,0,7.2-0.2,10.8-0.6v19.5
			C407.9,175.6,415.6,196.7,429.7,213.4L429.7,213.4z M306.9,331.8c-26.8,0.5-53.5-2.9-79.3-10.1v-17.9l2.2-0.9c0,0,0,0,0.1,0
			l13.4-5.8c14.9-6.5,25.4-19.7,28.6-35.2c6.5,1.9,13.4,2.9,20.6,2.9h24.4c7.2,0,14.1-1,20.6-3c3.3,15.4,13.9,28.6,28.8,35l14.3,6.1
			c0,0,0,0,0,0l1.1,0.5v16.9C357.3,327.4,332.2,331.3,306.9,331.8L306.9,331.8z M381.6,335.8v19.7h-154v-18.3
			c24.3,6.4,49.3,9.6,74.4,9.6c1.7,0,3.4,0,5.1,0C332.3,346.3,357.3,342.7,381.6,335.8L381.6,335.8z M407.9,119.1
			c-20.7,2.8-43.9-2.7-60-15.2c-3.3-2.5-8-1.9-10.5,1.3c-2.5,3.3-1.9,8,1.3,10.5c10.5,8.1,23.1,13.8,36.8,16.7v40.8
			c-3.6,8.2-7.6,15-16.7,22.5c-3.8,3.1-8,5.8-12.4,7.8c-3.6-7.1-11-12-19.6-12h-17.6c-12.1,0-22,9.9-22,22s9.9,22,22,22h17.6
			c10.2,0,18.8-7,21.3-16.4c10-3.8,26.4-17.5,26.4-17.5c-5.1,27.3-29,48-57.8,48h-24.4c-32.4,0-58.8-26.4-58.8-58.8v-58
			c25.5-4,49.5-12.6,71.6-25.7c33.6-19.9,55.2-45.9,68.2-66.4C395.6,60.8,408.3,89.2,407.9,119.1L407.9,119.1z M333.9,213.7
			c0,3.8-3.1,7-7,7h-17.6c-3.9,0-7-3.1-7-7s3.1-7,7-7h17.6C330.7,206.7,333.9,209.8,333.9,213.7L333.9,213.7z M202.2,117.8
			C202.2,61.1,248.4,15,305.1,15c20.3,0,39.8,5.9,56.4,16.8c-12,19.2-32.1,43.9-63.9,62.6c-21.8,12.9-45.7,21.1-71,24.4h-0.5
			c0,0,0,0,0,0s0,0,0,0h-23.9L202.2,117.8L202.2,117.8z M173.1,262.2c-7.6-16.2-5.2-34.8,6.2-48.6c14.3-17.3,23-38.6,22.9-61v-18.7
			h16.4V191c0,28.1,15.8,52.6,38.9,65c-1.4,12-9.1,22.4-20.3,27.3l-11.9,5.2h-10.9C196.5,288.5,180.7,278.4,173.1,262.2L173.1,262.2
			z M434.2,378.8L421.7,497H195.1l-12.5-118.2c-0.2-2.1,0.4-4.2,1.9-5.8c1.4-1.6,3.4-2.5,5.6-2.5h236.7c2.2,0,4.1,0.9,5.6,2.5
			C433.8,374.6,434.4,376.6,434.2,378.8L434.2,378.8z M482,497h-45.3l12.4-116.6c0.7-6.3-1.4-12.7-5.6-17.4
			c-4.3-4.7-10.4-7.5-16.7-7.5h-30.2v-45.7l50.3,21.6c21.3,9.5,35.1,30.6,35.1,54V497z M308.4,405.3c-15.7,0-28.5,12.8-28.5,28.5
			s12.8,28.5,28.5,28.5s28.5-12.8,28.5-28.5S324.1,405.3,308.4,405.3z M308.4,447.3c-7.4,0-13.5-6.1-13.5-13.5s6.1-13.5,13.5-13.5
			s13.5,6.1,13.5,13.5S315.8,447.3,308.4,447.3z"/>
	</g>
</g>
</svg>
