<?xml version="1.0" encoding="utf-8"?>
<!-- Generator: Adobe Illustrator 23.0.3, SVG Export Plug-In . SVG Version: 6.00 Build 0)  -->
<svg version="1.1" id="Capa_1" xmlns="http://www.w3.org/2000/svg" xmlns:xlink="http://www.w3.org/1999/xlink" x="0px" y="0px"
	 viewBox="0 0 512 512" style="enable-background:new 0 0 512 512;" xml:space="preserve">
<style type="text/css">
	.st0{fill:#00AD84;stroke:#000000;stroke-miterlimit:10;}
</style>
<circle class="st0" cx="401.1" cy="375.4" r="53.9"/>
<circle class="st0" cx="110.9" cy="375.4" r="53.9"/>
<g>
	<g>
		<g>
			<path d="M110.9,349.8c-14.1,0-25.6,11.5-25.6,25.6S96.8,401,110.9,401s25.6-11.5,25.6-25.6S125.1,349.8,110.9,349.8z M110.9,384
				c-4.7,0-8.5-3.8-8.5-8.5c0-4.7,3.8-8.5,8.5-8.5s8.5,3.8,8.5,8.5C119.5,380.2,115.6,384,110.9,384z"/>
		</g>
	</g>
	<g>
		<g>
			<path d="M401.1,349.8c-14.1,0-25.6,11.5-25.6,25.6s11.5,25.6,25.6,25.6s25.6-11.5,25.6-25.6S415.2,349.8,401.1,349.8z M401.1,384
				c-4.7,0-8.5-3.8-8.5-8.5c0-4.7,3.8-8.5,8.5-8.5s8.5,3.8,8.5,8.5C409.6,380.2,405.8,384,401.1,384z"/>
		</g>
	</g>
	<g>
		<g>
			<path d="M204.8,204.8h-42.7c-3.2,0-6.2,1.8-7.6,4.7l-25.6,51.2c-1.3,2.6-1.2,5.8,0.4,8.3c1.6,2.5,4.3,4.1,7.3,4.1h68.3
				c4.7,0,8.5-3.8,8.5-8.5v-51.2C213.3,208.6,209.5,204.8,204.8,204.8z M196.3,256h-45.9l17.1-34.1h28.9V256z"/>
		</g>
	</g>
	<g>
		<g>
			<path d="M455,209.8c-11.6,7.7-14.7,23.4-7,35c4.7,7,12.5,11.2,21,11.2h17.9c13.9,0,25.2-11.3,25.2-25.2v-8.9h-17.1v8.9
				c0,4.5-3.6,8.1-8.1,8.1h-17.9c-4.5,0-8.1-3.6-8.1-8.1c0-2.7,1.4-5.3,3.6-6.8l18.2-12.1c2.4-1.6,3.8-4.2,3.8-7.1V102.4
				c-0.1-14.3-11.9-25.8-26.2-25.6c-7.6,0.1-14.9,3.5-19.7,9.4L313.2,240.3l-26.5-53.1c13.9-2.8,22.8-16.3,20-30.2
				c-2.4-11.9-12.9-20.5-25-20.5h-51.2c-14.1,0-25.6,11.5-25.6,25.6c0,2.9,0.6,5.8,1.6,8.5h-54c-12.9,0-24.8,7.3-30.5,18.9
				l-33.7,67.4l-53.8,10.8c-18.3,3.7-32.1,19-33.9,37.6c-0.2,0.6-0.3,1.2-0.4,1.9v68.3c0,4.7,3.8,8.5,8.5,8.5h43.3
				c4.7,32.6,34.9,55.3,67.5,50.6c26.2-3.8,46.8-24.4,50.6-50.6h145.7c3.3,0,6.2-1.8,7.7-4.7l23.2-46.5h12.7
				c-23.6,23-24.1,60.9-1,84.5c23,23.6,60.9,24.1,84.5,1c23.6-23,24.1-60.9,1-84.5c-0.3-0.3-0.7-0.7-1-1h12.7l23.2,46.5
				c1.4,2.9,4.4,4.7,7.6,4.7h17.1c4.7,0,8.5-3.8,8.5-8.5v-93.9c0-4.7-3.8-8.5-8.5-8.5H374.8L469.3,138v62.2L455,209.8z M310.5,273
				h-31.2l-28.4-85.3h17L310.5,273z M261.2,273h-13.8v-41.3L261.2,273z M17.1,315.7h34.1v17.1H17.1V315.7z M56.1,351.9
				c-0.3,0.6-0.5,1.3-0.7,1.9c-0.4,1.1-0.9,2.2-1.2,3.4c-0.2,0.7-0.4,1.5-0.6,2.2c-0.3,1.1-0.6,2.2-0.9,3.3
				c-0.2,0.8-0.3,1.6-0.5,2.4c-0.1,0.7-0.3,1.3-0.4,2H17.1v-17.1h40C56.7,350.5,56.4,351.2,56.1,351.9z M110.9,418.1
				c-23.6,0-42.7-19.1-42.7-42.7c0-23.6,19.1-42.7,42.7-42.7s42.7,19.1,42.7,42.7C153.6,399,134.5,418.1,110.9,418.1z M230.4,281.6
				v85.3h-60.3c-0.1-0.7-0.3-1.3-0.4-2c-0.1-0.8-0.3-1.6-0.5-2.4c-0.2-1.1-0.5-2.2-0.9-3.3c-0.2-0.7-0.4-1.5-0.6-2.2
				c-0.4-1.1-0.8-2.2-1.2-3.4c-0.2-0.6-0.5-1.3-0.7-1.9c-0.6-1.3-1.2-2.6-1.8-3.8c-0.2-0.4-0.4-0.8-0.6-1.2
				c-0.9-1.6-1.9-3.2-2.9-4.8c-0.2-0.2-0.3-0.5-0.5-0.7c-0.9-1.3-1.8-2.6-2.8-3.7c-0.4-0.5-0.8-0.9-1.2-1.3
				c-0.8-0.9-1.6-1.9-2.5-2.7c-0.5-0.5-1-1-1.5-1.4c-0.9-0.8-1.7-1.6-2.6-2.3c-0.6-0.5-1.2-0.9-1.7-1.4c-0.9-0.7-1.7-1.3-2.6-2
				c-0.6-0.4-1.3-0.9-1.9-1.3c-0.9-0.6-1.8-1.1-2.8-1.7c-0.7-0.4-1.4-0.8-2.1-1.1c-1-0.5-1.9-1-2.9-1.4c-0.7-0.3-1.4-0.6-2.2-0.9
				c-1-0.4-2.1-0.8-3.1-1.1c-0.7-0.2-1.5-0.5-2.2-0.7c-1.1-0.3-2.2-0.6-3.3-0.9c-0.7-0.2-1.4-0.4-2.2-0.5c-1.3-0.2-2.6-0.4-3.8-0.6
				c-0.6-0.1-1.2-0.2-1.9-0.3c-1.9-0.2-3.9-0.3-5.8-0.3s-3.9,0.1-5.8,0.3c-0.6,0.1-1.3,0.2-1.9,0.3c-1.3,0.2-2.6,0.3-3.8,0.6
				c-0.7,0.1-1.5,0.3-2.2,0.5c-1.1,0.3-2.2,0.5-3.3,0.9c-0.7,0.2-1.5,0.5-2.2,0.7c-1,0.4-2.1,0.7-3.1,1.1c-0.7,0.3-1.4,0.6-2.2,0.9
				c-1,0.5-2,0.9-2.9,1.4c-0.7,0.4-1.4,0.7-2.1,1.1c-0.9,0.5-1.9,1.1-2.8,1.7c-0.6,0.4-1.3,0.9-1.9,1.3c-0.9,0.6-1.8,1.3-2.6,2
				c-0.6,0.5-1.2,0.9-1.7,1.4c-0.9,0.7-1.7,1.5-2.6,2.3c-0.5,0.5-1,0.9-1.5,1.4l-0.1,0.1v-26.5c0-4.7-3.8-8.5-8.5-8.5H19.6
				c3.4-7.3,10.1-12.6,18-14.2l57.9-11.6c2.6-0.5,4.8-2.2,6-4.5l35.6-71.2c2.9-5.8,8.8-9.4,15.2-9.4h78V281.6z M221.9,162.1
				c0-4.7,3.8-8.5,8.5-8.5h51.2c4.7,0,8.5,3.8,8.5,8.5c0,4.7-3.8,8.5-8.5,8.5h-51.2C225.7,170.6,221.9,166.8,221.9,162.1z
				 M443.7,375.4c0,23.6-19.1,42.7-42.7,42.7c-23.6,0-42.7-19.1-42.7-42.7c0-23.6,19.1-42.7,42.7-42.7
				C424.6,332.8,443.7,351.9,443.7,375.4z M494.9,290.1v76.8h-3.3l-23.2-46.5c-1.5-2.9-4.4-4.7-7.7-4.7H341.3
				c-3.3,0-6.2,1.8-7.7,4.7l-23.2,46.5h-63v-76.8H494.9z M467.7,110.5L354,273h-24.4l-3.9-7.8l-4.1-8.2L453.6,97.1
				c3.1-3.8,8.7-4.3,12.5-1.2c2,1.7,3.2,4.2,3.2,6.8v2.7C469.3,107.2,468.8,109,467.7,110.5z"/>
		</g>
	</g>
	<g>
		<g>
			<rect x="179.2" y="290.1" width="34.1" height="17.1"/>
		</g>
	</g>
</g>
</svg>
