<?xml version="1.0"?>
<svg xmlns="http://www.w3.org/2000/svg" id="Layer_5" enable-background="new 0 0 64 64" height="512px" viewBox="0 0 64 64" width="512px" class=""><g><g><g><g><path d="m20 63c-3.86 0-7-3.14-7-7s3.14-7 7-7 7 3.14 7 7-3.14 7-7 7zm0-9c-1.103 0-2 .897-2 2s.897 2 2 2 2-.897 2-2-.897-2-2-2z" fill="#f0bc5e" data-original="#F0BC5E" class="active-path" style="fill:#00AD84" data-old_color="#f0bc5e"/></g></g><g><path d="m54 23c-2.757 0-5-2.243-5-5s2.243-5 5-5c.208 0 .409.025.609.054l-.196 1.992-.085-.012c-.108-.015-.216-.034-.328-.034-1.654 0-3 1.346-3 3s1.346 3 3 3c.516 0 1.02-.141 1.497-.419l1.007 1.729c-.788.458-1.63.69-2.504.69z" data-original="#000000" class="" style="fill:#000000"/></g><g><path d="m42 30c-1.105 0-2-.895-2-2s.895-2 2-2 2 .895 2 2-.895 2-2 2h2.584c1.345 0 2.625.352 3.761.959l.003-.007c.433-.927.652-1.921.652-2.952 0-3.86-3.14-7-7-7s-7 3.14-7 7c0 .683.118 1.352.312 2z" fill="#f0bc5e" data-original="#F0BC5E" class="active-path" style="fill:#00AD84" data-old_color="#f0bc5e"/></g><g><g><path d="m48 63c-3.86 0-7-3.14-7-7s3.14-7 7-7 7 3.14 7 7-3.14 7-7 7zm0-9c-1.103 0-2 .897-2 2s.897 2 2 2 2-.897 2-2-.897-2-2-2z" fill="#f0bc5e" data-original="#F0BC5E" class="active-path" style="fill:#00AD84" data-old_color="#f0bc5e"/></g></g><g><g><path d="m20 63c-3.86 0-7-3.14-7-7s3.14-7 7-7 7 3.14 7 7-3.14 7-7 7zm0-9c-1.103 0-2 .897-2 2s.897 2 2 2 2-.897 2-2-.897-2-2-2z" fill="#f0bc5e" data-original="#F0BC5E" class="active-path" style="fill:#00AD84" data-old_color="#f0bc5e"/></g></g><g><g><path d="m14 35c-3.86 0-7-3.14-7-7s3.14-7 7-7 7 3.14 7 7-3.14 7-7 7zm0-9c-1.103 0-2 .897-2 2s.897 2 2 2 2-.897 2-2-.897-2-2-2z" fill="#f0bc5e" data-original="#F0BC5E" class="active-path" style="fill:#00AD84" data-old_color="#f0bc5e"/></g></g><g><path d="m26.92 57c-.102.706-.308 1.378-.605 2h15.37c-.297-.622-.503-1.294-.605-2z" data-original="#000000" class="" style="fill:#000000"/><path d="m44.228 33h-15.456c-2.073 0-3.954 1.304-4.682 3.245l-2.09 5.574v7.476c.723.216 1.396.546 2 .969v-5.264h2c1.474 0 2.75-.81 3.444-2h4.556v10h-7.685c.297.622.503 1.294.605 2h14.16c.102-.706.308-1.378.605-2h-5.685v-10h13v6.08c.706.102 1.378.308 2 .605v-7.866l-2.09-5.574c-.728-1.941-2.609-3.245-4.682-3.245zm-18.228 10h-2v-.819l.443-1.181h3.557c0 1.103-.897 2-2 2zm4-2c0-1.103-.897-2-2-2h-2.807l.77-2.053c.437-1.165 1.565-1.947 2.809-1.947h5.228v6zm6-6h8.228c1.244 0 2.372.782 2.809 1.947l1.52 4.053h-12.557z" data-original="#000000" class="" style="fill:#000000"/><path d="m45 21.685v-7.866l-2.09-5.574c-.728-1.941-2.609-3.245-4.682-3.245h-15.456c-2.073 0-3.954 1.304-4.682 3.245l-2.09 5.574v7.476c.723.216 1.396.546 2 .969v-5.264h2c1.474 0 2.75-.81 3.444-2h4.556v10h-7.685c.297.622.503 1.294.605 2h14.16c.102-.706.308-1.378.605-2h-5.685v-10h13v6.08c.706.102 1.378.308 2 .605zm-25-6.685h-2v-.819l.443-1.181h3.557c0 1.103-.897 2-2 2zm4-2c0-1.103-.897-2-2-2h-2.807l.77-2.053c.437-1.165 1.565-1.947 2.809-1.947h5.228v6zm6-6h8.228c1.244 0 2.372.782 2.809 1.947l1.52 4.053h-12.557z" data-original="#000000" class="" style="fill:#000000"/><path d="m59.213 40.272-4.474-1.119-1.798-4.497c-.591-1.476-1.548-2.709-2.724-3.657h1.783c2.757 0 5-2.243 5-5v-8.877c0-2.299-1.558-4.293-3.787-4.851l-4.474-1.119-1.799-4.495c-1.375-3.436-4.654-5.657-8.356-5.657h-16.167c-3.702 0-6.982 2.221-8.357 5.657l-1.786 4.465-7.035 1.368c-2.456.378-4.239 2.456-4.239 4.942v8.568c0 2.757 2.243 5 5 5h1.685c-.297-.622-.503-1.294-.605-2h-1.08c-1.302 0-2.402-.839-2.816-2h3.896c.102-.706.308-1.378.605-2h-4.685v-2.101c2.279-.465 4-2.485 4-4.899 0-1.358-.551-2.609-1.472-3.527.019-.003.036-.01.055-.013l8.144-1.582 2.19-5.478c1.069-2.673 3.62-4.4 6.5-4.4h16.167c2.879 0 5.43 1.727 6.499 4.4l2.178 5.446 5.467 1.367c1.337.334 2.272 1.531 2.272 2.91v7.877h-6.685c.297.622.503 1.294.605 2h5.896c-.414 1.161-1.514 2-2.816 2h-3.079c-.049.341-.121.676-.217 1.005-1.182-.607-2.503-.954-3.893-.988.115-.319.189-.658.189-1.017 0-1.654-1.346-3-3-3s-3 1.346-3 3c0 .352.072.686.184 1h-10.184-.584-7.496c-.102.706-.308 1.378-.605 2h2.468c-1.176.948-2.133 2.181-2.724 3.657l-1.786 4.465-7.035 1.367c-2.455.379-4.238 2.457-4.238 4.943v8.568c0 2.757 2.243 5 5 5h1.685c-.297-.622-.503-1.294-.605-2h-1.08c-1.302 0-2.402-.839-2.816-2h3.896c.102-.706.308-1.378.605-2h-4.685v-2.101c2.279-.465 4-2.484 4-4.899 0-1.358-.551-2.609-1.472-3.527.019-.003.036-.01.055-.013l8.144-1.582 2.191-5.477c1.069-2.673 3.62-4.4 6.499-4.4h.583 15.583c2.879 0 5.431 1.727 6.5 4.4l2.178 5.446 3.974.993c-1.345.897-2.235 2.425-2.235 4.16 0 2.757 2.243 5 5 5 .339 0 .672-.046 1-.115v2.115h-6.685c.297.622.503 1.294.605 2h5.896c-.414 1.161-1.514 2-2.816 2h-3.08c-.102.706-.308 1.378-.605 2h3.685c2.757 0 5-2.243 5-5v-8.877c0-2.299-1.558-4.293-3.787-4.851zm-56.213-19.456v-3.384c0-.721.254-1.382.684-1.902.812.55 1.316 1.462 1.316 2.47 0 1.302-.839 2.402-2 2.816zm6 28v-3.384c0-.721.254-1.382.684-1.902.812.55 1.316 1.462 1.316 2.47 0 1.302-.839 2.402-2 2.816zm32-20.816c0-.551.449-1 1-1s1 .449 1 1-.449 1-1 1-1-.449-1-1zm20 20.793c-.326.123-.659.207-1 .207-1.654 0-3-1.346-3-3s1.346-3 3-3c.042 0 .082.009.123.013.544.547.877 1.294.877 2.11z" data-original="#000000" class="" style="fill:#000000"/><path d="m48 53c-1.654 0-3 1.346-3 3s1.346 3 3 3 3-1.346 3-3-1.346-3-3-3zm0 4c-.551 0-1-.449-1-1s.449-1 1-1 1 .449 1 1-.449 1-1 1z" data-original="#000000" class="" style="fill:#000000"/><path d="m20 53c-1.654 0-3 1.346-3 3s1.346 3 3 3 3-1.346 3-3-1.346-3-3-3zm0 4c-.551 0-1-.449-1-1s.449-1 1-1 1 .449 1 1-.449 1-1 1z" data-original="#000000" class="" style="fill:#000000"/><path d="m11 28c0 1.654 1.346 3 3 3s3-1.346 3-3-1.346-3-3-3-3 1.346-3 3zm4 0c0 .551-.449 1-1 1s-1-.449-1-1 .449-1 1-1 1 .449 1 1z" data-original="#000000" class="" style="fill:#000000"/></g></g></g> </svg>
